<svg width="25" height="25" viewBox="0 0 25 25" fill="none" xmlns="http://www.w3.org/2000/svg">
<g clip-path="url(#clip0_223_10325)">
<path d="M13.4295 9.39741C13.2136 4.66848 11.8615 1.02539 10.2259 1.02539C8.43998 1.02539 6.99219 5.36872 6.99219 10.7265C6.99219 16.0842 8.43998 20.4276 10.2259 20.4276" stroke="white" stroke-width="1.5125" stroke-miterlimit="10" stroke-linejoin="round"/>
<path d="M1.19141 13.96H11.4091" stroke="white" stroke-width="1.5125" stroke-miterlimit="10" stroke-linejoin="round"/>
<path d="M1.19141 7.49219H19.2742" stroke="white" stroke-width="1.5125" stroke-miterlimit="10" stroke-linejoin="round"/>
<path d="M19.8581 9.51151C19.2603 4.72719 15.1786 1.02539 10.2323 1.02539C4.87458 1.02539 0.53125 5.36868 0.53125 10.7265C0.53125 16.0843 4.87458 20.4276 10.2323 20.4276C10.6857 20.4276 11.1317 20.3965 11.5685 20.3363" stroke="white" stroke-width="1.5125" stroke-miterlimit="10" stroke-linejoin="round"/>
<path d="M15.9895 13.5859L14.505 15.0705L13.7188 14.2843" stroke="white" stroke-width="1.5125" stroke-miterlimit="10" stroke-linecap="round" stroke-linejoin="round"/>
<path d="M18.0703 13.1914H21.6255" stroke="white" stroke-width="1.5125" stroke-miterlimit="10" stroke-linecap="round" stroke-linejoin="round"/>
<path d="M19.9892 15.2705H18.0703" stroke="white" stroke-width="1.5125" stroke-miterlimit="10" stroke-linecap="round" stroke-linejoin="round"/>
<path d="M15.9895 18.6924L14.505 20.1769L13.7188 19.3907" stroke="white" stroke-width="1.5125" stroke-miterlimit="10" stroke-linecap="round" stroke-linejoin="round"/>
<path d="M18.0703 18.2969H21.6255" stroke="white" stroke-width="1.5125" stroke-miterlimit="10" stroke-linecap="round" stroke-linejoin="round"/>
<path d="M19.9892 20.377H18.0703" stroke="white" stroke-width="1.5125" stroke-miterlimit="10" stroke-linecap="round" stroke-linejoin="round"/>
<path d="M23.6861 9.57227H11.6211V24.1755H23.6861V9.57227Z" stroke="white" stroke-width="1.5125" stroke-miterlimit="10" stroke-linecap="round" stroke-linejoin="round"/>
</g>
<defs>
<clipPath id="clip0_223_10325">
<rect width="24.2" height="24.2" fill="white" transform="translate(0 0.5)"/>
</clipPath>
</defs>
</svg>
