<svg width="18" height="18" viewBox="0 0 18 18" fill="none" xmlns="http://www.w3.org/2000/svg">
<path fill-rule="evenodd" clip-rule="evenodd" d="M0.979492 12.667C0.979492 12.2873 1.2873 11.9795 1.66699 11.9795H9.91699C10.2967 11.9795 10.6045 12.2873 10.6045 12.667C10.6045 13.0467 10.2967 13.3545 9.91699 13.3545H1.66699C1.2873 13.3545 0.979492 13.0467 0.979492 12.667Z" fill="#686C82"/>
<path fill-rule="evenodd" clip-rule="evenodd" d="M2.8125 8.08301C2.8125 7.70332 3.12031 7.39551 3.5 7.39551H9.91667C10.2963 7.39551 10.6042 7.70332 10.6042 8.08301C10.6042 8.46269 10.2963 8.77051 9.91667 8.77051H3.5C3.12031 8.77051 2.8125 8.46269 2.8125 8.08301Z" fill="#686C82"/>
<path fill-rule="evenodd" clip-rule="evenodd" d="M4.64648 3.5C4.64648 3.12031 4.95429 2.8125 5.33398 2.8125H9.91732C10.297 2.8125 10.6048 3.12031 10.6048 3.5C10.6048 3.87969 10.297 4.1875 9.91732 4.1875H5.33398C4.95429 4.1875 4.64648 3.87969 4.64648 3.5Z" fill="#686C82"/>
<path fill-rule="evenodd" clip-rule="evenodd" d="M13.3666 16.9859C13.6473 17.0794 13.9564 16.9829 14.134 16.7462L16.884 13.0795C17.1118 12.7758 17.0503 12.3448 16.7465 12.117C16.4427 11.8892 16.0118 11.9508 15.784 12.2545L14.2715 14.2712V1.66699C14.2715 1.2873 13.9637 0.979492 13.584 0.979492C13.2043 0.979492 12.8965 1.2873 12.8965 1.66699V16.3337C12.8965 16.6296 13.0859 16.8923 13.3666 16.9859Z" fill="#686C82"/>
</svg>
