<svg width="22" height="22" viewBox="0 0 22 22" fill="none" xmlns="http://www.w3.org/2000/svg">
<path fill-rule="evenodd" clip-rule="evenodd" d="M7.32583 2H15.0075C18.3442 2 20.3333 3.98917 20.3242 7.32583V15.0075C20.3242 18.3442 18.335 20.3333 14.9983 20.3333H7.32583C3.98917 20.3333 2 18.3442 2 14.9983V7.32583C2 3.98917 3.98917 2 7.32583 2ZM12.2441 6.74459C12.4589 6.5298 12.8071 6.5298 13.0219 6.74459L15.213 8.93569C15.6981 9.42076 15.3545 10.2502 14.6685 10.2502H7.13301C6.82925 10.2502 6.58301 10.0039 6.58301 9.70016C6.58301 9.39641 6.82925 9.15016 7.13301 9.15016H13.8719L12.2441 7.5224C12.0293 7.30762 12.0293 6.95938 12.2441 6.74459ZM10.0886 15.5891C9.8738 15.8039 9.52555 15.8039 9.31077 15.5891L7.11966 13.398C6.63459 12.9129 6.97814 12.0835 7.66413 12.0835H15.1997C15.5034 12.0835 15.7497 12.3297 15.7497 12.6335C15.7497 12.9373 15.5034 13.1835 15.1997 13.1835H8.46083L10.0886 14.8113C10.3034 15.026 10.3034 15.3743 10.0886 15.5891Z" fill="#454C76"/>
</svg>
