<svg width="26" height="26" viewBox="0 0 26 26" fill="none" xmlns="http://www.w3.org/2000/svg">
<path d="M20.3759 21.6316C20.5498 21.8067 20.7786 21.8935 21.0068 21.8935C21.2352 21.8935 21.4648 21.8055 21.6386 21.6317C21.9872 21.2831 21.9872 20.7178 21.6386 20.3692L17.4386 16.1692C17.0899 15.8205 16.5247 15.8205 16.176 16.1692C15.8274 16.5178 15.8274 17.0831 16.176 17.4317L20.3758 21.6315C20.3758 21.6315 20.3759 21.6316 20.3759 21.6316Z" fill="white" stroke="white" stroke-width="0.21"/>
<path d="M3.31687 11.5496C3.31687 16.0942 7.01474 19.7921 11.5594 19.7921C16.104 19.7921 19.8019 16.0942 19.8019 11.5496C19.8019 7.00497 16.104 3.30711 11.5594 3.30711C7.01474 3.30711 3.31687 7.00497 3.31687 11.5496ZM5.10188 11.5496C5.10188 7.9893 7.99907 5.09211 11.5594 5.09211C15.1197 5.09211 18.0169 7.9893 18.0169 11.5496C18.0169 15.1099 15.1197 18.0071 11.5594 18.0071C7.99907 18.0071 5.10188 15.1099 5.10188 11.5496Z" fill="white" stroke="white" stroke-width="0.21"/>
</svg>
