<svg width="22" height="22" viewBox="0 0 22 22" fill="none" xmlns="http://www.w3.org/2000/svg">
<path d="M7.82197 7.82206C11.4593 7.82206 14.1772 6.38419 14.1772 5.0985C14.1772 3.81293 11.4593 2.375 7.82197 2.375C4.18467 2.375 1.4668 3.81293 1.4668 5.0985C1.4668 6.38419 4.18461 7.82206 7.82197 7.82206Z" fill="#454C76"/>
<path d="M7.82197 18.7174C8.35287 18.7174 8.86385 18.6865 9.34989 18.6303C8.94019 18.1037 8.60137 17.5195 8.34754 16.892C8.17314 16.8978 7.99813 16.9019 7.82191 16.9019C5.74353 16.9019 3.77527 16.4901 2.27985 15.7424C1.98541 15.5951 1.71445 15.437 1.4668 15.2695V15.9939C1.4668 17.2795 4.18461 18.7174 7.82197 18.7174Z" fill="#454C76"/>
<path d="M7.82203 15.0855C7.84067 15.0855 7.85901 15.0852 7.8776 15.0852C7.84037 14.7876 7.82094 14.4845 7.82094 14.177C7.82094 13.8696 7.84031 13.5667 7.8776 13.2693C7.85901 13.2693 7.84061 13.27 7.82203 13.27C5.74365 13.27 3.77545 12.8582 2.27997 12.1105C1.98547 11.9632 1.71445 11.8051 1.4668 11.6377V12.362C1.46686 13.6476 4.18467 15.0855 7.82203 15.0855Z" fill="#454C76"/>
<path d="M7.82203 11.4537C8.00218 11.4537 8.17991 11.45 8.35541 11.4431C8.63726 10.7516 9.02245 10.1129 9.49209 9.54652C8.94836 9.60645 8.38955 9.63823 7.82203 9.63823C5.74365 9.63823 3.77545 9.22641 2.27997 8.47869C1.98547 8.33141 1.71445 8.1733 1.4668 8.00586V8.73021C1.46686 10.0158 4.18467 11.4537 7.82203 11.4537Z" fill="#454C76"/>
<path d="M10.5458 11.167C10.1529 11.7577 9.8722 12.4289 9.73412 13.1502C9.67038 13.4828 9.63672 13.8258 9.63672 14.1766C9.63672 14.4403 9.65597 14.6997 9.69235 14.9535C9.78176 15.5771 9.97711 16.1667 10.2596 16.7038C10.556 17.2674 10.948 17.7732 11.4144 18.199C12.3834 19.0841 13.6722 19.6247 15.0849 19.6247C18.0891 19.6247 20.5332 17.1807 20.5332 14.1766C20.5332 11.1725 18.0891 8.72852 15.0849 8.72852C14.7745 8.72852 14.47 8.75503 14.1735 8.80515C12.6633 9.06055 11.3625 9.93944 10.5458 11.167Z" fill="#454C76"/>
</svg>
