<?xml version="1.0" encoding="utf-8"?>
<!-- Generator: Adobe Illustrator 27.8.1, SVG Export Plug-In . SVG Version: 6.00 Build 0)  -->
<svg version="1.1" id="レイヤー_1" xmlns="http://www.w3.org/2000/svg" xmlns:xlink="http://www.w3.org/1999/xlink" x="0px"
	 y="0px" viewBox="0 0 30 30" style="enable-background:new 0 0 30 30;" xml:space="preserve">
<style type="text/css">
	.st0{fill:#D7DBED;}
	.st1{fill-rule:evenodd;clip-rule:evenodd;fill:#090E29;}
</style>
<g>
	<path class="st0" d="M22,2.5H11.4c-1.1,0-2.1,0.4-2.8,1.2C7.8,4.4,7.4,5.4,7.4,6.5V9c0,0.3,0.1,0.6,0.3,0.8
		c0.2,0.2,0.5,0.3,0.8,0.3c0.3,0,0.6-0.1,0.8-0.3C9.6,9.6,9.7,9.3,9.7,9V6.5c0-0.4,0.2-0.9,0.5-1.2c0.3-0.3,0.7-0.5,1.2-0.5H22
		c0.4,0,0.9,0.2,1.2,0.5c0.3,0.3,0.5,0.7,0.5,1.2v17c0,0.4-0.2,0.9-0.5,1.2c-0.3,0.3-0.7,0.5-1.2,0.5H11.4c-0.4,0-0.9-0.2-1.2-0.5
		c-0.3-0.3-0.5-0.7-0.5-1.2v-2.9c0-0.3-0.1-0.6-0.3-0.8c-0.2-0.2-0.5-0.3-0.8-0.3c-0.3,0-0.6,0.1-0.8,0.3c-0.2,0.2-0.3,0.5-0.3,0.8
		v2.9c0,1.1,0.4,2.1,1.2,2.8c0.7,0.7,1.8,1.2,2.8,1.2H22c1.1,0,2.1-0.4,2.8-1.2c0.7-0.7,1.2-1.8,1.2-2.8v-17c0-1.1-0.4-2.1-1.2-2.8
		C24.1,2.9,23.1,2.5,22,2.5z"/>
	<path class="st1" d="M9.7,23.5v-2.9c0-0.3-0.1-0.6-0.3-0.8c-0.2-0.2-0.5-0.3-0.8-0.3c-0.3,0-0.6,0.1-0.8,0.3
		c-0.2,0.2-0.3,0.5-0.3,0.8v2.9c0,1.1,0.4,2.1,1.2,2.8c0.7,0.7,1.8,1.2,2.8,1.2H22c1.1,0,2.1-0.4,2.8-1.2c0.7-0.7,1.2-1.8,1.2-2.8
		v-17c0-1.1-0.4-2.1-1.2-2.8c-0.7-0.7-1.8-1.2-2.8-1.2H11.4c-1.1,0-2.1,0.4-2.8,1.2C7.8,4.4,7.4,5.4,7.4,6.5V9
		c0,0.3,0.1,0.6,0.3,0.8c0.2,0.2,0.5,0.3,0.8,0.3c0.3,0,0.6-0.1,0.8-0.3C9.6,9.6,9.7,9.3,9.7,9V6.5c0-0.4,0.2-0.9,0.5-1.2
		c0.3-0.3,0.7-0.5,1.2-0.5H22c0.4,0,0.9,0.2,1.2,0.5c0.3,0.3,0.5,0.7,0.5,1.2v17c0,0.4-0.2,0.9-0.5,1.2c-0.3,0.3-0.7,0.5-1.2,0.5
		H11.4c-0.4,0-0.9-0.2-1.2-0.5C9.9,24.4,9.7,23.9,9.7,23.5z M11.4,2.9c-0.9,0-1.9,0.4-2.5,1.1c-0.7,0.7-1,1.6-1.1,2.5V9
		c0,0.2,0.1,0.4,0.2,0.5c0.1,0.1,0.3,0.2,0.5,0.2s0.4-0.1,0.5-0.2C9.2,9.4,9.3,9.2,9.3,9V6.5C9.3,6,9.5,5.4,9.9,5
		c0.4-0.4,0.9-0.6,1.5-0.6H22c0.5,0,1.1,0.2,1.5,0.6c0.4,0.4,0.6,0.9,0.6,1.5v17c0,0.5-0.2,1.1-0.6,1.5c-0.4,0.4-0.9,0.6-1.5,0.6
		H11.4c-0.5,0-1.1-0.2-1.5-0.6c-0.4-0.4-0.6-0.9-0.6-1.5v-2.9c0-0.2-0.1-0.4-0.2-0.5c-0.1-0.1-0.3-0.2-0.5-0.2S8.1,20,8,20.1
		c-0.1,0.1-0.2,0.3-0.2,0.5v2.9c0,0.9,0.4,1.9,1.1,2.5c0.7,0.7,1.6,1,2.5,1.1H22c0.9,0,1.9-0.4,2.5-1.1c0.7-0.7,1-1.6,1-2.5v-17
		c0-0.9-0.4-1.9-1-2.5c-0.7-0.7-1.6-1-2.5-1.1H11.4z"/>
	<path class="st0" d="M20.3,14.1L16.1,10c-0.2-0.2-0.5-0.3-0.8-0.3c-0.3,0-0.6,0.1-0.8,0.3c-0.5,0.5-0.5,1.2,0,1.7l2.2,2.2H5.1
		c-0.3,0-0.6,0.1-0.8,0.3C4.1,14.4,4,14.7,4,15c0,0.3,0.1,0.6,0.3,0.8c0.2,0.2,0.5,0.3,0.8,0.3h11.5l-2.2,2.2
		c-0.2,0.2-0.3,0.5-0.3,0.8c0,0.3,0.1,0.6,0.3,0.8c0.2,0.2,0.5,0.3,0.8,0.3c0.3,0,0.6-0.1,0.8-0.3l4.2-4.2c0.1-0.1,0.2-0.2,0.3-0.4
		c0.1-0.1,0.1-0.3,0.1-0.5c0-0.2,0-0.3-0.1-0.5C20.5,14.4,20.4,14.3,20.3,14.1z"/>
	<path class="st1" d="M20,14.4l-4.2-4.2c-0.1-0.1-0.3-0.2-0.5-0.2c-0.2,0-0.4,0.1-0.5,0.2c-0.3,0.3-0.3,0.8,0,1.1l2.9,2.9H5.1
		c-0.2,0-0.4,0.1-0.5,0.2c-0.1,0.1-0.2,0.3-0.2,0.5c0,0.2,0.1,0.4,0.2,0.5c0.1,0.1,0.3,0.2,0.5,0.2h12.5l-2.9,2.9
		c-0.1,0.1-0.2,0.3-0.2,0.5c0,0.2,0.1,0.4,0.2,0.5c0.1,0.1,0.3,0.2,0.5,0.2c0.2,0,0.4-0.1,0.5-0.2l4.2-4.2c0.1-0.1,0.1-0.2,0.2-0.3
		c0-0.1,0.1-0.2,0.1-0.3c0-0.1,0-0.2-0.1-0.3C20.1,14.6,20.1,14.5,20,14.4z M14.5,10c0.2-0.2,0.5-0.3,0.8-0.3c0.3,0,0.6,0.1,0.8,0.3
		l4.2,4.2c0.1,0.1,0.2,0.2,0.3,0.4c0.1,0.1,0.1,0.3,0.1,0.5c0,0.2,0,0.3-0.1,0.5c-0.1,0.1-0.1,0.3-0.3,0.4L16.1,20
		c-0.2,0.2-0.5,0.3-0.8,0.3c-0.3,0-0.6-0.1-0.8-0.3c-0.2-0.2-0.3-0.5-0.3-0.8c0-0.3,0.1-0.6,0.3-0.8l2.2-2.2H5.1
		c-0.3,0-0.6-0.1-0.8-0.3C4.1,15.6,4,15.3,4,15c0-0.3,0.1-0.6,0.3-0.8c0.2-0.2,0.5-0.3,0.8-0.3h11.5l-2.2-2.2
		C14,11.2,14,10.4,14.5,10z"/>
</g>
</svg>
