<svg width="91" height="38" viewBox="0 0 91 38" fill="none" xmlns="http://www.w3.org/2000/svg">
<path d="M14.8624 0C6.65402 0 0 6.65402 0 14.8624V22.9501C0 31.1585 6.65402 37.8125 14.8624 37.8125H88.9543C89.7146 37.8125 90.33 37.1964 90.33 36.4368V1.37566C90.33 0.615407 89.7139 0 88.9543 0H14.8624ZM32.9356 24.8485C32.9356 26.3757 32.3025 27.1388 31.0364 27.1388C30.7203 27.1388 30.435 27.0933 30.1821 27.0021C29.9284 26.9109 29.6916 26.7668 29.4696 26.569C29.2483 26.3712 29.0424 26.1396 28.8527 25.875C28.663 25.6103 28.4726 25.339 28.2829 25.0618L21.6723 14.9271V25.1213C21.6723 25.786 21.5179 26.2882 21.2098 26.6286C20.901 26.969 20.5054 27.1388 20.0231 27.1388C19.5246 27.1388 19.1253 26.9668 18.8246 26.6227C18.5239 26.2786 18.3739 25.7779 18.3739 25.1213V11.6993C18.3739 11.1295 18.4372 10.6825 18.5636 10.3582C18.7136 10.0024 18.9629 9.7112 19.3114 9.48621C19.6591 9.26049 20.0356 9.148 20.4385 9.148C20.7547 9.148 21.026 9.19946 21.2517 9.3024C21.4774 9.40533 21.6745 9.54356 21.845 9.71782C22.0149 9.89207 22.1891 10.1171 22.3671 10.3942C22.545 10.6714 22.7288 10.9597 22.9192 11.2604L29.6961 21.5142V11.1655C29.6961 10.4935 29.8402 9.98912 30.1291 9.65238C30.4181 9.31637 30.8078 9.148 31.2982 9.148C31.8048 9.148 32.204 9.31637 32.4966 9.65238C32.7893 9.98912 32.9356 10.4935 32.9356 11.1655V24.8485ZM49.7816 26.4573C49.5008 26.7146 49.0832 26.8433 48.5295 26.8433H38.9521C38.1845 26.8433 37.6331 26.6734 37.2963 26.333C36.9596 25.9926 36.792 25.4426 36.792 24.6831V11.6045C36.792 11.0986 36.867 10.6847 37.0177 10.3641C37.1677 10.0435 37.4037 9.81045 37.7235 9.66414C38.0441 9.51782 38.4536 9.4443 38.9521 9.4443H48.2567C48.8185 9.4443 49.2361 9.56929 49.5089 9.81781C49.7816 10.0671 49.9184 10.3935 49.9184 10.7972C49.9184 11.2089 49.7816 11.539 49.5089 11.7883C49.2361 12.0375 48.8185 12.1618 48.2567 12.1618H40.3167V16.4343H47.6274C48.1656 16.4343 48.567 16.5549 48.8317 16.7961C49.0964 17.0372 49.2295 17.3556 49.2295 17.7512C49.2295 18.1467 49.0986 18.4695 48.8376 18.718C48.5766 18.9673 48.1729 19.0915 47.6274 19.0915H40.3167V24.0405H48.5295C49.0832 24.0405 49.5008 24.1692 49.7816 24.4265C50.0625 24.6838 50.2029 25.0257 50.2029 25.4529C50.2029 25.8654 50.0625 26.1999 49.7816 26.4573ZM73.2023 12.3044L70.3069 24.0177C70.1091 24.8088 69.9452 25.3882 69.8143 25.7566C69.6834 26.1249 69.4621 26.447 69.1496 26.7242C68.8371 27.0014 68.396 27.1396 67.8262 27.1396C67.288 27.1396 66.8571 27.005 66.5329 26.7359C66.2086 26.4668 65.9829 26.1646 65.8564 25.8279C65.73 25.4919 65.552 24.9162 65.3226 24.1008L62.5103 13.6691L59.6619 24.1008C59.4406 24.8919 59.2642 25.4595 59.134 25.8036C59.0032 26.1477 58.776 26.4565 58.4517 26.7293C58.1275 27.0021 57.6959 27.1388 57.1584 27.1388C56.7231 27.1388 56.3651 27.058 56.0842 26.8955C55.8033 26.733 55.5754 26.5036 55.4019 26.2073C55.2276 25.9102 55.0857 25.5588 54.9747 25.1507C54.8637 24.7434 54.7652 24.3655 54.6777 24.017L51.7823 12.3037C51.608 11.6236 51.5212 11.1052 51.5212 10.7494C51.5212 10.2987 51.6793 9.91854 51.9962 9.60973C52.3124 9.30093 52.7043 9.14652 53.1712 9.14652C53.8123 9.14652 54.2431 9.3524 54.4645 9.7634C54.6858 10.1751 54.8799 10.7722 55.046 11.5552L57.3246 21.7142L59.8759 12.2081C60.0656 11.4802 60.2362 10.9266 60.3862 10.5464C60.5362 10.1663 60.7817 9.8384 61.1222 9.56121C61.4626 9.28402 61.925 9.14579 62.5103 9.14579C63.1037 9.14579 63.5647 9.2899 63.8926 9.57885C64.2205 9.86781 64.4484 10.1825 64.5749 10.5222C64.7014 10.8626 64.8719 11.4243 65.0852 12.2074L67.6607 21.7134L69.9393 11.5545C70.0496 11.0244 70.1547 10.6089 70.254 10.3082C70.3525 10.0075 70.5231 9.7384 70.7642 9.50092C71.0054 9.26343 71.3554 9.14505 71.8149 9.14505C72.2737 9.14505 72.6634 9.29725 72.984 9.60164C73.3045 9.90604 73.4648 10.2884 73.4648 10.7472C73.4633 11.0744 73.3766 11.5927 73.2023 12.3044Z" fill="url(#paint0_linear_395_15353)"/>
<defs>
<linearGradient id="paint0_linear_395_15353" x1="55.9324" y1="19.7678" x2="89.9104" y2="24.1229" gradientUnits="userSpaceOnUse">
<stop stop-color="#80E3BF"/>
<stop offset="1" stop-color="#59CDE6"/>
</linearGradient>
</defs>
</svg>
