<?xml version="1.0" encoding="UTF-8"?><svg id="_レイヤー_1" xmlns="http://www.w3.org/2000/svg" width="25" height="25" xmlns:xlink="http://www.w3.org/1999/xlink" viewBox="0 0 25 25"><defs><style>.cls-1{stroke-width:0px;}.cls-1,.cls-2,.cls-3{fill:none;}.cls-2{stroke-linecap:round;}.cls-2,.cls-3{stroke:#030824;stroke-linejoin:round;stroke-width:1.5125px;}.cls-4{clip-path:url(#clippath);}</style><clipPath id="clippath"><rect class="cls-1" y=".5" width="24.2" height="24.2"/></clipPath></defs><g class="cls-4"><path class="cls-3" d="m13.4295,9.39741c-.2159-4.72893-1.568-8.37202-3.2036-8.37202-1.78592,0-3.23371,4.34333-3.23371,9.70111s1.44779,9.7011,3.23371,9.7011"/><path class="cls-3" d="m1.19141,13.96h10.21769"/><path class="cls-3" d="m1.19141,7.49219h18.08279"/><path class="cls-3" d="m19.8581,9.51151c-.5978-4.78432-4.6795-8.48612-9.6258-8.48612C4.87458,1.02539.53125,5.36868.53125,10.7265s4.34333,9.7011,9.70105,9.7011c.4534,0,.8994-.0311,1.3362-.0913"/><path class="cls-2" d="m15.9895,13.5859l-1.4845,1.4846-.7862-.7862"/><path class="cls-2" d="m18.0703,13.1914h3.5552"/><path class="cls-2" d="m19.9892,15.2705h-1.9189"/><path class="cls-2" d="m15.9895,18.6924l-1.4845,1.4845-.7862-.7862"/><path class="cls-2" d="m18.0703,18.2969h3.5552"/><path class="cls-2" d="m19.9892,20.377h-1.9189"/><path class="cls-2" d="m23.6861,9.57227h-12.065v14.60323h12.065v-14.60323Z"/></g></svg>