<svg width="25" height="24" viewBox="0 0 25 24" fill="none" xmlns="http://www.w3.org/2000/svg">
<g clip-path="url(#clip0_230_4845)">
<path d="M14.1937 8.82334C13.9795 4.13349 12.6387 0.520508 11.0166 0.520508C9.2454 0.520508 7.80957 4.82795 7.80957 10.1414C7.80957 15.4549 9.2454 19.7623 11.0166 19.7623" stroke="white" stroke-width="1.5" stroke-miterlimit="10" stroke-linejoin="round"/>
<path d="M2.0498 13.3484H12.1831" stroke="white" stroke-width="1.5" stroke-miterlimit="10" stroke-linejoin="round"/>
<path d="M2.0498 6.93439H19.9832" stroke="white" stroke-width="1.5" stroke-miterlimit="10" stroke-linejoin="round"/>
<path d="M20.5626 8.93649C19.9698 4.19171 15.9218 0.520508 11.0164 0.520508C5.70295 0.520508 1.39551 4.8279 1.39551 10.1414C1.39551 15.4549 5.70295 19.7623 11.0164 19.7623C11.466 19.7623 11.9084 19.7315 12.3415 19.6718" stroke="white" stroke-width="1.5" stroke-miterlimit="10" stroke-linejoin="round"/>
<path d="M16.7134 12.9788L15.2411 14.4511L14.4614 13.6714" stroke="white" stroke-width="1.5" stroke-miterlimit="10" stroke-linecap="round" stroke-linejoin="round"/>
<path d="M18.7759 12.5869H22.3017" stroke="white" stroke-width="1.5" stroke-miterlimit="10" stroke-linecap="round" stroke-linejoin="round"/>
<path d="M20.6789 14.6494H18.7759" stroke="white" stroke-width="1.5" stroke-miterlimit="10" stroke-linecap="round" stroke-linejoin="round"/>
<path d="M16.7134 18.0422L15.2411 19.5145L14.4614 18.7348" stroke="white" stroke-width="1.5" stroke-miterlimit="10" stroke-linecap="round" stroke-linejoin="round"/>
<path d="M18.7759 17.6502H22.3017" stroke="white" stroke-width="1.5" stroke-miterlimit="10" stroke-linecap="round" stroke-linejoin="round"/>
<path d="M20.6789 19.7127H18.7759" stroke="white" stroke-width="1.5" stroke-miterlimit="10" stroke-linecap="round" stroke-linejoin="round"/>
<path d="M24.3642 8.99689H12.3989V23.4795H24.3642V8.99689Z" stroke="white" stroke-width="1.5" stroke-miterlimit="10" stroke-linecap="round" stroke-linejoin="round"/>
</g>
<defs>
<clipPath id="clip0_230_4845">
<rect width="24" height="24" fill="white" transform="translate(0.879883)"/>
</clipPath>
</defs>
</svg>
