<svg width="22" height="22" viewBox="0 0 22 22" fill="none" xmlns="http://www.w3.org/2000/svg">
<path d="M6.43343 6.72781C6.77268 6.72781 7.04844 6.44874 7.04844 6.1062V2.50879H6.44666C6.20197 2.50879 5.97052 2.60798 5.79858 2.7733L3.10707 5.46475C2.93513 5.63668 2.83594 5.87474 2.83594 6.11942V6.72781H6.43343Z" fill="#454C76"/>
<path d="M16.4125 2.50879H8.23879V6.1062C8.23879 7.10606 7.42869 7.91879 6.43409 7.91879H2.83594V17.6721C2.83594 18.6773 3.64934 19.4907 4.65452 19.4907H11.6743C11.5797 19.2149 11.5453 18.92 11.5949 18.6244L11.8932 16.8706C11.954 16.5076 12.1239 16.1776 12.3838 15.9184L15.8471 12.4552L15.8444 12.4526L16.72 11.5823L17.5308 10.7716L17.5334 10.7742L17.796 10.5137C17.9302 10.3781 18.0763 10.2597 18.2324 10.1566V4.32733C18.2311 3.32217 17.4177 2.50879 16.4125 2.50879ZM12.6629 13.4657H8.40874C8.08008 13.4657 7.81357 13.1992 7.81357 12.8705C7.81357 12.5419 8.08008 12.2754 8.40874 12.2754H12.6629C12.9916 12.2754 13.2581 12.5419 13.2581 12.8705C13.2581 13.1992 12.9916 13.4657 12.6629 13.4657ZM14.2481 11.0394H6.8236C6.49493 11.0394 6.22843 10.7729 6.22843 10.4442C6.22843 10.1156 6.49493 9.84909 6.8236 9.84909H14.2487C14.5774 9.84909 14.8439 10.1156 14.8439 10.4442C14.8439 10.7729 14.5767 11.0394 14.2481 11.0394Z" fill="#454C76"/>
<path d="M17.1109 12.875L13.2264 16.7594C13.1404 16.8454 13.0875 16.9512 13.0676 17.0702L12.7701 18.8226C12.7039 19.2128 13.0412 19.55 13.4314 19.4839L15.1838 19.1863C15.2962 19.1665 15.4087 19.1136 15.488 19.0276L19.3785 15.1432L17.1109 12.875Z" fill="#454C76"/>
<path d="M20.8953 11.3569C20.2671 10.7287 19.2553 10.7287 18.6336 11.3569L17.9512 12.0354L20.2175 14.301L20.8953 13.6185C21.5235 12.9969 21.5235 11.9851 20.8953 11.3569Z" fill="#454C76"/>
</svg>
