<svg width="25" height="24" viewBox="0 0 25 24" fill="none" xmlns="http://www.w3.org/2000/svg">
<path d="M19.8394 20.6006C20.005 20.7673 20.2229 20.85 20.4402 20.85C20.6577 20.85 20.8764 20.7662 21.0419 20.6007C21.3739 20.2687 21.3739 19.7304 21.0419 19.3983L17.0419 15.3983C16.7098 15.0663 16.1715 15.0663 15.8395 15.3983C15.5074 15.7304 15.5074 16.2687 15.8395 16.6007L19.8392 20.6005C19.8393 20.6005 19.8393 20.6006 19.8394 20.6006Z" fill="white" stroke="white" stroke-width="0.2"/>
<path d="M3.58994 11C3.58994 15.3282 7.11171 18.85 11.4399 18.85C15.7682 18.85 19.2899 15.3282 19.2899 11C19.2899 6.67177 15.7682 3.15 11.4399 3.15C7.11171 3.15 3.58994 6.67177 3.58994 11ZM5.28994 11C5.28994 7.60923 8.04917 4.85 11.4399 4.85C14.8307 4.85 17.5899 7.60923 17.5899 11C17.5899 14.3908 14.8307 17.15 11.4399 17.15C8.04917 17.15 5.28994 14.3908 5.28994 11Z" fill="white" stroke="white" stroke-width="0.2"/>
</svg>
