<svg width="22" height="22" viewBox="0 0 22 22" fill="none" xmlns="http://www.w3.org/2000/svg">
<path d="M15.4872 0H7.52225C4.06253 0 2 2.2785 2 6.1005V14.889C2 18.7215 4.06253 21 7.52225 21H15.4777C18.9374 21 21 18.7215 21 14.8995V6.1005C21.0095 2.2785 18.9469 0 15.4872 0ZM16.5042 8.358L14.3086 11.487C14.033 11.8755 13.6433 12.1275 13.1966 12.18C12.7499 12.243 12.3126 12.1065 11.961 11.802L10.2216 10.29C10.1551 10.227 10.079 10.227 10.041 10.2375C10.003 10.2375 9.93645 10.2585 9.87943 10.3425L7.6173 13.587C7.47473 13.7865 7.26562 13.8915 7.05652 13.8915C6.90444 13.8915 6.75237 13.839 6.6193 13.7235C6.30565 13.461 6.24862 12.9675 6.48624 12.621L8.74836 9.3765C9.024 8.988 9.41369 8.736 9.86042 8.673C10.2976 8.61 10.7444 8.7465 11.096 9.051L12.8354 10.563C12.9019 10.626 12.9685 10.626 13.016 10.6155C13.054 10.6155 13.1205 10.5945 13.1776 10.5105L15.3732 7.3815C15.6108 7.035 16.067 6.972 16.3712 7.245C16.6848 7.5285 16.7418 8.022 16.5042 8.358Z" fill="#454C76"/>
</svg>
