<?xml version="1.0" encoding="UTF-8"?><svg id="_レイヤー_1" xmlns="http://www.w3.org/2000/svg" width="30" height="30" viewBox="0 0 30 30"><defs><style>.cls-1{fill:#030824;fill-rule:evenodd;stroke-width:0px;}</style></defs><path class="cls-1" d="m15,10.3125c-2.071,0-3.75,1.679-3.75,3.75s1.679,3.75,3.75,3.75,3.75-1.679,3.75-3.75-1.679-3.75-3.75-3.75Zm-5.625,3.75c0-3.1066,2.5184-5.625,5.625-5.625s5.625,2.5184,5.625,5.625-2.5184,5.625-5.625,5.625-5.625-2.5184-5.625-5.625Z"/><path class="cls-1" d="m14.9983,19.6875c-1.3851,0-2.7431.3835-3.9235,1.108-1.18037.7245-2.13707,1.7618-2.76406,2.9968-.23438.4617-.79865.6459-1.26033.4115-.46168-.2344-.64592-.7986-.41154-1.2604.78374-1.5436,1.97963-2.8402,3.45513-3.7458,1.4755-.9058,3.173-1.3851,4.9043-1.3851s3.4287.4793,4.9042,1.3851c1.4755.9056,2.6713,2.2022,3.4551,3.7458.2344.4618.0501,1.026-.4115,1.2604-.4617.2344-1.026.0502-1.2604-.4115-.627-1.235-1.5837-2.2723-2.7641-2.9968-1.1804-.7245-2.5384-1.108-3.9233-1.108Z"/><path class="cls-1" d="m19.6875,6.5625c0-.51776.4197-.9375.9375-.9375h5.625c.5178,0,.9375.41974.9375.9375s-.4197.9375-.9375.9375h-5.625c-.5178,0-.9375-.41974-.9375-.9375Z"/><path class="cls-1" d="m23.4375,2.8125c.5178,0,.9375.41974.9375.9375v5.625c0,.51778-.4197.9375-.9375.9375s-.9375-.41972-.9375-.9375V3.75c0-.51776.4197-.9375.9375-.9375Z"/><path class="cls-1" d="m16.6196,4.81607c-.5348-.08664-1.0759-.12964-1.6177-.12857h-.0019c-2.0396,0-4.0334.60482-5.72932,1.73797-1.69588,1.13315-3.01766,2.74374-3.79818,4.62813-.78053,1.8844-.98475,3.9578-.58684,5.9583.39791,2.0004,1.38007,3.8379,2.8223,5.2802,1.44224,1.4422,3.27974,2.4243,5.28014,2.8222,2.0005.398,4.0739.1937,5.9583-.5868s3.495-2.1023,4.6282-3.7982c1.1331-1.6959,1.7379-3.6897,1.7379-5.7293v-.0019c.001-.5418-.0419-1.0829-.1285-1.6177-.0828-.5111.2643-.9926.7755-1.0753.5111-.0828.9925.2643,1.0753.7755.1028.6349.1539,1.2771.1527,1.9203-.0002,2.4102-.7149,4.7662-2.054,6.7701-1.3391,2.0043-3.2426,3.5663-5.4695,4.4888-2.227.9225-4.6775,1.1638-7.0417.6935-2.3641-.4702-4.53571-1.631-6.24016-3.3354-1.70445-1.7045-2.86519-3.8761-3.33545-6.2402-.47026-2.3642-.22891-4.8146.69353-7.0417.92244-2.22693,2.48454-4.13036,4.48877-5.46954,2.00401-1.339,4.35991-2.05378,6.77011-2.05396m12.1884,12.1884v.001l-.9375-.0019.9375.0009Z"/></svg>