<?xml version="1.0" encoding="UTF-8"?><svg id="_レイヤー_1" xmlns="http://www.w3.org/2000/svg" width="18" height="18" xmlns:xlink="http://www.w3.org/1999/xlink" viewBox="0 0 18 18"><defs><style>.cls-1{fill:none;}.cls-1,.cls-2{stroke-width:0px;}.cls-3{clip-path:url(#clippath);}.cls-2{fill:#030824;}</style><clipPath id="clippath"><rect class="cls-1" width="18" height="18"/></clipPath></defs><g class="cls-3"><path class="cls-2" d="m17.145,9.59262c-.2238,0-.4384.08889-.5966.24713-.1583.15823-.2471.37285-.2471.59665v3.3964c-.0008.656-.2617,1.2849-.7256,1.7488-.4638.4638-1.0928.7248-1.7487.7255H4.1618c-.656-.0007-1.28491-.2617-1.74877-.7255-.46386-.4639-.72479-1.0928-.72553-1.7488V4.16766c.00074-.656.26167-1.28491.72553-1.74877.46386-.46386,1.09277-.72479,1.74877-.72553h3.39644c.22378,0,.43839-.0889.59662-.24713.15824-.15823.24713-.37284.24713-.59662s-.08889-.43839-.24713-.59662c-.15823-.15823-.37284-.24713-.59662-.24713h-3.39644c-1.10338.0013-2.16119.44019-2.9414,1.2204C.44019,2.00647.0013,3.06428,0,4.16766v9.66514c.0013,1.1034.44019,2.1612,1.2204,2.9414.78021.7802,1.83802,1.2191,2.9414,1.2204h9.6652c1.1033-.0013,2.1611-.4402,2.9413-1.2204.7803-.7802,1.2191-1.838,1.2205-2.9414v-3.3964c0-.2238-.0889-.43842-.2472-.59665-.1582-.15824-.3728-.24713-.5966-.24713Z"/><path class="cls-2" d="m17.1308,0h-5.2453c-.2209-.00004-.4331.08658-.5908.24126-.1578.15468-.2486.36507-.2529.58597-.0088.47355.3895.86027.8627.86027h3.2108l-6.71975,6.72188c-.15823.15823-.24711.37283-.24711.5966s.08888.43837.24711.5966c.15823.15822.37283.24711.5966.24711s.43837-.08889.5966-.24711l6.72185-6.71977v3.22242c0,.22378.0889.43839.2472.59663.1582.15823.3728.24712.5966.24712s.4384-.08889.5966-.24712c.1582-.15824.2471-.37285.2471-.59663V.86695c0-.11388-.0224-.22664-.066-.33185-.0436-.10521-.1075-.20079-.188-.2813-.0806-.08051-.1762-.14436-.2814-.18791C17.3575.02234,17.2447-.00005,17.1308,0Z"/></g></svg>