<svg width="22" height="22" viewBox="0 0 22 22" fill="none" xmlns="http://www.w3.org/2000/svg">
<path d="M10.6843 0.733398C6.68086 0.733398 3.3418 3.95815 3.3418 8.07553C3.3418 9.64194 3.81252 11.0387 4.71592 12.3476L10.1224 20.7835C10.3847 21.1936 10.9845 21.1928 11.2462 20.7835L16.6762 12.3189C17.5601 11.0693 18.0268 9.60211 18.0268 8.07553C18.0268 4.02708 14.733 0.733398 10.6843 0.733398ZM10.6843 11.4129C8.8441 11.4129 7.34681 9.91564 7.34681 8.07553C7.34681 6.23541 8.8441 4.7382 10.6843 4.7382C12.5245 4.7382 14.0218 6.23541 14.0218 8.07553C14.0218 9.91564 12.5245 11.4129 10.6843 11.4129Z" fill="#454C76"/>
</svg>
