<svg width="22" height="22" viewBox="0 0 22 22" fill="none" xmlns="http://www.w3.org/2000/svg">
<path d="M18.3325 5.16187H14.6659V4.42854C14.6659 3.61969 14.0081 2.96191 13.1992 2.96191H8.79921C7.99033 2.96191 7.33253 3.61966 7.33253 4.42854V5.16183H3.66589C2.85698 5.16187 2.19922 5.81961 2.19922 6.62846V8.82838C2.19922 9.63726 2.85698 10.295 3.66589 10.295H9.53256V9.92834C9.53256 9.72567 9.69656 9.56167 9.89924 9.56167H12.0992C12.3019 9.56167 12.4659 9.72567 12.4659 9.92834V10.295H18.3326C19.1414 10.295 19.7992 9.63726 19.7992 8.82838V6.62846C19.7992 5.81961 19.1414 5.16187 18.3325 5.16187ZM13.1992 5.16187H8.79921V4.42854H13.1992V5.16187Z" fill="#454C76"/>
<path d="M19.5958 11.3678C19.4708 11.3059 19.3215 11.3202 19.2112 11.404C18.9505 11.6013 18.6469 11.7055 18.3325 11.7055H12.4659V12.8054C12.4659 13.0081 12.3019 13.1721 12.0992 13.1721H9.8992C9.69653 13.1721 9.53253 13.0081 9.53253 12.8054V11.7055H3.66589C3.3515 11.7055 3.04787 11.6013 2.78717 11.404C2.67651 11.3195 2.52757 11.3052 2.40258 11.3678C2.27801 11.4298 2.19922 11.5569 2.19922 11.6962V16.8386C2.19922 17.6475 2.85698 18.3053 3.66589 18.3053H18.3325C19.1414 18.3053 19.7992 17.6475 19.7992 16.8386V11.6962C19.7992 11.5569 19.7204 11.4298 19.5958 11.3678Z" fill="#454C76"/>
</svg>
