<svg width="18" height="18" viewBox="0 0 18 18" fill="none" xmlns="http://www.w3.org/2000/svg">
<g clip-path="url(#clip0_223_10612)">
<path d="M17.145 9.59262C16.9212 9.59262 16.7066 9.68151 16.5484 9.83975C16.3901 9.99798 16.3013 10.2126 16.3013 10.4364V13.8328C16.3005 14.4888 16.0396 15.1177 15.5757 15.5816C15.1119 16.0454 14.4829 16.3064 13.827 16.3071H4.1618C3.5058 16.3064 2.87689 16.0454 2.41303 15.5816C1.94917 15.1177 1.68824 14.4888 1.6875 13.8328V4.16766C1.68824 3.51166 1.94917 2.88275 2.41303 2.41889C2.87689 1.95503 3.5058 1.6941 4.1618 1.69336H7.55824C7.78202 1.69336 7.99663 1.60446 8.15486 1.44623C8.3131 1.288 8.40199 1.07339 8.40199 0.849609C8.40199 0.625833 8.3131 0.411222 8.15486 0.252988C7.99663 0.0947542 7.78202 0.00585938 7.55824 0.00585938H4.1618C3.05842 0.00716196 2.00061 0.446054 1.2204 1.22626C0.440195 2.00647 0.00130258 3.06428 0 4.16766V13.8328C0.00130258 14.9362 0.440195 15.994 1.2204 16.7742C2.00061 17.5544 3.05842 17.9933 4.1618 17.9946H13.827C14.9303 17.9933 15.9881 17.5544 16.7683 16.7742C17.5486 15.994 17.9874 14.9362 17.9888 13.8328V10.4364C17.9888 10.2126 17.8999 9.99798 17.7416 9.83975C17.5834 9.68151 17.3688 9.59262 17.145 9.59262Z" fill="white"/>
<path d="M17.1308 7.12885e-08H11.8855C11.6646 -4.22992e-05 11.4524 0.0865808 11.2947 0.241258C11.1369 0.395936 11.0461 0.606326 11.0418 0.827227C11.033 1.30078 11.4313 1.6875 11.9045 1.6875H15.1153L8.39555 8.40938C8.23732 8.56761 8.14844 8.78221 8.14844 9.00598C8.14844 9.22974 8.23732 9.44435 8.39555 9.60258C8.55378 9.7608 8.76838 9.84969 8.99215 9.84969C9.21591 9.84969 9.43052 9.7608 9.58875 9.60258L16.3106 2.88281V6.10523C16.3106 6.32901 16.3995 6.54362 16.5578 6.70186C16.716 6.86009 16.9306 6.94898 17.1544 6.94898C17.3782 6.94898 17.5928 6.86009 17.751 6.70186C17.9092 6.54362 17.9981 6.32901 17.9981 6.10523V0.866953C17.9981 0.753074 17.9757 0.64031 17.9321 0.535103C17.8885 0.429897 17.8246 0.334309 17.7441 0.2538C17.6635 0.173292 17.5679 0.10944 17.4627 0.065892C17.3575 0.0223442 17.2447 -4.61086e-05 17.1308 7.12885e-08Z" fill="white"/>
</g>
<defs>
<clipPath id="clip0_223_10612">
<rect width="18" height="18" fill="white"/>
</clipPath>
</defs>
</svg>
