<?xml version="1.0" encoding="UTF-8"?><svg id="_レイヤー_1" xmlns="http://www.w3.org/2000/svg" width="26" height="26" viewBox="0 0 26 26"><defs><style>.cls-1{fill:#030824;stroke:#030824;stroke-width:.21px;}</style></defs><path class="cls-1" d="m20.3759,21.6316c.1739.1751.4027.2619.6309.2619.2284,0,.458-.088.6318-.2618.3486-.3486.3486-.9139,0-1.2625l-4.2-4.2c-.3487-.3487-.9139-.3487-1.2626,0-.3486.3486-.3486.9139,0,1.2625l4.1998,4.1998.0001.0001Z"/><path class="cls-1" d="m3.31687,11.5496c0,4.5446,3.69787,8.2425,8.24253,8.2425s8.2425-3.6979,8.2425-8.2425S16.104,3.30711,11.5594,3.30711,3.31687,7.00497,3.31687,11.5496Zm1.78501,0c0-3.5603,2.89719-6.45749,6.45752-6.45749s6.4575,2.89719,6.4575,6.45749-2.8972,6.4575-6.4575,6.4575-6.45752-2.8972-6.45752-6.4575Z"/></svg>