<svg width="30" height="30" viewBox="0 0 30 30" fill="none" xmlns="http://www.w3.org/2000/svg">
<g clip-path="url(#clip0_230_4867)">
<path d="M1.80726 22.1908L1.80724 22.1905L0.948569 10.6676C0.948566 10.6676 0.948564 10.6675 0.948562 10.6675C0.944216 10.6071 0.973748 10.5575 1.00701 10.5217C1.06423 10.4602 1.14898 10.4233 1.23121 10.4233H27.5976C27.6798 10.4233 27.7646 10.4602 27.8217 10.5217C27.8551 10.5577 27.8845 10.6071 27.8802 10.6669C27.8802 10.6669 27.8802 10.6669 27.8802 10.6669L27.4393 16.5895C27.4184 16.8701 27.629 17.1145 27.9096 17.1354L27.9098 17.1354C28.1904 17.1555 28.4345 16.9459 28.4555 16.6651L28.8964 10.7418L28.8964 10.7416C28.9209 10.4057 28.8033 10.081 28.5681 9.82802L28.4948 9.89611L28.5681 9.82801C28.3178 9.55885 27.9643 9.40441 27.5977 9.40441H27.2485V5.22273C27.2485 4.87597 27.1062 4.53746 26.858 4.29308C26.6104 4.04927 26.2846 3.9181 25.94 3.92268L25.9397 3.92268L13.4083 4.13531L11.3659 1.28268L11.3659 1.28267C11.2702 1.14912 11.116 1.0698 10.9516 1.0698H2.88057C2.16358 1.0698 1.58045 1.65299 1.58045 2.36992V9.40435H1.23121C0.864579 9.40435 0.511133 9.55879 0.260851 9.82795C0.0256264 10.0809 -0.0920013 10.4056 -0.067528 10.7422L-0.0675147 10.7424L0.791104 22.2653C0.791107 22.2653 0.791109 22.2654 0.791112 22.2654C0.843035 22.9805 1.39796 23.5286 2.0899 23.5286H8.8116C9.09295 23.5286 9.32106 23.3005 9.32106 23.0191C9.32098 22.7378 9.09297 22.5097 8.8116 22.5097H2.0899C1.93186 22.5097 1.82003 22.3674 1.80726 22.1908ZM23.806 9.40441H5.02274V7.50695C5.02274 7.35735 5.15103 7.22908 5.30067 7.22908H23.528C23.6777 7.22908 23.806 7.35736 23.806 7.50695V9.40441ZM12.7354 4.94573L12.7354 4.94576C12.8312 5.07942 12.9854 5.15861 13.1496 5.15861L13.1543 5.15857L13.1566 5.15856L13.1583 5.15853L25.9562 4.94139L25.9563 4.94141L25.9585 4.94132C26.0236 4.93876 26.0886 4.96542 26.143 5.01899L26.2132 4.94775L26.143 5.01899C26.1983 5.07341 26.2295 5.14804 26.2295 5.22267V9.40435H24.8249V7.50689C24.8249 6.79171 24.2432 6.21011 23.5281 6.21011H5.30072C4.58555 6.21011 4.00395 6.79178 4.00395 7.50689V9.40435H2.5993V2.36992C2.5993 2.21855 2.72913 2.08871 2.88057 2.08871H10.6898L12.7354 4.94573Z" fill="white" stroke="white" stroke-width="0.2"/>
<path d="M11.4802 20.4021L11.5712 20.4435C11.9188 19.679 12.3453 18.9848 12.8374 18.3808C13.1368 18.0162 13.5239 17.833 13.995 17.833H16.6533L17.4474 20.2789C17.5155 20.4889 17.7111 20.6311 17.9319 20.6311H21.8306C22.0513 20.6311 22.2469 20.489 22.3151 20.2792L23.1107 17.833H25.7676C26.2387 17.833 26.6258 18.0162 26.9243 18.3798C27.4174 18.9848 27.8439 19.679 28.1913 20.4431C28.8722 21.9441 29.1628 23.5276 29.0142 24.9005L29.1136 24.9112L29.0142 24.9005C28.8727 26.2084 28.3543 27.1348 27.5801 27.5407C26.6589 28.023 25.913 27.9862 25.2395 27.689C24.5562 27.3875 23.9432 26.817 23.2963 26.2135L23.2924 26.2098C22.8588 25.8053 22.4296 25.4049 21.9803 25.1063C21.5284 24.8059 21.0485 24.6033 20.5129 24.6033H19.2514C18.7154 24.6033 18.2352 24.806 17.783 25.1064C17.3334 25.4051 16.9038 25.8058 16.4699 26.2105L16.4663 26.2139C15.8193 26.8172 15.2062 27.3876 14.523 27.689C13.8494 27.986 13.1036 28.0229 12.1826 27.5407C11.4082 27.1347 10.8899 26.2083 10.7484 24.9005L10.649 24.9112L10.7484 24.9005C10.5999 23.5277 10.8906 21.9441 11.5712 20.4435L11.4802 20.4021ZM11.4802 20.4021C11.8311 19.6303 12.262 18.9287 12.76 18.3176L11.4802 20.4021ZM22.7419 23.4452C22.7419 23.2788 22.6071 23.144 22.4424 23.144C22.2765 23.144 22.1413 23.2792 22.1413 23.4452C22.1413 23.6098 22.2761 23.7446 22.4424 23.7446L22.7419 23.4452ZM22.7419 23.4452C22.7419 23.6102 22.6075 23.7446 22.4424 23.7446L22.7419 23.4452ZM17.6215 23.4452C17.6215 23.2788 17.4867 23.144 17.322 23.144C17.156 23.144 17.0208 23.2792 17.0208 23.4452C17.0208 23.6098 17.1556 23.7446 17.322 23.7446L17.6215 23.4452ZM17.6215 23.4452C17.6215 23.6102 17.4871 23.7446 17.322 23.7446L17.6215 23.4452ZM26.3136 19.5398C26.3136 19.9085 26.0137 20.2083 25.645 20.2083C25.2768 20.2083 24.978 19.9083 24.9781 19.5398H26.3136ZM26.3136 19.5398C26.3136 19.1717 26.0135 18.8728 25.645 18.8728M26.3136 19.5398L25.645 18.8728M25.645 18.8728C25.2772 18.8728 24.9781 19.1719 24.9781 19.5397L25.645 18.8728ZM28.053 28.4432L28.053 28.4432C29.1575 27.8641 29.8513 26.6359 30.0272 25.01C30.1957 23.4522 29.8718 21.6814 29.119 20.0218L29.119 20.0217C28.7357 19.1787 28.2632 18.4096 27.7132 17.7349L27.713 17.7346C27.2194 17.1331 26.5451 16.814 25.7676 16.814H13.9951C13.2177 16.814 12.5433 17.1332 12.0489 17.7357L12.0487 17.736C11.4997 18.4096 11.0271 19.1787 10.6436 20.0221L10.6436 20.0222C9.89101 21.6814 9.56705 23.4522 9.73556 25.01C9.9107 26.6294 10.5997 27.8543 11.6964 28.4362L11.6966 28.4363L11.7099 28.4433C11.7136 28.4452 11.7172 28.4471 11.7209 28.449L11.7315 28.4546H11.7316C12.3783 28.7894 12.9732 28.9301 13.5246 28.9301C15.0479 28.9301 16.2015 27.8542 17.1492 26.9702L17.1613 26.959C17.5386 26.6071 17.8989 26.2713 18.2508 26.0227C18.6036 25.7736 18.9343 25.6222 19.2515 25.6222H20.5129C20.8296 25.6222 21.16 25.7735 21.5125 26.0225C21.8642 26.271 22.2243 26.6067 22.6013 26.9585L22.6695 26.8854L22.6013 26.9585L22.6076 26.9643C23.2557 27.5689 23.9981 28.2615 24.8841 28.6413C25.7808 29.0257 26.8206 29.0885 28.053 28.4432ZM15.5864 21.3621C15.8678 21.3621 16.0959 21.134 16.0959 20.8526C16.0959 20.5712 15.8678 20.3432 15.5864 20.3432H14.7299V19.4867C14.7299 19.2054 14.5018 18.9773 14.2205 18.9773C13.9392 18.9773 13.711 19.2054 13.711 19.4867V20.3432H12.8563C12.5749 20.3432 12.3468 20.5713 12.3468 20.8526C12.3468 21.134 12.5749 21.3621 12.8563 21.3621H13.711V22.2185C13.711 22.4998 13.9392 22.7279 14.2205 22.7279C14.5018 22.7279 14.7299 22.4999 14.7299 22.2185V21.3621H15.5864ZM22.4424 24.7636C23.1694 24.7636 23.7608 24.1722 23.7608 23.4452C23.7608 22.7173 23.1696 22.1251 22.4424 22.1251C21.7145 22.1251 21.1224 22.7172 21.1224 23.4452C21.1224 24.1723 21.7146 24.7636 22.4424 24.7636ZM25.645 20.8785C25.2771 20.8785 24.9781 21.1777 24.9781 21.5455C24.9781 21.914 25.2769 22.2141 25.645 22.2141C26.0138 22.2141 26.3136 21.9142 26.3136 21.5455C26.3135 21.1774 26.0134 20.8785 25.645 20.8785ZM17.322 24.7636C18.049 24.7636 18.6403 24.1722 18.6403 23.4452C18.6403 22.7173 18.0492 22.1251 17.322 22.1251C16.594 22.1251 16.0019 22.7172 16.0019 23.4452C16.0019 24.1723 16.5942 24.7636 17.322 24.7636ZM18.3022 19.6121L17.7246 17.833H22.0394L21.4607 19.6121H18.3022ZM26.6478 19.8756C26.28 19.8756 25.9809 20.1748 25.9809 20.5426C25.9809 20.9111 26.2797 21.2111 26.6478 21.2111C27.0159 21.2111 27.3147 20.911 27.3147 20.5426C27.3148 20.1748 27.0157 19.8756 26.6478 19.8756ZM24.6421 19.8756C24.2743 19.8756 23.9752 20.1748 23.9752 20.5426C23.9752 20.9111 24.274 21.2111 24.6421 21.2111C25.0109 21.2111 25.3106 20.9113 25.3106 20.5426C25.3106 20.1745 25.0106 19.8756 24.6421 19.8756Z" fill="white" stroke="white" stroke-width="0.2"/>
</g>
<defs>
<clipPath id="clip0_230_4867">
<rect width="30" height="30" fill="white"/>
</clipPath>
</defs>
</svg>
