<svg width="30" height="30" viewBox="0 0 30 30" fill="none" xmlns="http://www.w3.org/2000/svg">
<path fill-rule="evenodd" clip-rule="evenodd" d="M15 10.3125C12.929 10.3125 11.25 11.9915 11.25 14.0625C11.25 16.1335 12.929 17.8125 15 17.8125C17.071 17.8125 18.75 16.1335 18.75 14.0625C18.75 11.9915 17.071 10.3125 15 10.3125ZM9.375 14.0625C9.375 10.9559 11.8934 8.4375 15 8.4375C18.1066 8.4375 20.625 10.9559 20.625 14.0625C20.625 17.1691 18.1066 19.6875 15 19.6875C11.8934 19.6875 9.375 17.1691 9.375 14.0625Z" fill="#D7DBED"/>
<path fill-rule="evenodd" clip-rule="evenodd" d="M14.9983 19.6875C13.6132 19.6875 12.2552 20.071 11.0748 20.7955C9.89443 21.52 8.93773 22.5573 8.31074 23.7923C8.07636 24.254 7.51209 24.4382 7.05041 24.2038C6.58873 23.9694 6.40449 23.4052 6.63887 22.9434C7.42261 21.3998 8.6185 20.1032 10.094 19.1976C11.5695 18.2918 13.267 17.8125 14.9983 17.8125C16.7296 17.8125 18.427 18.2918 19.9025 19.1976C21.378 20.1032 22.5738 21.3998 23.3576 22.9434C23.592 23.4052 23.4077 23.9694 22.9461 24.2038C22.4844 24.4382 21.9201 24.254 21.6857 23.7923C21.0587 22.5573 20.102 21.52 18.9216 20.7955C17.7412 20.071 16.3832 19.6875 14.9983 19.6875Z" fill="#D7DBED"/>
<path fill-rule="evenodd" clip-rule="evenodd" d="M19.6875 6.5625C19.6875 6.04474 20.1072 5.625 20.625 5.625H26.25C26.7678 5.625 27.1875 6.04474 27.1875 6.5625C27.1875 7.08026 26.7678 7.5 26.25 7.5H20.625C20.1072 7.5 19.6875 7.08026 19.6875 6.5625Z" fill="#D7DBED"/>
<path fill-rule="evenodd" clip-rule="evenodd" d="M23.4375 2.8125C23.9553 2.8125 24.375 3.23224 24.375 3.75V9.375C24.375 9.89278 23.9553 10.3125 23.4375 10.3125C22.9197 10.3125 22.5 9.89278 22.5 9.375V3.75C22.5 3.23224 22.9197 2.8125 23.4375 2.8125Z" fill="#D7DBED"/>
<path fill-rule="evenodd" clip-rule="evenodd" d="M16.6196 4.81607C16.0848 4.72943 15.5437 4.68643 15.0019 4.6875H15C12.9604 4.6875 10.9666 5.29232 9.27068 6.42547C7.5748 7.55862 6.25302 9.16921 5.4725 11.0536C4.69197 12.938 4.48775 15.0114 4.88566 17.0119C5.28357 19.0123 6.26573 20.8498 7.70796 22.2921C9.1502 23.7343 10.9877 24.7164 12.9881 25.1143C14.9886 25.5123 17.062 25.308 18.9464 24.5275C20.8308 23.747 22.4414 22.4252 23.5746 20.7293C24.7077 19.0334 25.3125 17.0396 25.3125 15V14.9981C25.3135 14.4563 25.2706 13.9152 25.184 13.3804C25.1012 12.8693 25.4483 12.3878 25.9595 12.3051C26.4706 12.2223 26.952 12.5694 27.0348 13.0806C27.1376 13.7155 27.1887 14.3577 27.1875 15.0009C27.1873 17.4111 26.4726 19.7671 25.1335 21.771C23.7944 23.7753 21.8909 25.3373 19.664 26.2598C17.437 27.1823 14.9865 27.4236 12.6223 26.9533C10.2582 26.4831 8.08659 25.3223 6.38214 23.6179C4.67769 21.9134 3.51695 19.7418 3.04669 17.3777C2.57643 15.0135 2.81778 12.5631 3.74022 10.336C4.66266 8.10907 6.22476 6.20564 8.22899 4.86646C10.233 3.52746 12.5889 2.81268 14.9991 2.8125M27.1875 15.0009V15.0019L26.25 15L27.1875 15.0009Z" fill="#D7DBED"/>
</svg>
