<?xml version="1.0" encoding="UTF-8"?><svg id="_レイヤー_1" xmlns="http://www.w3.org/2000/svg" width="30" height="30" viewBox="0 0 30 30"><defs><style>.cls-1{fill:#d7dbed;fill-rule:evenodd;}.cls-1,.cls-2{stroke-width:0px;}.cls-2{fill:#030824;}</style></defs><path class="cls-2" d="m22,2.5h-10.6c-1.1,0-2.1.4-2.8,1.2-.8.7-1.2,1.7-1.2,2.8v2.5c0,.3.1.6.3.8.2.2.5.3.8.3s.6-.1.8-.3c.3-.2.4-.5.4-.8v-2.5c0-.4.2-.9.5-1.2.3-.3.7-.5,1.2-.5h10.6c.4,0,.9.2,1.2.5.3.3.5.7.5,1.2v17c0,.4-.2.9-.5,1.2-.3.3-.7.5-1.2.5h-10.6c-.4,0-.9-.2-1.2-.5s-.5-.7-.5-1.2v-2.9c0-.3-.1-.6-.3-.8-.2-.2-.5-.3-.8-.3s-.6.1-.8.3c-.2.2-.3.5-.3.8v2.9c0,1.1.4,2.1,1.2,2.8.7.7,1.8,1.2,2.8,1.2h10.5c1.1,0,2.1-.4,2.8-1.2.7-.7,1.2-1.8,1.2-2.8V6.5c0-1.1-.4-2.1-1.2-2.8-.7-.8-1.7-1.2-2.8-1.2Z"/><path class="cls-1" d="m9.7,23.5v-2.9c0-.3-.1-.6-.3-.8-.2-.2-.5-.3-.8-.3s-.6.1-.8.3c-.2.2-.3.5-.3.8v2.9c0,1.1.4,2.1,1.2,2.8.7.7,1.8,1.2,2.8,1.2h10.5c1.1,0,2.1-.4,2.8-1.2.7-.7,1.2-1.8,1.2-2.8V6.5c0-1.1-.4-2.1-1.2-2.8-.7-.7-1.8-1.2-2.8-1.2h-10.6c-1.1,0-2.1.4-2.8,1.2-.8.7-1.2,1.7-1.2,2.8v2.5c0,.3.1.6.3.8.2.2.5.3.8.3s.6-.1.8-.3c.3-.2.4-.5.4-.8v-2.5c0-.4.2-.9.5-1.2.3-.3.7-.5,1.2-.5h10.6c.4,0,.9.2,1.2.5.3.3.5.7.5,1.2v17c0,.4-.2.9-.5,1.2-.3.3-.7.5-1.2.5h-10.6c-.4,0-.9-.2-1.2-.5-.3-.3-.5-.8-.5-1.2Zm1.7-20.6c-.9,0-1.9.4-2.5,1.1-.7.7-1,1.6-1.1,2.5v2.5c0,.2.1.4.2.5s.3.2.5.2.4-.1.5-.2c.2-.1.3-.3.3-.5v-2.5c0-.5.2-1.1.6-1.5s.9-.6,1.5-.6h10.6c.5,0,1.1.2,1.5.6s.6.9.6,1.5v17c0,.5-.2,1.1-.6,1.5s-.9.6-1.5.6h-10.6c-.5,0-1.1-.2-1.5-.6s-.6-.9-.6-1.5v-2.9c0-.2-.1-.4-.2-.5-.1-.1-.3-.2-.5-.2s-.5.1-.6.2c-.1.1-.2.3-.2.5v2.9c0,.9.4,1.9,1.1,2.5.7.7,1.6,1,2.5,1.1h10.6c.9,0,1.9-.4,2.5-1.1.7-.7,1-1.6,1-2.5V6.5c0-.9-.4-1.9-1-2.5-.7-.7-1.6-1-2.5-1.1h-10.6Z"/><path class="cls-2" d="m20.3,14.1l-4.2-4.1c-.2-.2-.5-.3-.8-.3s-.6.1-.8.3c-.5.5-.5,1.2,0,1.7l2.2,2.2H5.1c-.3,0-.6.1-.8.3-.2.2-.3.5-.3.8s.1.6.3.8c.2.2.5.3.8.3h11.5l-2.2,2.2c-.2.2-.3.5-.3.8s.1.6.3.8c.2.2.5.3.8.3s.6-.1.8-.3l4.2-4.2c.1-.1.2-.2.3-.4.1-.1.1-.3.1-.5s0-.3-.1-.5c0,.1-.1,0-.2-.2Z"/><path class="cls-1" d="m20,14.4l-4.2-4.2c-.1-.1-.3-.2-.5-.2s-.4.1-.5.2c-.3.3-.3.8,0,1.1l2.9,2.9H5.1c-.2,0-.4.1-.5.2-.1.1-.2.3-.2.5s.1.4.2.5.3.2.5.2h12.5l-2.9,2.9c-.1.1-.2.3-.2.5s.1.4.2.5c.1.1.3.2.5.2s.4-.1.5-.2l4.2-4.2c.1-.1.1-.2.2-.3,0-.1.1-.2.1-.3s0-.2-.1-.3c0,.2,0,.1-.1,0Zm-5.5-4.4c.2-.2.5-.3.8-.3s.6.1.8.3l4.2,4.2c.1.1.2.2.3.4.1.1.1.3.1.5s0,.3-.1.5c-.1.1-.1.3-.3.4l-4.2,4c-.2.2-.5.3-.8.3s-.6-.1-.8-.3c-.2-.2-.3-.5-.3-.8s.1-.6.3-.8l2.2-2.2H5.1c-.3,0-.6-.1-.8-.3-.2-.3-.3-.6-.3-.9s.1-.6.3-.8c.2-.2.5-.3.8-.3h11.5l-2.2-2.2c-.4-.5-.4-1.3.1-1.7Z"/></svg>