<svg width="213" height="57" viewBox="0 0 213 57" fill="none" xmlns="http://www.w3.org/2000/svg">
<g clip-path="url(#clip0_225_1106)">
<path d="M89.655 24.769C89.2218 24.0692 88.6464 23.5605 87.9243 23.2405C87.2023 22.9206 86.4514 22.7629 85.6694 22.7629C85.0917 22.7629 84.5274 22.8362 83.9698 22.9784C83.4144 23.1228 82.9145 23.3383 82.4724 23.6271C82.0303 23.9159 81.6749 24.2958 81.406 24.769C81.1372 25.2422 81.0039 25.7999 81.0039 26.4375C81.0039 26.9329 81.0817 27.3706 81.235 27.7505C81.3883 28.1326 81.6415 28.477 81.9925 28.7858C82.3436 29.0946 82.8168 29.3834 83.4144 29.65C84.012 29.9188 84.7429 30.1854 85.6072 30.452C86.4514 30.7208 87.2712 31.0074 88.0643 31.3162C88.8574 31.625 89.5572 32.016 90.166 32.4892C90.7725 32.9624 91.2568 33.5556 91.6189 34.2665C91.9788 34.9775 92.1588 35.8684 92.1588 36.9392C92.1588 38.01 91.9433 38.9786 91.5101 39.7807C91.0768 40.5849 90.5059 41.2492 89.7949 41.7735C89.084 42.2978 88.2665 42.691 87.3378 42.9465C86.4114 43.2042 85.4539 43.3331 84.4652 43.3331C83.8276 43.3331 83.1878 43.2753 82.5502 43.1642C81.9126 43.0509 81.2994 42.8754 80.7129 42.6399C80.1264 42.4022 79.5754 42.0934 79.06 41.7135C78.5446 41.3336 78.1025 40.8648 77.7314 40.3072L79.9553 38.4854C80.4285 39.2897 81.0883 39.8962 81.9326 40.3072C82.7768 40.7204 83.6721 40.9248 84.6207 40.9248C85.1762 40.9248 85.7382 40.8426 86.3048 40.6782C86.8713 40.5138 87.38 40.2716 87.8332 39.9517C88.2865 39.6318 88.6575 39.2364 88.9463 38.7631C89.2351 38.2899 89.3795 37.7434 89.3795 37.1258C89.3795 36.446 89.2662 35.895 89.0396 35.4729C88.813 35.0508 88.462 34.6842 87.9888 34.3754C87.5155 34.0666 86.9179 33.7889 86.1981 33.5423C85.4761 33.2957 84.6319 33.0069 83.6654 32.6781C82.8834 32.4315 82.1614 32.1471 81.5038 31.8294C80.844 31.5095 80.273 31.1185 79.7887 30.6564C79.3044 30.1921 78.9245 29.6366 78.6468 28.9879C78.3691 28.3392 78.2291 27.5616 78.2291 26.6552C78.2291 25.6044 78.4357 24.6891 78.8467 23.9048C79.2577 23.1228 79.8153 22.4674 80.5152 21.9431C81.215 21.4188 82.0081 21.0211 82.8945 20.7545C83.781 20.4879 84.7074 20.3524 85.676 20.3524C86.9113 20.3524 88.0399 20.5435 89.0596 20.9234C90.0793 21.3055 90.9902 21.9698 91.7944 22.9162L89.6616 24.769H89.655Z" fill="white"/>
<path d="M95.249 28.3214H97.6595V30.4231H97.7217C98.3793 29.6411 99.148 29.0324 100.023 28.6014C100.899 28.1681 101.861 27.9526 102.911 27.9526C104.044 27.9526 105.08 28.1437 106.017 28.5236C106.955 28.9057 107.752 29.4345 108.412 30.1143C109.072 30.7941 109.585 31.5961 109.956 32.5248C110.327 33.4512 110.512 34.4598 110.512 35.5529C110.512 36.6459 110.327 37.6545 109.956 38.581C109.585 39.5074 109.077 40.3116 108.428 40.9914C107.779 41.6713 107.013 42.2022 106.126 42.5821C105.24 42.962 104.293 43.1531 103.285 43.1531C101.987 43.1531 100.85 42.8687 99.8723 42.3044C98.8947 41.7379 98.1771 41.0425 97.7262 40.2183H97.6639V49.8269H95.2535V28.3259L95.249 28.3214ZM97.6595 35.5506C97.6595 36.3127 97.7772 37.0169 98.015 37.6656C98.2527 38.3144 98.597 38.8809 99.0502 39.3652C99.5035 39.8495 100.043 40.2294 100.672 40.5093C101.301 40.7871 102.005 40.927 102.787 40.927C103.569 40.927 104.276 40.7871 104.902 40.5093C105.531 40.2316 106.071 39.8495 106.524 39.3652C106.977 38.8809 107.321 38.3144 107.559 37.6656C107.795 37.0169 107.915 36.3127 107.915 35.5506C107.915 34.7886 107.795 34.0821 107.559 33.4334C107.321 32.7847 106.977 32.2182 106.524 31.7339C106.071 31.2495 105.531 30.8696 104.902 30.5919C104.273 30.3142 103.569 30.1743 102.787 30.1743C102.005 30.1743 101.299 30.3142 100.672 30.5919C100.043 30.8696 99.5035 31.2518 99.0502 31.7339C98.597 32.2182 98.2527 32.7847 98.015 33.4334C97.7772 34.0821 97.6595 34.7886 97.6595 35.5506Z" fill="white"/>
<path d="M113.038 22.6674C113.038 22.1942 113.209 21.7832 113.549 21.4321C113.888 21.0811 114.306 20.9078 114.799 20.9078C115.293 20.9078 115.71 21.0833 116.05 21.4321C116.39 21.7832 116.561 22.1942 116.561 22.6674C116.561 23.1828 116.397 23.6049 116.066 23.9337C115.737 24.2625 115.313 24.4291 114.799 24.4291C114.286 24.4291 113.862 24.2647 113.533 23.9337C113.204 23.6049 113.038 23.1828 113.038 22.6674ZM113.593 28.3215H116.003V42.7799H113.593V28.3215Z" fill="white"/>
<path d="M130.209 31.9361C129.693 31.3184 129.138 30.8697 128.54 30.592C127.943 30.3143 127.283 30.1743 126.563 30.1743C125.761 30.1743 125.05 30.3143 124.433 30.592C123.815 30.8697 123.304 31.2562 122.904 31.7494C122.502 32.2449 122.198 32.8158 121.993 33.4646C121.787 34.1133 121.684 34.8086 121.684 35.5507C121.684 36.2927 121.802 36.9881 122.04 37.6368C122.278 38.2855 122.606 38.8565 123.029 39.3519C123.451 39.8451 123.959 40.2317 124.557 40.5094C125.155 40.7871 125.823 40.927 126.565 40.927C128.152 40.927 129.378 40.3294 130.242 39.1342L132.035 40.8337C131.335 41.638 130.511 42.2245 129.565 42.5955C128.616 42.9665 127.618 43.1509 126.568 43.1509C125.455 43.1509 124.437 42.9665 123.508 42.5955C122.582 42.2245 121.793 41.7002 121.145 41.0203C120.496 40.3405 119.992 39.5363 119.632 38.6099C119.272 37.6834 119.092 36.6637 119.092 35.5507C119.092 34.4376 119.272 33.449 119.632 32.5226C119.992 31.5962 120.503 30.7919 121.16 30.1121C121.82 29.4323 122.606 28.9013 123.524 28.5214C124.439 28.1415 125.455 27.9504 126.568 27.9504C127.681 27.9504 128.654 28.1348 129.611 28.5058C130.569 28.8769 131.409 29.4523 132.128 30.2365L130.213 31.9361H130.209Z" fill="white"/>
<path d="M148.046 40.1539C147.182 41.267 146.233 42.0445 145.205 42.4866C144.174 42.9287 142.981 43.1509 141.621 43.1509C140.488 43.1509 139.468 42.951 138.562 42.5488C137.656 42.1467 136.889 41.6069 136.26 40.927C135.632 40.2472 135.147 39.443 134.807 38.5166C134.467 37.5901 134.296 36.6015 134.296 35.5507C134.296 34.4376 134.481 33.4135 134.852 32.4759C135.223 31.5384 135.736 30.7364 136.396 30.0654C137.056 29.3967 137.838 28.8769 138.744 28.5058C139.651 28.1348 140.639 27.9504 141.71 27.9504C142.719 27.9504 143.645 28.1215 144.489 28.4592C145.333 28.7991 146.06 29.2923 146.666 29.9433C147.273 30.592 147.742 31.3851 148.073 32.3226C148.402 33.2602 148.566 34.3265 148.566 35.5196V36.2927H136.889C136.931 36.9103 137.08 37.5035 137.338 38.07C137.596 38.6365 137.929 39.132 138.342 39.5541C138.753 39.9762 139.237 40.3116 139.795 40.5582C140.35 40.8048 140.959 40.9293 141.619 40.9293C142.67 40.9293 143.554 40.7449 144.276 40.3738C144.998 40.0028 145.645 39.4585 146.222 38.7365L148.044 40.1584L148.046 40.1539ZM145.976 34.2532C145.933 33.018 145.533 32.0294 144.771 31.2873C144.009 30.5453 142.959 30.1743 141.621 30.1743C140.284 30.1743 139.202 30.5453 138.378 31.2873C137.553 32.0294 137.06 33.018 136.893 34.2532H145.976Z" fill="white"/>
<path d="M151.779 31.7517C151.779 31.0918 151.759 30.4742 151.717 29.8988C151.674 29.3234 151.654 28.7969 151.654 28.3237H153.94C153.94 28.7147 153.951 29.1057 153.971 29.4967C153.991 29.8877 154.003 30.2898 154.003 30.7008H154.065C154.229 30.3498 154.46 30.0121 154.76 29.6811C155.058 29.3523 155.413 29.059 155.827 28.8013C156.238 28.5436 156.702 28.337 157.217 28.1837C157.733 28.0282 158.288 27.9527 158.886 27.9527C159.668 27.9527 160.323 28.0504 160.847 28.2459C161.372 28.4414 161.809 28.6791 162.16 28.9568C162.509 29.2345 162.782 29.5345 162.978 29.8522C163.174 30.1721 163.333 30.4542 163.458 30.7008C163.993 29.8366 164.611 29.1612 165.311 28.6769C166.011 28.1926 166.917 27.9504 168.03 27.9504C169.059 27.9504 169.925 28.0904 170.625 28.3681C171.325 28.6458 171.891 29.0479 172.324 29.5722C172.758 30.0965 173.066 30.7364 173.251 31.4873C173.437 32.2404 173.529 33.078 173.529 34.0044V42.7777H171.118V34.1266C171.118 33.6312 171.067 33.1491 170.963 32.6736C170.86 32.2004 170.674 31.7783 170.407 31.4073C170.138 31.0363 169.778 30.7386 169.325 30.512C168.872 30.2854 168.294 30.1721 167.595 30.1721C167.079 30.1721 166.595 30.2743 166.142 30.4809C165.688 30.6875 165.293 30.9741 164.953 31.3451C164.613 31.7161 164.344 32.1627 164.151 32.6892C163.956 33.2135 163.858 33.7956 163.858 34.4354V42.7777H161.447V34.5909C161.447 32.9847 161.232 31.8472 160.799 31.1763C160.365 30.5075 159.657 30.1721 158.666 30.1721C157.884 30.1721 157.208 30.3054 156.642 30.5742C156.075 30.843 155.611 31.2229 155.251 31.7161C154.891 32.2093 154.622 32.7981 154.449 33.4779C154.274 34.1577 154.187 34.9086 154.187 35.7328V42.7754H151.776V31.7472L151.779 31.7517Z" fill="white"/>
<path d="M177.268 30.1765C178.01 29.4145 178.889 28.8524 179.909 28.4925C180.929 28.1326 181.964 27.9526 183.015 27.9526C185.157 27.9526 186.701 28.457 187.649 29.4656C188.596 30.4742 189.071 32.0094 189.071 34.0688V40.2783C189.071 40.6915 189.091 41.1181 189.133 41.5602C189.176 42.0023 189.227 42.4088 189.289 42.7799H186.972C186.89 42.4511 186.843 42.0845 186.832 41.6824C186.821 41.2803 186.816 40.9248 186.816 40.616H186.754C186.281 41.358 185.648 41.9645 184.854 42.44C184.061 42.9132 183.108 43.1509 181.997 43.1509C181.255 43.1509 180.56 43.0576 179.911 42.8732C179.263 42.6888 178.696 42.4155 178.212 42.0556C177.727 41.6957 177.341 41.2469 177.054 40.7115C176.766 40.1761 176.621 39.5585 176.621 38.8587C176.621 37.6634 176.93 36.7281 177.548 36.0483C178.165 35.3685 178.932 34.8642 179.849 34.5354C180.764 34.2066 181.753 33.9999 182.815 33.9177C183.875 33.8355 184.848 33.7933 185.734 33.7933H186.661V33.3601C186.661 32.3093 186.345 31.5161 185.719 30.9807C185.09 30.4453 184.21 30.1787 183.077 30.1787C182.295 30.1787 181.526 30.3076 180.776 30.5653C180.022 30.823 179.36 31.2184 178.783 31.7539L177.27 30.1787L177.268 30.1765ZM184.25 35.8306C182.706 35.8306 181.48 36.0461 180.573 36.4793C179.667 36.9125 179.214 37.6212 179.214 38.6098C179.214 39.5163 179.518 40.1605 180.125 40.5404C180.731 40.9226 181.489 41.1114 182.395 41.1114C183.095 41.1114 183.708 40.9937 184.232 40.7559C184.757 40.5182 185.194 40.205 185.545 39.814C185.894 39.423 186.163 38.9653 186.347 38.4388C186.532 37.9145 186.636 37.3524 186.656 36.7548V35.8284H184.246L184.25 35.8306Z" fill="white"/>
<path d="M192.51 31.7516C192.51 31.0918 192.49 30.4742 192.448 29.8988C192.406 29.3234 192.386 28.7969 192.386 28.3237H194.672C194.672 28.7147 194.683 29.1057 194.703 29.4967C194.723 29.8877 194.734 30.2898 194.734 30.7008H194.796C194.961 30.3498 195.192 30.0121 195.492 29.6811C195.789 29.3523 196.145 29.059 196.558 28.8013C196.969 28.5436 197.433 28.337 197.949 28.1837C198.464 28.0282 199.02 27.9526 199.617 27.9526C199.782 27.9526 199.946 27.9637 200.11 27.9837C200.275 28.0037 200.439 28.0459 200.606 28.1082L200.45 30.5497C200.037 30.4253 199.606 30.3653 199.153 30.3653C197.671 30.3653 196.594 30.8452 195.925 31.8027C195.256 32.7603 194.921 34.0733 194.921 35.7417V42.7843H192.51V31.7561V31.7516Z" fill="white"/>
<path d="M212.003 30.3609H207.739V37.5901C207.739 38.0633 207.751 38.501 207.771 38.9031C207.791 39.3052 207.873 39.6562 208.017 39.9539C208.162 40.2539 208.377 40.4894 208.666 40.6649C208.955 40.8404 209.366 40.927 209.901 40.927C210.252 40.927 210.612 40.8848 210.983 40.8026C211.354 40.7204 211.703 40.596 212.034 40.4316L212.127 42.6244C211.714 42.8088 211.256 42.9443 210.752 43.0265C210.248 43.1087 209.768 43.1509 209.315 43.1509C208.45 43.1509 207.759 43.0376 207.244 42.811C206.729 42.5844 206.327 42.2667 206.04 41.8534C205.751 41.4424 205.562 40.9315 205.469 40.325C205.376 39.7184 205.329 39.0431 205.329 38.301V30.3609H202.179V28.3214H205.329V24.2136H207.739V28.3214H212.003V30.3609Z" fill="white"/>
<path d="M111.307 49.8247H110.832L110.387 48.4873H108.952L108.519 49.8247H108.059L109.423 45.6991H109.943L111.307 49.8247ZM110.294 48.1296L109.887 46.9054C109.801 46.6233 109.73 46.3634 109.676 46.1212H109.661C109.608 46.37 109.53 46.63 109.454 46.8899L109.043 48.1296H110.294Z" fill="white"/>
<path d="M115.468 49.7158C115.337 49.7803 115.046 49.8847 114.666 49.8847C113.822 49.8847 113.264 49.2848 113.264 48.3806C113.264 47.4764 113.866 46.8055 114.775 46.8055C115.106 46.8055 115.37 46.9032 115.484 46.9632L115.37 47.3253C115.246 47.2543 115.05 47.1743 114.764 47.1743C114.082 47.1743 113.724 47.7208 113.724 48.354C113.724 49.0693 114.153 49.5181 114.748 49.5181C115.041 49.5181 115.241 49.4359 115.388 49.3715L115.47 49.7181L115.468 49.7158Z" fill="white"/>
<path d="M118.765 48.3251C118.765 49.4248 118.038 49.8891 117.385 49.8891C116.628 49.8891 116.043 49.3204 116.043 48.3673C116.043 47.3609 116.672 46.8033 117.423 46.8033C118.23 46.8033 118.765 47.4209 118.765 48.3251ZM117.405 47.1565C116.768 47.1565 116.501 47.7852 116.501 48.3518C116.501 49.0072 116.863 49.5381 117.394 49.5381C117.925 49.5381 118.303 49.0072 118.303 48.3407C118.303 47.8164 118.05 47.1543 117.405 47.1543V47.1565Z" fill="white"/>
<path d="M123.626 49.8247H123.182V48.1185C123.182 47.5453 122.975 47.1765 122.533 47.1765C122.171 47.1765 121.84 47.5186 121.84 47.9674V49.8247H121.396V48.0052C121.396 47.5342 121.196 47.1765 120.778 47.1765C120.394 47.1765 120.054 47.5564 120.054 48.0163V49.8247H119.61V47.6319C119.61 47.3298 119.599 47.1121 119.587 46.8677H119.983L120.01 47.3431H120.025C120.187 47.0565 120.458 46.801 120.923 46.801C121.307 46.801 121.605 47.0387 121.729 47.392H121.74C121.936 47.041 122.233 46.801 122.689 46.801C123.051 46.801 123.626 47.0343 123.626 48.0451V49.8202V49.8247Z" fill="white"/>
<path d="M125.084 47.372C125.29 47.0099 125.63 46.8033 126.09 46.8033C126.788 46.8033 127.292 47.4031 127.292 48.3073C127.292 49.3893 126.659 49.8891 126.008 49.8891C125.619 49.8891 125.293 49.7114 125.119 49.4182H125.108V51.0311H124.659V47.8208C124.659 47.4365 124.648 47.1388 124.637 46.8677H125.044L125.07 47.372H125.082H125.084ZM125.11 48.6495C125.11 49.2226 125.539 49.527 125.939 49.527C126.519 49.527 126.839 49.0294 126.839 48.3251C126.839 47.7142 126.53 47.1721 125.957 47.1721C125.455 47.1721 125.113 47.6586 125.113 48.0874V48.6517L125.11 48.6495Z" fill="white"/>
<path d="M130.062 49.1205C130.062 49.3648 130.067 49.6181 130.104 49.8247H129.693L129.649 49.4448H129.633C129.482 49.6781 129.178 49.8891 128.763 49.8891C128.198 49.8891 127.903 49.4781 127.903 49.0494C127.903 48.3407 128.52 47.9563 129.613 47.9608C129.613 47.7119 129.613 47.1499 128.943 47.1499C128.687 47.1499 128.423 47.221 128.223 47.3609L128.114 47.0521C128.352 46.8944 128.683 46.8033 129.011 46.8033C129.845 46.8033 130.062 47.3942 130.062 47.9785V49.1205ZM129.618 48.2918C129.06 48.2918 128.363 48.374 128.363 48.996C128.363 49.3759 128.6 49.5426 128.871 49.5426C129.309 49.5426 129.618 49.2071 129.618 48.8494V48.2918Z" fill="white"/>
<path d="M133.45 49.8247H133.002V48.0807C133.002 47.5986 132.828 47.1765 132.313 47.1765C131.929 47.1765 131.54 47.5009 131.54 48.0163V49.8247H131.091V47.632C131.091 47.3298 131.08 47.1077 131.069 46.8677H131.469L131.495 47.3498H131.507C131.653 47.0632 131.993 46.8033 132.455 46.8033C132.824 46.8033 133.45 47.0254 133.45 48.0274V49.8247Z" fill="white"/>
<path d="M136.709 46.8721L135.925 48.9627C135.574 49.9202 135.325 50.4734 134.956 50.82C134.708 51.0466 134.463 51.1399 134.354 51.1666L134.23 50.7867C134.919 50.5312 135.183 49.7847 135.183 49.7247C135.183 49.6981 135.172 49.6536 135.15 49.6003L134.105 46.8721H134.599L135.243 48.665C135.318 48.8716 135.383 49.1027 135.432 49.2826H135.447C135.496 49.1049 135.567 48.8827 135.636 48.6539L136.232 46.8721H136.707H136.709Z" fill="white"/>
<path d="M138.911 46.3367L139.355 46.1857V46.8722H140.12V47.2232H139.355V48.9294C139.355 49.3026 139.469 49.5092 139.755 49.5092C139.891 49.5092 139.982 49.4937 140.057 49.467L140.084 49.8136C139.986 49.8558 139.835 49.8847 139.646 49.8847C138.931 49.8847 138.911 49.236 138.911 48.9205V47.2254H138.456V46.8744H138.911V46.339V46.3367Z" fill="white"/>
<path d="M143.232 49.8247H142.783V48.0807C142.783 47.5986 142.61 47.1831 142.101 47.1831C141.755 47.1831 141.321 47.4697 141.321 48.0118V49.8247H140.873V45.4947H141.321V47.3298H141.332C141.528 47.0054 141.886 46.8055 142.248 46.8055C142.61 46.8055 143.234 47.0276 143.234 48.0296V49.8269L143.232 49.8247Z" fill="white"/>
<path d="M146.198 49.1205C146.198 49.3648 146.202 49.6181 146.24 49.8247H145.829L145.785 49.4448H145.769C145.618 49.6781 145.314 49.8891 144.898 49.8891C144.334 49.8891 144.039 49.4781 144.039 49.0494C144.039 48.3407 144.656 47.9563 145.749 47.9608C145.749 47.7119 145.749 47.1499 145.078 47.1499C144.823 47.1499 144.558 47.221 144.358 47.3609L144.25 47.0521C144.487 46.8944 144.818 46.8033 145.147 46.8033C145.98 46.8033 146.198 47.3942 146.198 47.9785V49.1205ZM145.754 48.2918C145.196 48.2918 144.498 48.374 144.498 48.996C144.498 49.3759 144.736 49.5426 145.007 49.5426C145.445 49.5426 145.754 49.2071 145.754 48.8494V48.2918Z" fill="white"/>
<path d="M147.344 46.3367L147.788 46.1857V46.8722H148.553V47.2232H147.788V48.9294C147.788 49.3026 147.902 49.5092 148.188 49.5092C148.324 49.5092 148.415 49.4937 148.49 49.467L148.517 49.8136C148.419 49.8558 148.268 49.8847 148.079 49.8847C147.364 49.8847 147.344 49.236 147.344 48.9205V47.2254H146.889V46.8744H147.344V46.339V46.3367Z" fill="white"/>
<path d="M152.721 49.7158C152.59 49.7803 152.299 49.8847 151.919 49.8847C151.075 49.8847 150.517 49.2848 150.517 48.3806C150.517 47.4764 151.119 46.8055 152.028 46.8055C152.359 46.8055 152.623 46.9032 152.737 46.9632L152.623 47.3253C152.499 47.2543 152.303 47.1743 152.017 47.1743C151.335 47.1743 150.977 47.7208 150.977 48.354C150.977 49.0693 151.406 49.5181 152.001 49.5181C152.294 49.5181 152.494 49.4359 152.641 49.3715L152.723 49.7181L152.721 49.7158Z" fill="white"/>
<path d="M156.017 48.3251C156.017 49.4248 155.291 49.8891 154.638 49.8891C153.88 49.8891 153.296 49.3204 153.296 48.3673C153.296 47.3609 153.925 46.8033 154.676 46.8033C155.482 46.8033 156.017 47.4209 156.017 48.3251ZM154.658 47.1565C154.02 47.1565 153.754 47.7852 153.754 48.3518C153.754 49.0072 154.116 49.5381 154.647 49.5381C155.178 49.5381 155.555 49.0072 155.555 48.3407C155.555 47.8164 155.302 47.1543 154.658 47.1543V47.1565Z" fill="white"/>
<path d="M159.221 49.8247H158.773V48.0807C158.773 47.5986 158.599 47.1765 158.084 47.1765C157.7 47.1765 157.311 47.5009 157.311 48.0163V49.8247H156.862V47.632C156.862 47.3298 156.851 47.1077 156.84 46.8677H157.24L157.266 47.3498H157.278C157.424 47.0632 157.764 46.8033 158.226 46.8033C158.595 46.8033 159.221 47.0254 159.221 48.0274V49.8247Z" fill="white"/>
<path d="M162.616 49.8247H162.167V48.0807C162.167 47.5986 161.994 47.1765 161.479 47.1765C161.094 47.1765 160.705 47.5009 160.705 48.0163V49.8247H160.257V47.632C160.257 47.3298 160.245 47.1077 160.234 46.8677H160.634L160.661 47.3498H160.672C160.819 47.0632 161.159 46.8033 161.621 46.8033C161.989 46.8033 162.616 47.0254 162.616 48.0274V49.8247Z" fill="white"/>
<path d="M165.737 49.7003C165.571 49.7825 165.262 49.8847 164.811 49.8847C163.951 49.8847 163.436 49.2782 163.436 48.3962C163.436 47.4698 163.955 46.8055 164.751 46.8055C165.659 46.8055 165.893 47.6386 165.893 48.154C165.893 48.2562 165.888 48.3317 165.882 48.4028H163.873C163.878 49.2204 164.344 49.5292 164.875 49.5292C165.244 49.5292 165.466 49.4537 165.648 49.3781L165.735 49.7025L165.737 49.7003ZM165.451 48.0652C165.457 47.6653 165.288 47.1454 164.709 47.1454C164.166 47.1454 163.929 47.6586 163.884 48.0652H165.448H165.451Z" fill="white"/>
<path d="M168.721 49.7158C168.59 49.7803 168.299 49.8847 167.919 49.8847C167.075 49.8847 166.517 49.2848 166.517 48.3806C166.517 47.4764 167.119 46.8055 168.028 46.8055C168.359 46.8055 168.623 46.9032 168.737 46.9632L168.623 47.3253C168.499 47.2543 168.303 47.1743 168.017 47.1743C167.335 47.1743 166.977 47.7208 166.977 48.354C166.977 49.0693 167.406 49.5181 168.001 49.5181C168.294 49.5181 168.494 49.4359 168.641 49.3715L168.723 49.7181L168.721 49.7158Z" fill="white"/>
<path d="M169.63 46.3367L170.074 46.1857V46.8722H170.838V47.2232H170.074V48.9294C170.074 49.3026 170.187 49.5092 170.474 49.5092C170.61 49.5092 170.701 49.4937 170.776 49.467L170.803 49.8136C170.705 49.8558 170.554 49.8847 170.365 49.8847C169.65 49.8847 169.63 49.236 169.63 48.9205V47.2254H169.174V46.8744H169.63V46.339V46.3367Z" fill="white"/>
<path d="M172.969 47.3231C172.86 47.2521 172.66 47.1499 172.396 47.1499C172.071 47.1499 171.898 47.3498 171.898 47.5875C171.898 47.843 172.065 47.9608 172.445 48.1229C172.92 48.3184 173.198 48.5673 173.198 49.0116C173.198 49.5359 172.798 49.8825 172.154 49.8825C171.86 49.8825 171.58 49.8003 171.38 49.6825L171.505 49.336C171.663 49.427 171.916 49.5359 172.171 49.5359C172.567 49.5359 172.762 49.3248 172.762 49.0605C172.762 48.7961 172.604 48.6317 172.216 48.4762C171.718 48.2762 171.463 48.0007 171.463 47.6431C171.463 47.1832 171.831 46.8033 172.427 46.8033C172.709 46.8033 172.947 46.8855 173.104 46.981L172.976 47.3231H172.969Z" fill="white"/>
<path d="M179.26 46.8677L178.323 49.8225H177.923L177.456 48.3384C177.347 48.003 177.267 47.7053 177.196 47.3631H177.181C177.11 47.7141 177.019 48.023 176.91 48.3429L176.417 49.8203H176.01L175.139 46.8655H175.603L176.014 48.414C176.097 48.745 176.177 49.0471 176.237 49.3515H176.252C176.317 49.0582 176.414 48.7405 176.512 48.4206L177.005 46.8677H177.394L177.865 48.394C177.97 48.7405 178.054 49.0538 178.125 49.3515H178.141C178.194 49.0582 178.276 48.7517 178.374 48.3984L178.807 46.8655H179.256L179.26 46.8677Z" fill="white"/>
<path d="M180.185 46.3545C180.012 46.3545 179.892 46.219 179.892 46.0457C179.892 45.8724 180.016 45.7435 180.189 45.7435C180.363 45.7435 180.483 45.8791 180.483 46.0457C180.483 46.2345 180.358 46.3545 180.185 46.3545ZM180.411 49.8247H179.963V46.8743H180.411V49.8247Z" fill="white"/>
<path d="M181.586 46.3367L182.031 46.1857V46.8722H182.795V47.2232H182.031V48.9294C182.031 49.3026 182.144 49.5092 182.431 49.5092C182.566 49.5092 182.657 49.4937 182.733 49.467L182.759 49.8136C182.662 49.8558 182.51 49.8847 182.322 49.8847C181.606 49.8847 181.586 49.236 181.586 48.9205V47.2254H181.131V46.8744H181.586V46.339V46.3367Z" fill="white"/>
<path d="M185.908 49.8247H185.459V48.0807C185.459 47.5986 185.286 47.1831 184.777 47.1831C184.43 47.1831 183.997 47.4697 183.997 48.0118V49.8247H183.548V45.4947H183.997V47.3298H184.008C184.204 47.0054 184.561 46.8055 184.924 46.8055C185.286 46.8055 185.91 47.0276 185.91 48.0296V49.8269L185.908 49.8247Z" fill="white"/>
<path d="M188.482 46.3367L188.927 46.1857V46.8722H189.691V47.2232H188.927V48.9294C188.927 49.3026 189.04 49.5092 189.327 49.5092C189.462 49.5092 189.553 49.4937 189.629 49.467L189.655 49.8136C189.558 49.8558 189.406 49.8847 189.218 49.8847C188.502 49.8847 188.482 49.236 188.482 48.9205V47.2254H188.027V46.8744H188.482V46.339V46.3367Z" fill="white"/>
<path d="M192.804 49.8247H192.355V48.0807C192.355 47.5986 192.182 47.1831 191.673 47.1831C191.326 47.1831 190.893 47.4697 190.893 48.0118V49.8247H190.444V45.4947H190.893V47.3298H190.904C191.1 47.0054 191.457 46.8055 191.82 46.8055C192.182 46.8055 192.806 47.0276 192.806 48.0296V49.8269L192.804 49.8247Z" fill="white"/>
<path d="M195.925 49.7003C195.759 49.7825 195.45 49.8847 194.999 49.8847C194.139 49.8847 193.624 49.2782 193.624 48.3962C193.624 47.4698 194.143 46.8055 194.939 46.8055C195.847 46.8055 196.081 47.6386 196.081 48.154C196.081 48.2562 196.076 48.3317 196.07 48.4028H194.061C194.066 49.2204 194.532 49.5292 195.063 49.5292C195.432 49.5292 195.654 49.4537 195.836 49.3781L195.923 49.7025L195.925 49.7003ZM195.639 48.0652C195.645 47.6653 195.476 47.1454 194.897 47.1454C194.354 47.1454 194.117 47.6586 194.072 48.0652H195.636H195.639Z" fill="white"/>
<path d="M202.128 46.8677L201.19 49.8225H200.791L200.324 48.3384C200.215 48.003 200.135 47.7053 200.064 47.3631H200.049C199.977 47.7141 199.886 48.023 199.777 48.3429L199.284 49.8203H198.878L198.007 46.8655H198.471L198.882 48.414C198.964 48.745 199.044 49.0471 199.104 49.3515H199.12C199.184 49.0582 199.282 48.7405 199.38 48.4206L199.873 46.8677H200.262L200.733 48.394C200.835 48.7405 200.922 49.0538 200.993 49.3515H201.008C201.062 49.0582 201.144 48.7517 201.242 48.3984L201.675 46.8655H202.124L202.128 46.8677Z" fill="white"/>
<path d="M205.338 48.3251C205.338 49.4248 204.612 49.8891 203.959 49.8891C203.201 49.8891 202.617 49.3204 202.617 48.3673C202.617 47.3609 203.245 46.8033 203.996 46.8033C204.803 46.8033 205.338 47.4209 205.338 48.3251ZM203.979 47.1565C203.341 47.1565 203.074 47.7852 203.074 48.3518C203.074 49.0072 203.436 49.5381 203.967 49.5381C204.498 49.5381 204.876 49.0072 204.876 48.3407C204.876 47.8164 204.623 47.1543 203.979 47.1543V47.1565Z" fill="white"/>
<path d="M207.531 47.252C207.482 47.2476 207.433 47.2409 207.368 47.2409C206.882 47.2409 206.633 47.723 206.633 48.2206V49.8224H206.184V47.7541C206.184 47.4408 206.18 47.1543 206.162 46.8721H206.558L206.58 47.4408H206.595C206.724 47.0721 207.033 46.8077 207.397 46.8077C207.446 46.8077 207.484 46.8188 207.533 46.8232V47.252H207.531Z" fill="white"/>
<path d="M208.666 49.8247H208.217V45.4947H208.666V49.8247Z" fill="white"/>
<path d="M212.105 49.0938C212.105 49.3315 212.116 49.6247 212.128 49.8247H211.728L211.705 49.3204H211.69C211.539 49.6292 211.203 49.8891 210.726 49.8891C210.044 49.8891 209.513 49.2982 209.513 48.3895C209.513 47.3942 210.097 46.8077 210.786 46.8077C211.219 46.8077 211.51 47.0188 211.645 47.2631H211.657V45.4925H212.105V49.0915V49.0938ZM211.657 48.054C211.657 47.4631 211.239 47.1721 210.861 47.1721C210.304 47.1721 209.973 47.6919 209.973 48.3673C209.973 48.9894 210.266 49.5203 210.843 49.5203C211.33 49.5203 211.657 49.0915 211.657 48.6228V48.054Z" fill="white"/>
<path d="M68.0204 25.7666C67.3473 26.142 66.6519 26.5131 65.9321 26.8796C65.9588 27.3662 65.9743 27.8527 65.9743 28.3392C65.9743 30.8941 65.5989 33.3624 64.9146 35.6995C62.1931 37.3302 58.2408 38.6254 53.5598 39.483C54.1574 36.9925 54.5573 34.3088 54.7328 31.5006C54.2441 31.6628 53.7509 31.8228 53.2554 31.9805C53.0577 34.7242 52.6467 37.3369 52.0446 39.7429C48.5011 40.3028 44.5955 40.6182 40.5254 40.6516V35.0486C40.0411 35.1286 39.559 35.2019 39.0836 35.2708V40.6516C35.0113 40.6182 31.1035 40.3028 27.5599 39.7429C27.24 38.4677 26.9734 37.1325 26.7646 35.7529C26.3603 35.7106 25.967 35.6595 25.5849 35.6018C25.4849 35.5862 25.3894 35.5685 25.2916 35.5529C25.4894 36.9059 25.7426 38.2211 26.0448 39.4852C21.3638 38.6277 17.4115 37.3324 14.6922 35.7018C14.0057 33.3646 13.6325 30.8963 13.6325 28.3415C13.6325 24.1892 14.6211 20.0747 16.494 16.4401C16.5628 16.3046 16.6361 16.1735 16.7072 16.038C19.0688 17.3488 22.1214 18.4218 25.6249 19.2061C25.0761 22.0764 24.774 25.1579 24.774 28.3681C24.774 29.7478 24.8318 31.103 24.9406 32.4293C25.4116 32.3915 25.8915 32.3471 26.3736 32.2982C26.2736 31.0141 26.2159 29.7055 26.2159 28.3681C26.2159 25.2556 26.5002 22.2697 27.0179 19.4993C30.6947 20.2169 34.8025 20.6235 39.0858 20.6657V29.8944C39.5657 29.7655 40.0478 29.6322 40.5277 29.4967V20.6657C44.8088 20.6235 48.9166 20.2191 52.5912 19.4993C52.9089 21.2011 53.1377 22.9829 53.2665 24.8246C53.7375 24.6069 54.2018 24.3869 54.6551 24.1648C54.5129 22.4563 54.2863 20.799 53.9819 19.2083C57.4832 18.4241 60.5357 17.3488 62.8996 16.0402C62.9707 16.1758 63.0462 16.3091 63.1151 16.4468C63.4194 17.0378 63.6994 17.6443 63.9571 18.2597C64.5902 17.6998 65.139 17.1488 65.5989 16.6156C65.4211 16.2269 65.2367 15.8403 65.0412 15.4604C60.1692 5.92067 50.5006 0 39.8056 0C29.1106 0 19.4354 5.92067 14.5656 15.4493C12.5372 19.386 11.4664 23.8426 11.4664 28.337C11.4664 28.4014 11.4686 28.4637 11.4708 28.5281C3.78173 32.727 -0.763748 37.3413 0.271536 40.6716C1.14686 43.4886 5.83674 44.7994 12.535 44.5972C11.1398 43.9574 10.2134 43.0887 9.87124 41.989C9.32916 40.2406 10.3245 38.1389 12.5017 35.9306C12.6016 36.2927 12.7105 36.6526 12.8238 37.0103L12.7905 37.0614C12.8105 37.0747 12.8327 37.0881 12.8549 37.1036C16.5539 48.4562 27.2378 56.6829 39.8078 56.6829C52.3779 56.6829 63.0551 48.454 66.7519 37.1014C66.7719 37.0881 66.7941 37.0747 66.8141 37.0614L66.7808 37.0125C67.6605 34.2777 68.1382 31.3651 68.1382 28.3415C68.1382 27.4817 68.0982 26.6241 68.0204 25.771V25.7666ZM61.8065 14.1674C59.6449 15.356 56.7967 16.3468 53.5198 17.08C51.9491 10.635 49.0765 5.49189 45.5197 2.79038C52.2024 4.27221 58.052 8.32226 61.8065 14.1674ZM40.5254 2.17499C40.541 2.17499 40.5588 2.17499 40.5743 2.17499C45.7019 2.73262 50.0785 8.8088 52.1335 17.3688C48.59 18.0597 44.6199 18.4552 40.5254 18.4974V2.17499ZM39.0836 2.17499V18.4996C34.9402 18.4596 30.9835 18.0753 27.4644 17.3932C29.5172 8.82213 33.8961 2.73484 39.028 2.17721C39.0458 2.17721 39.0636 2.17721 39.0814 2.17721L39.0836 2.17499ZM34.0827 2.79038C30.5236 5.49634 27.6488 10.6483 26.0803 17.1022C22.8056 16.3713 19.9708 15.3782 17.7958 14.1696C21.5482 8.32448 27.3978 4.27444 34.0827 2.79038ZM15.7697 38.6876C18.6956 40.0117 22.4302 41.0648 26.6646 41.7735C28.2909 47.1454 30.8569 51.4265 33.956 53.8437C25.7715 51.9664 19.0377 46.2457 15.7719 38.6854L15.7697 38.6876ZM39.0836 54.4946C38.8992 54.4902 38.7126 54.4902 38.5304 54.4813C34.1604 53.6926 30.3836 48.8961 28.2042 42.0134C31.6033 42.5044 35.2801 42.7799 39.0836 42.811V54.4946ZM40.5254 54.4946V42.8088C44.3289 42.7777 48.0035 42.5022 51.4004 42.0112C49.2209 48.8939 45.4441 53.6904 41.0742 54.4791C40.892 54.4879 40.7076 54.4879 40.5254 54.4924V54.4946ZM45.6485 53.8481C48.7477 51.431 51.3159 47.1499 52.9422 41.7757C57.1766 41.0648 60.9134 40.0117 63.8393 38.6876C60.5713 46.2523 53.8353 51.973 45.6485 53.8481Z" fill="white"/>
<path d="M77.7067 13.6431C76.8758 10.8128 72.206 9.43092 65.5033 9.53311C66.8896 10.1952 67.8027 11.0772 68.127 12.1835C69.6489 17.3644 57.7542 25.4201 41.5584 30.181C34.2115 32.3405 27.2466 33.4468 21.6792 33.529C26.7912 35.9706 38.3948 35.3863 51.1359 31.6407C67.3317 26.8819 79.2263 18.824 77.7045 13.6431H77.7067Z" fill="white"/>
</g>
<defs>
<clipPath id="clip0_225_1106">
<rect width="212" height="56.6785" fill="white" transform="translate(0.125)"/>
</clipPath>
</defs>
</svg>
