<svg width="24" height="24" viewBox="0 0 24 24" fill="none" xmlns="http://www.w3.org/2000/svg"><path d="M23.1034 1.83906V22.3609c0 .361-.1547.6703-.3609.9282-.2578.2578-.5672.3609-.9281.3609h-5.8782v-8.9719h2.9907l.464-3.4547h-3.4547V9.00625c0-.56719.1032-.97969.3094-1.2375.2578-.30937.7219-.46406 1.3922-.46406h1.8562V4.15938c-.7218-.05157-1.65-.10313-2.6812-.10313-1.3406 0-2.4234.4125-3.2484 1.18594-.825.825-1.2375 1.95937-1.2375 3.40312v2.57809H9.33623v3.4547h2.99067V23.65H1.29248c-.4125 0-.721875-.1031-.928125-.3609-.257812-.2579-.36093703-.5672-.36093703-.9282V1.83906c0-.36093.10312503-.67031.36093703-.928121.20625-.20625.515625-.360937.928125-.360937H21.8144c.3093 0 .6187.154687.8765.360937.2578.257811.4125.567191.4125.928121Z" fill="#fff"/></svg>