<svg width="353" height="352" viewBox="0 0 353 352" fill="none" xmlns="http://www.w3.org/2000/svg"><circle cx="239.65" cy="238.334" r="113.35" fill="#80FF00" fill-opacity=".05"/><path d="m201.772 195.27 1.031.227c-.276.763-.601 1.607-.877 2.151l-.86-.227c.26-.577.56-1.486.706-2.151Zm1.283 1.023.762-.382c.512.649 1.039 1.51 1.275 2.094l-.82.446c-.211-.584-.739-1.501-1.217-2.158Zm-.439-4.537c-.446.682-1.201 1.566-2.012 2.15-.122-.251-.349-.616-.536-.827.828-.544 1.664-1.526 2.061-2.248h.901c.568.795 1.38 1.663 2.167 2.118-.195.235-.43.584-.584.876-.723-.519-1.534-1.404-1.997-2.069Zm-1.412 1.517h2.946v.844h-2.946v-.844Zm-.536 1.469h4.245v.844h-4.245v-.844Zm-.373 2.606c.966-.057 2.435-.171 3.798-.276l.017.811c-1.291.13-2.662.252-3.661.341l-.154-.876Zm-1.655-6.566.844.316c-.333.617-.706 1.34-1.023 1.794l-.649-.284c.292-.479.641-1.258.828-1.826Zm.933.958.787.357c-.584.933-1.38 2.061-1.996 2.767l-.56-.316c.6-.739 1.347-1.932 1.769-2.808Zm-2.183.965.462-.665c.43.373.934.884 1.145 1.258l-.504.755c-.194-.39-.689-.958-1.103-1.348Zm1.939.974.642-.268c.316.544.624 1.258.722 1.729l-.69.308c-.089-.47-.365-1.209-.674-1.769Zm-1.947.674c.746-.025 1.842-.065 2.913-.114l-.008.771c-.998.073-2.037.138-2.824.195l-.081-.852Zm2.126 1.347.682-.219c.203.463.414 1.071.503 1.477l-.714.252c-.082-.406-.293-1.031-.471-1.51Zm-1.777-.154.803.138c-.081.779-.26 1.591-.495 2.11-.17-.106-.536-.276-.739-.357.236-.479.366-1.201.431-1.891Zm.909-.763h.852v3.62h-.852v-3.62Zm11.013 1.323h.965v2.272h-.965v-2.272Zm-.301-2.63.877.414c-.495.398-1.047.82-1.477 1.08l-.658-.366c.431-.292.95-.771 1.258-1.128Zm1.713.439.852.47c-.95.706-2.191 1.461-3.157 1.932l-.617-.438c.958-.495 2.175-1.315 2.922-1.964Zm-3.847.876.633-.536c.592.301 1.404.771 1.81 1.12l-.682.593c-.365-.341-1.144-.844-1.761-1.177Zm4.196.495.681-.495c.65.406 1.478 1.015 1.883 1.469l-.73.544c-.365-.438-1.169-1.088-1.834-1.518Zm-.284 1.81.714-.495c.6.292 1.444.755 1.875 1.087l-.763.552c-.39-.324-1.21-.819-1.826-1.144Zm-4.545-1.29c1.615-.009 4.163-.049 6.484-.098l-.04.722c-2.313.065-4.789.122-6.395.147l-.049-.771Zm1.68.819.893.341c-.528.52-1.356 1.023-2.029 1.331-.171-.187-.52-.511-.731-.665.69-.236 1.429-.617 1.867-1.007Zm1.388-5.859h.974v2.905h-.974v-2.905Zm-2.654.446h6.419v.698h-6.419v-.698Zm.422 1.015h5.575v.689h-5.575v-.689Zm-.86 1.006h7.223v.738h-7.223v-.738Zm12.327-.779h3.985v.925h-3.985v-.925Zm2.175-1.672h1.031v6.419c0 .552-.114.82-.446.974-.333.163-.844.187-1.55.187-.049-.276-.195-.714-.333-.982.446.016.949.008 1.095.008.147 0 .203-.049.203-.187v-6.419Zm-.081 2.118.787.479c-.592 1.412-1.728 2.954-2.873 3.814-.162-.259-.462-.6-.706-.795 1.137-.722 2.248-2.175 2.792-3.498Zm-5.583-.454h3.262v.933h-3.262v-.933Zm1.249-1.672h.982v7.62h-.982v-7.62Zm-.032 2.297.633.227c-.308 1.339-.885 2.905-1.583 3.757-.097-.3-.34-.714-.503-.974.633-.714 1.201-1.955 1.453-3.01Zm.941.454c.26.203 1.145 1.104 1.339 1.323l-.568.836c-.284-.463-.933-1.307-1.249-1.68l.478-.479Zm10.673-1.023c-.284-.292-.844-.835-1.161-1.079l.747-.519c.284.227.892.746 1.176 1.047l-.762.551Zm-2.208-.868c.065.154.227.487.317.641.332.625.698 1.429.99 2.11.381.885 1.014 2.614 1.282 3.531l-1.12.284c-.252-1.023-.674-2.394-1.087-3.368-.325-.755-.625-1.494-.958-2.078-.122-.195-.317-.503-.479-.706l1.055-.414Zm-1.753 2.378c.317-.073.666-.203.804-.26 1.477-.576 3.14-1.525 4.447-1.525 1.25 0 2.013.762 2.013 1.704 0 1.136-.779 1.85-2.021 1.85-.447 0-.95-.113-1.258-.227l.032-1.015c.366.155.771.268 1.12.268.609 0 1.055-.332 1.055-.917 0-.406-.357-.746-.965-.746-1.315 0-3.75 1.452-4.756 1.907l-.471-1.039Zm14.876-2.905c.203.3.495.811.641 1.111l-.649.276c-.162-.324-.414-.811-.633-1.12l.641-.267Zm.958-.366c.219.301.511.82.657 1.104l-.641.276c-.17-.341-.43-.812-.657-1.12l.641-.26Zm-3.652.755c-.089.211-.203.495-.268.666-.146.405-.39 1.006-.601 1.42-.324.641-.876 1.428-1.412 1.899l-1.022-.617c.576-.43 1.103-1.16 1.412-1.672.219-.373.365-.795.471-1.112.089-.267.154-.576.17-.827l1.25.243Zm-1.282 1.258h4.293c.203 0 .576-.016.844-.057v1.104c-.309-.024-.658-.024-.844-.024h-4.383l.09-1.023Zm3.173.584c-.057 2.395-.909 3.977-2.476 4.967l-1.095-.738c.292-.122.576-.284.763-.447.925-.706 1.647-1.826 1.68-3.782h1.128Zm4.212.568c.3.025.884.057 1.307.057h4.358c.381 0 .738-.04.957-.057v1.283c-.194-.008-.608-.049-.949-.049h-4.366c-.455 0-.999.024-1.307.049v-1.283Zm12.439-2.361c-.105.243-.219.544-.341.909-.3.909-1.144 3.522-1.493 4.366l-1.193.041c.438-1.039 1.282-3.701 1.55-4.643.114-.405.154-.665.187-.933l1.29.26Zm1.453 2.621c.584.877 1.412 2.475 1.785 3.376l-1.095.487c-.366-.982-1.12-2.662-1.697-3.441l1.007-.422Zm-4.561 2.329c1.128-.04 3.782-.34 4.918-.495l.235 1.039c-1.201.154-3.993.447-5.088.56-.203.024-.512.065-.763.098l-.195-1.193c.276.008.633 0 .893-.009Zm9.511.698c1.315-.543 2.192-1.355 2.776-2.207.609-.869.836-1.777.966-2.451.073-.365.105-.779.097-.974l1.315.179c-.089.308-.187.714-.235.949-.211.95-.536 1.94-1.129 2.849-.633.974-1.533 1.866-2.816 2.491l-.974-.836Zm-.162-5.6c.398.577 1.096 1.818 1.396 2.387l-1.063.6c-.406-.868-1.006-1.923-1.38-2.451l1.047-.536Zm7.856 2.313c.3.025.885.057 1.307.057h4.358c.381 0 .738-.04.958-.057v1.283c-.195-.008-.609-.049-.95-.049h-4.366c-.455 0-.998.024-1.307.049v-1.283Zm14.545-1.736c-.065.089-.211.332-.284.503-.333.771-.933 1.875-1.631 2.686-.909 1.047-2.135 2.053-3.393 2.646l-.844-.877c1.315-.487 2.565-1.477 3.328-2.321.536-.608 1.031-1.412 1.217-1.988h-2.759c-.333 0-.779.041-.958.057v-1.161c.219.033.723.057.958.057h2.865c.357 0 .673-.041.844-.097l.657.495Zm-1.81 2.516c.836.681 1.989 1.891 2.516 2.54l-.925.803c-.601-.836-1.485-1.801-2.354-2.589l.763-.754Z" fill="#fff"/><rect x="221.525" y="176.925" width="40.5788" height="1.0821" rx=".54105" fill="url(#a)"/><path fill-rule="evenodd" clip-rule="evenodd" d="M240.146 335.725c53.918 0 97.627-43.71 97.627-97.628s-43.709-97.627-97.627-97.627c-53.918 0-97.628 43.709-97.628 97.627 0 53.918 43.71 97.628 97.628 97.628Zm0 1.159c54.559 0 98.787-44.228 98.787-98.787 0-54.559-44.228-98.787-98.787-98.787-54.559 0-98.788 44.228-98.788 98.787 0 54.559 44.229 98.787 98.788 98.787Z" fill="url(#b)"/><path d="M279.774 330.707c0 3.523-2.856 6.38-6.38 6.38-3.523 0-6.38-2.857-6.38-6.38 0-3.524 2.857-6.38 6.38-6.38 3.524 0 6.38 2.856 6.38 6.38Z" fill="url(#c)"/><path d="M298.914 154.969c0 2.883-2.337 5.22-5.22 5.22-2.883 0-5.22-2.337-5.22-5.22 0-2.883 2.337-5.22 5.22-5.22 2.883 0 5.22 2.337 5.22 5.22Z" fill="url(#d)"/><path d="M173.635 306.637c0 2.082-1.687 3.77-3.769 3.77-2.083 0-3.77-1.688-3.77-3.77s1.687-3.77 3.77-3.77c2.082 0 3.769 1.688 3.769 3.77Z" fill="url(#e)"/><path fill-rule="evenodd" clip-rule="evenodd" d="M240.145 335.725c53.919 0 97.628-43.71 97.628-97.628s-43.709-97.627-97.628-97.627c-53.918 0-97.627 43.709-97.627 97.627 0 53.918 43.709 97.628 97.627 97.628Zm0 1.159c54.559 0 98.788-44.228 98.788-98.787 0-54.559-44.229-98.787-98.788-98.787-54.558 0-98.787 44.228-98.787 98.787 0 54.559 44.229 98.787 98.787 98.787Z" fill="url(#f)"/><path d="M279.774 330.707c0 3.523-2.857 6.38-6.38 6.38-3.524 0-6.38-2.857-6.38-6.38 0-3.524 2.856-6.38 6.38-6.38 3.523 0 6.38 2.856 6.38 6.38Z" fill="url(#g)"/><path d="M298.913 154.969c0 2.883-2.337 5.22-5.22 5.22-2.882 0-5.22-2.337-5.22-5.22 0-2.883 2.338-5.22 5.22-5.22 2.883 0 5.22 2.337 5.22 5.22Z" fill="url(#h)"/><path d="M173.635 306.637c0 2.082-1.688 3.77-3.77 3.77s-3.77-1.688-3.77-3.77 1.688-3.77 3.77-3.77 3.77 1.688 3.77 3.77Z" fill="url(#i)"/><circle cx="310.257" cy="328.96" r="2.1642" fill="#49B01F"/><circle cx="336.769" cy="174.761" r="2.1642" fill="#3CAF39"/><path d="M236.937 260.706c1.051.607 1.699 1.728 1.699 2.942v21.559c0 1.214-.648 2.336-1.699 2.943l-18.671 10.779c-1.051.607-2.346.607-3.397 0l-18.671-10.779c-1.051-.607-1.699-1.729-1.699-2.943v-21.559c0-1.214.648-2.335 1.699-2.942l18.671-10.78c1.051-.607 2.346-.607 3.397 0l18.671 10.78Z" fill="url(#j)"/><path d="M219.808 265.269h.001c1.637-.432 3.123-.813 4.513-.542 1.384.27 2.683 1.189 3.934 3.388.643 1.179 1.18 2.717 1.61 4.366.43 1.72.717 3.547.788 5.194.072 1.864-.108 3.182-.498 4.068v.001c-.389.919-.987 1.41-1.688 1.62-.667.176-1.444.071-2.263-.249-1.39-.571-2.999-1.785-4.577-3.256-1.128-1.091-3.227-1.63-5.314-1.63-2.088 0-4.187.539-5.315 1.63-1.578 1.471-3.187 2.686-4.578 3.256l-.001.001c-.816.355-1.593.424-2.261.248-.735-.21-1.298-.735-1.688-1.585-.39-.922-.57-2.241-.498-4.068.071-1.647.358-3.474.788-5.194v-.001c.394-1.647.967-3.186 1.61-4.365 1.252-2.217 2.55-3.136 3.934-3.406 1.377-.269 2.848.103 4.467.512l.046.012h.001c.093.023.186.045.281.068.959.233 1.979.481 3.029.58h.369c1.05-.099 2.071-.347 3.029-.58.095-.023.188-.045.281-.068Zm8.33 16.943h.001c.38-.114.677-.416.896-.928.328-.765.471-1.888.399-3.542-.072-1.584-.36-3.31-.755-4.964-.396-1.582-.9-2.987-1.513-4.07-.993-1.787-2.073-2.536-3.255-2.746-1.154-.205-2.396.106-3.728.439-.025.007-.051.013-.077.02h-.001c-1.112.287-2.256.573-3.542.68H216.029c-1.251-.107-2.395-.393-3.507-.68-1.361-.358-2.63-.686-3.806-.472-1.182.214-2.262.973-3.255 2.759-.613 1.083-1.117 2.524-1.513 4.069-.431 1.655-.683 3.418-.755 4.965-.072 1.654.071 2.777.363 3.47.219.511.516.814.894.928.415.15.934.035 1.508-.181h.001c1.231-.47 2.709-1.626 4.181-2.99 1.386-1.279 3.776-1.96 6.174-1.96 2.398 0 4.786.681 6.136 2.03l.001.001c1.437 1.366 2.915 2.484 4.181 2.991h.001c.579.217 1.094.293 1.505.181Zm-18.035-3.283c-1.471 1.364-2.943 2.513-4.164 2.98l4.164-2.98Z" fill="#000" stroke="#64FC4B" stroke-width=".10821"/><path d="m207.166 271.6-.045-.032c-.154.154-.231.348-.231.577 0 .233.116.426.231.541.154.154.348.231.577.231h.502c.363 0 .628.297.628.628v.502c0 .229.077.423.231.577.155.154.348.231.577.231.229 0 .423-.077.577-.231.154-.154.231-.348.231-.577v-.466c0-.364.297-.628.628-.628h.503c.228 0 .422-.077.576-.232.155-.154.232-.347.232-.576 0-.229-.077-.423-.232-.577-.154-.154-.348-.231-.576-.231h-.503c-.363 0-.628-.297-.628-.628v-.503c0-.193-.077-.384-.19-.535l-.005-.006-.02-.02-.012-.011-.004-.004-3.047 1.97Zm0 0 .013-.014-.013.014Zm4.498-1.533.004.046.046.004c.486.034.906.277 1.259.595.349.35.594.874.594 1.433s-.21 1.048-.595 1.433l-.002.002c-.313.348-.766.558-1.256.593l-.046.003-.004.047c-.034.486-.277.905-.595 1.259-.35.349-.874.593-1.433.593-.56 0-1.048-.209-1.433-.594l-.002-.002c-.348-.313-.558-.766-.593-1.256l-.003-.047-.047-.003c-.525-.035-.943-.244-1.294-.595-.349-.349-.594-.874-.594-1.433 0-.56.209-1.049.594-1.434l.035-.035c.352-.316.771-.524 1.259-.559l.047-.004.003-.046c.035-.488.279-.943.595-1.258.349-.35.874-.595 1.433-.595.56 0 1.049.21 1.434.595l.036.036c.313.313.523.768.558 1.222ZM223.762 269.596c0 .664-.538 1.203-1.202 1.203-.664 0-1.203-.539-1.203-1.203s.539-1.202 1.203-1.202 1.202.538 1.202 1.202ZM223.762 274.694c0 .664-.538 1.202-1.202 1.202-.664 0-1.203-.538-1.203-1.202 0-.664.539-1.202 1.203-1.202s1.202.538 1.202 1.202ZM221.214 272.145c0 .664-.539 1.202-1.203 1.202s-1.202-.538-1.202-1.202c0-.664.538-1.202 1.202-1.202.664 0 1.203.538 1.203 1.202ZM226.31 272.145c0 .664-.538 1.202-1.202 1.202-.664 0-1.202-.538-1.202-1.202 0-.664.538-1.202 1.202-1.202.664 0 1.202.538 1.202 1.202Z" fill="#000" stroke="#64FC4B" stroke-width=".10821"/><path d="M260.622 219.147c1.052.607 1.699 1.729 1.699 2.943v21.559c0 1.213-.647 2.335-1.699 2.942l-18.67 10.78c-1.052.606-2.347.606-3.398 0l-18.671-10.78c-1.051-.607-1.698-1.729-1.698-2.942V222.09c0-1.214.647-2.336 1.698-2.943l18.671-10.779c1.051-.607 2.346-.607 3.398 0l18.67 10.779Z" fill="url(#k)"/><path d="m235.36 235.231.091.089v-11.182c0-1.711 1.516-3.11 3.389-3.11h9c1.873 0 3.389 1.399 3.389 3.11v14.077c-.001.004-.001.008-.001.013v.003c0 .035.001.071.001.106.001 1.146-.395 2.257-1.12 3.144-.724.887-1.734 1.497-2.857 1.725-1.122.229-2.29.062-3.303-.472-1.014-.534-1.812-1.402-2.259-2.457-.447-1.056-.515-2.233-.193-3.332.321-1.1 1.014-2.055 1.959-2.702.945-.648 2.085-.949 3.227-.852 1.141.097 2.215.586 3.037 1.383l.092.089V224.138c0-.941-.893-1.693-1.972-1.693h-9c-1.079 0-1.972.752-1.972 1.693l.001 14.503c0 .005-.001.009-.001.013s-.001.009-.001.016v.004c.001.039.002.079.002.119 0 1.146-.396 2.257-1.12 3.144-.725.888-1.734 1.497-2.857 1.726-1.123.228-2.29.061-3.304-.473-1.014-.534-1.812-1.402-2.259-2.457-.447-1.055-.515-2.232-.193-3.332.322-1.1 1.014-2.054 1.959-2.702.945-.648 2.085-.948 3.227-.852 1.142.097 2.215.586 3.038 1.384Zm-3.46 7.114c.941-.001 1.844-.375 2.51-1.041.666-.666 1.04-1.569 1.041-2.51v-.001c0-.702-.208-1.389-.598-1.973-.39-.584-.945-1.039-1.594-1.308-.649-.269-1.363-.339-2.052-.202-.689.137-1.322.475-1.819.972-.497.497-.835 1.13-.972 1.819-.137.689-.067 1.403.202 2.052s.724 1.203 1.308 1.594c.585.39 1.271.598 1.974.598Zm14.36-.456h.054v-.001c.922-.015 1.803-.387 2.456-1.041.666-.665 1.041-1.568 1.042-2.51 0-.702-.208-1.389-.599-1.973-.39-.584-.945-1.039-1.594-1.308-.649-.269-1.363-.339-2.052-.202-.689.137-1.322.475-1.818.972-.497.497-.835 1.129-.972 1.818-.137.689-.067 1.403.202 2.052s.724 1.204 1.308 1.594c.584.391 1.271.599 1.973.599Z" fill="#000" stroke="#64FC4B" stroke-width=".10821"/><path d="M285.685 260.08c1.051.607 1.699 1.728 1.699 2.942v21.559c0 1.214-.648 2.336-1.699 2.943l-18.671 10.779c-1.051.607-2.346.607-3.397 0l-18.671-10.779c-1.051-.607-1.699-1.729-1.699-2.943v-21.559c0-1.214.648-2.335 1.699-2.942l18.671-10.78c1.051-.607 2.346-.607 3.397 0l18.671 10.78Z" fill="url(#l)"/><g clip-path="url(#m)"><path d="M258.692 278.487c.098.096.23.149.367.149.033 0 .065-.003.097-.008l4.882-.901c.106-.019.202-.07.278-.146l11.741-11.74-17.365 12.646Zm0 0-.006-.005c-.06-.06-.105-.135-.13-.216-.026-.082-.031-.168-.016-.252l.901-4.884c.019-.105.07-.202.145-.277l11.742-11.742c.377-.376.888-.587 1.42-.587.533 0 1.044.211 1.421.587l-15.477 17.376Zm4.957 2.892c-1.52 1.036-3.45 1.8-5.434 2.154-1.012.18-1.848.22-2.496.18-.647-.04-1.112-.16-1.377-.305m9.307-2.029-9.498 1.757m9.498-1.757c.43-.293.911-.661 1.419-1.051.979-.75 1.925-1.475 2.78-1.912.858-.438 1.606-.577 2.201-.187.51.333.783.983.803 2.059.019 1.075-.215 2.562-.705 4.548l.052.013m-6.55-3.47 6.55 3.47m-15.857-1.441.026-.047-.025.047h-.001Zm0 0c-.051-.028-.111-.065-.157-.108-.045-.04-.09-.097-.088-.165m0 0 .054.001m-.054-.001.054.001m-.054-.001c.001-.04.03-.305.539-.789.509-.483 1.503-1.189 3.445-2.112.124-.061.219-.169.264-.3.046-.131.038-.274-.022-.399-.059-.125-.165-.222-.295-.269-.13-.048-.274-.042-.4.015-1.535.73-2.676 1.409-3.437 2.047-.763.639-1.133 1.228-1.149 1.776l-.054-.001.054.002c-.008.289.08.839.793 1.229h.001c.454.249 1.111.395 1.901.435.788.039 1.703-.028 2.672-.202 1.937-.347 4.08-1.121 5.834-2.315.454-.31.945-.687 1.467-1.087h.001c.814-.625 1.66-1.274 2.403-1.69l.026.047-.026-.047c.467-.262.781-.368.99-.401.21-.034.318.006.368.038m-15.321 4.024 15.357 2.086c-.067-.017-.13-.046-.186-.087-.056-.041-.103-.093-.139-.152-.036-.06-.06-.126-.07-.194-.011-.069-.007-.139.009-.206.572-2.32.701-3.656.668-4.426-.032-.768-.227-.985-.318-1.045m0 0-.03.046.029-.046h.001Zm.727 5.737-.052-.013c-.028.115-.094.216-.187.289m.239-.276-.239.276m0 0c-.093.073-.207.112-.325.112l.325-.112Zm1.244-22.326-.036.04 3.161 3.16.038.039.038-.039.906-.905c.178-.179.278-.422.278-.674 0-.253-.1-.496-.278-.675l-1.888-1.888v-.001c-.179-.178-.421-.278-.674-.278-.253 0-.496.1-.675.278v.001l-.906.906.036.036Zm.387 2.032.053-.053-.06-.03-1.162-1.162-.038-.038-.039.038-9.601 9.601-.038.038.038.039 1.169 1.168.038.038.038-.038 9.602-9.601Zm-7.686 11.593.038.038.038-.038 9.601-9.602.039-.038-.039-.038-1.169-1.168-.038-.039-.038.039-9.601 9.601-.039.038.039.038 1.169 1.169Zm-4.173.946-.028.084.09-.017 2.964-.546.102-.019-.073-.073-2.418-2.418-.073-.073-.018.102-.546 2.96Zm14.437-16.259 1.888 1.887c.376.378.587.889.587 1.421 0 .533-.211 1.044-.587 1.422l-1.888-4.73Z" fill="#000" stroke="#64FC4B" stroke-width=".10821"/></g><path d="M223.255 158.923h10.055v1.238h-10.055v-1.238Zm1.09 1.977h7.931v1.193h-7.931V160.9Zm-.931 1.761h9.76v2.431h-1.375v-1.215h-7.079v1.215h-1.306v-2.431Zm4.101-4.636h1.421v3.534h-1.421v-3.534Zm1.364 6.215h1.375v2.67c0 .364.068.409.465.409h1.148c.375 0 .454-.181.489-1.352.284.216.863.432 1.227.512-.148 1.647-.5 2.067-1.58 2.067h-1.465c-1.33 0-1.659-.386-1.659-1.613v-2.693Zm-2.807-.011h1.421c-.171 2.295-.671 3.749-3.807 4.499-.125-.363-.466-.897-.75-1.181 2.727-.534 3-1.546 3.136-3.318Zm13.135-5.693c-.159.557-.398 1.727-.466 2.364.545-.875 1.545-1.841 2.818-1.841 1.579 0 2.806 1.557 2.806 4.056 0 3.216-1.965 4.738-4.976 5.295l-.864-1.318c2.534-.386 4.306-1.227 4.306-3.977 0-1.749-.59-2.727-1.533-2.727-1.341 0-2.523 2.023-2.568 3.511-.023.318-.012.682.045 1.205l-1.397.102c-.069-.443-.137-1.136-.137-1.898 0-1.068.148-2.465.318-3.647.046-.42.08-.875.091-1.181l1.557.056Zm17.282-.545.988 1.125c-2.341.602-5.613.886-8.396.977-.035-.341-.205-.898-.33-1.193 2.738-.114 5.874-.409 7.738-.909Zm-7.636 3.227h8.988v1.307h-8.988v-1.307Zm-.784 2.647h10.442v1.33h-10.442v-1.33Zm4.522-4.272h1.421v7.465c0 .807-.205 1.17-.75 1.375-.546.216-1.375.25-2.534.238-.091-.386-.352-.999-.557-1.352.841.034 1.795.023 2.057.023.261 0 .363-.08.363-.307v-7.442Z" fill="#42FF00"/><circle cx="113.35" cy="113.35" r="113.35" fill="#00E0FF" fill-opacity=".05"/><path fill-rule="evenodd" clip-rule="evenodd" d="M210.702 126.8c-6.664 48.081-47.932 85.1-97.847 85.1-2.81 0-5.593-.117-8.344-.347-.302 2.595-2.508 4.61-5.1842 4.61-2.8829 0-5.22-2.337-5.22-5.22 0-.275.0212-.545.0621-.808-45.6239-8.734-80.101-48.852-80.101-97.022 0-15.1274 3.4-29.4603 9.4775-42.2766-1.8559-1.1156-3.0976-3.1488-3.0976-5.4719 0-3.5236 2.8564-6.3799 6.3799-6.3799 1.0513 0 2.0432.2542 2.9176.7047 17.5792-27.2912 48.234-45.3641 83.1097-45.3641 54.559 0 98.788 44.2287 98.788 98.7878 0 1.963-.057 3.912-.17 5.847 1.569.561 2.692 2.061 2.692 3.824 0 2.039-1.504 3.727-3.463 4.016Zm-1.172.003c-6.657 47.437-47.403 83.937-96.675 83.937-2.808 0-5.589-.118-8.337-.351-.277-2.623-2.495-4.666-5.1912-4.666-2.2011 0-4.0841 1.362-4.8515 3.29-45.1313-8.598-79.2474-48.265-79.2474-95.9 0-14.9465 3.3586-29.1083 9.3623-41.772.6963.2608 1.4502.4034 2.2375.4034 3.5235 0 6.3799-2.8564 6.3799-6.3799 0-2.0564-.9729-3.8856-2.4835-5.0523 17.3732-26.9683 47.6666-44.827 82.1309-44.827 53.918 0 97.628 43.7093 97.628 97.6278 0 1.885-.054 3.758-.159 5.617-.072-.004-.145-.006-.219-.006-2.242 0-4.06 1.818-4.06 4.06 0 2.047 1.515 3.74 3.485 4.019Z" fill="url(#n)"/><rect x="92.5195" y="53.0225" width="37.3325" height="1.0821" rx=".54105" fill="url(#o)"/><path d="M50.623 66.2491c.2029.3003.495.8116.6411 1.1119l-.6492.2759c-.1624-.3246-.414-.8116-.6331-1.12l.6412-.2678Zm.9576-.3652c.2192.3003.5113.8197.6574 1.1037l-.6411.276c-.1705-.3409-.4302-.8116-.6574-1.12l.6411-.2597Zm-3.6521.7548c-.0892.211-.2029.495-.2678.6655-.1461.4057-.3895 1.0063-.6005 1.4202-.3247.6412-.8765 1.4284-1.4122 1.8991l-1.0226-.6168c.5762-.4301 1.1038-1.1605 1.4122-1.6718.2191-.3734.3652-.7954.4707-1.1119.0893-.2678.1542-.5762.1704-.8278l1.2498.2435Zm-1.2823 1.2579h4.2933c.2029 0 .5762-.0162.844-.0568v1.1037c-.3084-.0243-.6574-.0243-.844-.0243H46.557l.0892-1.0226Zm3.1733.5843c-.0568 2.3942-.909 3.9768-2.4753 4.9669l-1.0956-.7385c.2921-.1218.5762-.2841.7629-.4464.9252-.7061 1.6475-1.8261 1.6799-3.782h1.1281Zm4.2121.5681c.3003.0244.8846.0569 1.3066.0569h4.3582c.3814 0 .7385-.0406.9576-.0569v1.2823c-.1947-.0081-.6086-.0487-.9495-.0487h-4.3663c-.4545 0-.9982.0244-1.3066.0487V69.049Zm12.4392-2.3616c-.1055.2434-.2191.5437-.3409.9089-.3002.909-1.1443 3.5223-1.4933 4.3663l-1.193.0406c.4383-1.0388 1.2823-3.7008 1.5501-4.6422.1137-.4058.1542-.6655.1867-.9333l1.2904.2597Zm1.4527 2.6214c.5844.8765 1.4122 2.4753 1.7855 3.3761l-1.0956.4869c-.3652-.982-1.12-2.6619-1.6962-3.441l1.0063-.422Zm-4.561 2.3292c1.1281-.0406 3.7819-.3409 4.9181-.4951l.2354 1.0388c-1.2012.1542-3.993.4464-5.0886.56-.2029.0244-.5113.0649-.7629.0974l-.1948-1.193c.276.0081.6331 0 .8928-.0081Zm15.2819-4.3176c-.0811.1055-.2353.3003-.3084.4139-.3814.633-1.1524 1.6637-1.9559 2.2318l-.844-.6736c.6574-.3977 1.2904-1.1118 1.5014-1.5095h-4.2364c-.3328 0-.6087.0162-.9901.0568v-1.1362c.3165.0487.6573.0893.9901.0893h4.3744c.2272 0 .6736-.0325.8278-.0731l.6411.6006Zm-3.3031 1.0875c0 2.0127-.0487 3.6683-2.2562 4.8613l-.9495-.771c.2678-.0892.56-.2272.8603-.4544 1.0226-.7142 1.2173-1.5664 1.2173-2.8974 0-.2597-.0081-.4707-.0487-.7385h1.1768Zm6.6182 3.3193v-4.3906c0-.2759-.0244-.6898-.065-.9333h1.2093c-.0406.2435-.0731.6574-.0731.9333v4.1066c0 .5113.1461.6817 1.0307.6817.8522 0 1.7612-.1055 2.5646-.2678l-.0406 1.1037c-.6654.0974-1.6393.1705-2.5158.1705-1.8423 0-2.1101-.4383-2.1101-1.4041Zm5.1048-3.5628c-.0731.1137-.1867.3003-.2597.4383-.3571.6817-1.0957 1.7936-1.68 2.3698l-.8927-.5275c.5356-.4789 1.0631-1.2255 1.2904-1.6475-.4951.0973-4.2446.844-5.2753 1.0712l-.1947-1.0631c1.1037-.1299 4.9181-.8765 5.6566-1.0551.2273-.0568.4302-.1136.5763-.1947l.7791.6086Zm5.6242-.1704c.1542.3409.5519 1.404.6655 1.7773l-.9658.3328c-.1055-.3896-.4626-1.3716-.6574-1.7936l.9577-.3165Zm2.9947.5843c-.0893.2679-.138.4383-.1867.6006-.211.8197-.56 1.6637-1.1118 2.3698-.7548.982-1.7611 1.6556-2.7107 2.0208l-.8521-.8684c.8846-.2434 2.0208-.8602 2.6863-1.7043.5518-.6817.9495-1.7611 1.0388-2.7837l1.1362.3652Zm-4.8776-.1623c.2029.4139.6006 1.404.7548 1.8585l-.9901.3652c-.1299-.4301-.5438-1.5176-.7386-1.8666l.9739-.3571Zm9.2604 3.6196v-4.6665c0-.2922-.025-.6899-.0815-.982h1.2665c-.033.2921-.073.6411-.073.982 0 .8927.008 4.066.008 4.6665 0 .2273.032.7954.073 1.1281h-1.2745c.0565-.3165.0815-.8115.0815-1.1281Zm.876-3.5465c1.08.3002 2.833.9414 3.628 1.3309l-.455 1.1281c-.925-.4788-2.288-.9982-3.173-1.2904v-1.1686Zm9.455-2.1913c-.065.3003-.17.7791-.398 1.3635-.17.3976-.405.8602-.633 1.1849.219-.0974.65-.1542.926-.1542.673 0 1.184.3976 1.184 1.1524 0 .4382.025 1.3229.033 1.8342h-.974c.032-.3815.049-1.0713.041-1.5096 0-.5194-.325-.6898-.666-.6898-.446 0-.958.2678-1.266.56-.243.2434-.471.5356-.747.8927l-.868-.6493c1.039-.9576 1.664-1.8341 2.005-2.7268.162-.4383.267-.9334.292-1.3473l1.071.0893Zm-3.06.7548c.414.0568 1.015.0892 1.429.0892 1.071 0 2.54-.0568 3.717-.2678l-.008.9415c-1.145.1623-2.776.2353-3.766.2353-.333 0-.925-.0162-1.372-.0568v-.9414Zm6.428 2.3048c-.251.0731-.69.2354-.966.3409-.527.2029-1.258.4951-2.021.8846-.738.3815-1.136.7304-1.136 1.1768s.39.5681 1.177.5681c.69 0 1.599-.0893 2.313-.2353l-.032 1.0469c-.544.073-1.534.1461-2.305.1461-1.266 0-2.216-.3165-2.216-1.3635 0-1.1281 1.161-1.7936 2.135-2.2805.746-.3896 1.258-.5843 1.744-.8116.317-.1379.601-.2678.909-.422l.398.9495Zm5.154-3.1407c-.033.1542-.065.5031-.073.706-.041.6412-.065 1.5177-.065 2.2724 0 .8846.048 2.2887.048 2.7594 0 .9982-.357 1.2742-.892 1.2742-.788 0-1.908-.6818-1.908-1.542 0-.7873 1.015-1.6151 2.143-2.0127.722-.2597 1.542-.3896 2.159-.3896 1.25 0 2.24.6493 2.24 1.7692 0 .9658-.503 1.6881-1.794 2.0046-.373.0812-.738.1055-1.071.138l-.365-1.0551c.357 0 .714 0 .99-.0568.657-.1136 1.185-.4463 1.185-1.0307 0-.5599-.487-.8765-1.193-.8765-.69 0-1.404.1461-2.037.3977-.731.2759-1.25.7142-1.25 1.0632 0 .2597.381.4788.592.4788.146 0 .252-.0649.252-.349 0-.422-.041-1.5501-.041-2.5321 0-.9252.008-1.9315.008-2.3049 0-.1623-.024-.5681-.048-.7141h1.12Zm2.313.8846c.616.3003 1.558.8278 1.996 1.1362l-.495.8278c-.39-.3247-1.445-.9333-1.948-1.1768l.447-.7872Zm-4.983.4463c.478.0568.827.0568 1.119.0568.845 0 2.111-.1542 2.947-.3976l.024 1.0063c-.917.211-2.224.3571-2.938.3571-.536 0-.852-.0081-1.128-.0406l-.024-.982Zm10.948 2.5808h4.861v.8684h-4.861v-.8684Zm2.605-2.8242h.868v1.1767c0 .1948.025.2192.171.2192h.397c.138 0 .171-.0812.187-.6168.17.1298.527.2597.763.3165-.089.844-.309 1.0713-.844 1.0713h-.649c-.747 0-.893-.2516-.893-.982v-1.1849Zm-2.532-1.0145h4.764v1.6231h-.861v-.7953h-3.075v.8359h-.828v-1.6637Zm1.85 3.0353h.958v4.2039h-.958V69.325Zm-.625-2.0127h.885c-.073 1.2417-.333 1.964-1.81 2.3454-.081-.211-.3-.5356-.471-.6898 1.193-.2678 1.347-.7385 1.396-1.6556Zm1.826 3.2382c.406.7547 1.193 1.5176 1.972 1.9153-.203.1785-.503.5194-.657.7547-.812-.5112-1.591-1.4446-2.053-2.3941l.738-.2759Zm-1.412-.0812.755.2516c-.495 1.0875-1.355 2.0533-2.354 2.5646-.138-.2192-.414-.56-.617-.7386.934-.3976 1.794-1.2092 2.216-2.0776Zm-4.439-.4707c.649-.1461 1.615-.4058 2.532-.6655l.13.8765c-.836.2597-1.729.5194-2.443.7223l-.219-.9333Zm.13-2.5402h2.483v.8927H124.6v-.8927Zm.86-1.5339h.893v6.5819c0 .4544-.082.706-.333.8521-.244.1542-.593.1867-1.12.1867-.024-.2435-.138-.6412-.252-.909.292.0162.577.0162.674.0081.097 0 .138-.0243.138-.1379v-6.5819Zm10.786.4464c-.049.3408-.09.7628-.106 1.0875-.04.8765-.097 2.6863-.097 3.6926 0 .8197.487 1.0875 1.12 1.0875 1.339 0 2.183-.771 2.775-1.6556l.739.9009c-.528.7791-1.68 1.8585-3.53 1.8585-1.331 0-2.184-.5844-2.184-1.9721 0-1.0876.073-3.2139.073-3.9118 0-.3896-.032-.7792-.097-1.0957l1.307.0082Zm10.713.8765c-.114.8278-.276 1.7773-.56 2.735-.487 1.6393-1.185 2.6457-2.07 2.6457-.909 0-1.656-.9982-1.656-2.3698 0-1.8666 1.632-3.4735 3.734-3.4735 2.004 0 3.278 1.3959 3.278 3.1732 0 1.7043-1.047 2.9136-3.092 3.2301l-.616-.9577c.316-.0406.543-.0811.762-.1298 1.031-.2516 1.843-.9902 1.843-2.1832 0-1.2741-.796-2.1831-2.2-2.1831-1.72 0-2.662 1.404-2.662 2.4266 0 .8197.325 1.2174.633 1.2174.349 0 .658-.5194.999-1.6151.235-.7628.413-1.6962.495-2.5483l1.112.0325Zm8.148-.4058c-.666.9901-1.916 2.1263-3.263 2.8892-.13-.2273-.406-.5844-.625-.7873 1.412-.7304 2.727-2.0208 3.336-3.0677h1.014c.877 1.2985 2.208 2.4023 3.514 2.9704-.243.2515-.47.5762-.657.8683-1.258-.6979-2.621-1.8666-3.319-2.8729Zm.048 3.1002h2.727v.8684h-2.727v-.8684Zm-3.473 2.4996h6.939v.8765h-6.939v-.8765Zm2.986-4.2445h1.039v4.7152h-1.039v-4.7152Zm-2.102 1.404h.958v3.2869h-.958v-3.2869Zm7.905 1.2823h7.239v.7954h-7.239v-.7954Zm.016-3.644h7.191v.8035h-7.191v-.8035Zm.333 1.4528h6.55v.7628h-6.55v-.7628Zm.406 1.1199h5.762v.7061h-5.762v-.7061Zm2.354-.7304h.965v4.4556h-.965v-4.4556Zm-.707-3.1732h.909v1.7124h-.909v-1.7124Zm1.502 0h.925v1.6556h-.925v-1.6556Zm-.974 5.332.763.3409c-.771.844-2.07 1.5338-3.319 1.8585-.13-.2354-.414-.6087-.625-.8116 1.225-.2354 2.516-.771 3.181-1.3878Zm1.339-.0243c.657.6411 1.924 1.1443 3.19 1.3553-.22.2029-.512.6087-.658.8765-1.282-.3246-2.524-1.0145-3.287-1.9316l.755-.3002Zm1.502-5.2428 1.022.2435c-.26.4463-.536.8846-.747 1.1849l-.787-.2435c.187-.3328.398-.8278.512-1.1849Zm-1.072 1.7449 1.031.2353c-.219.3896-.43.7467-.601 1.0064l-.827-.2354c.146-.2921.316-.7061.397-1.0063Zm-4.098-1.4852.836-.2841c.235.349.503.836.617 1.1525l-.885.3165c-.089-.3165-.349-.8116-.568-1.1849Zm1.03 1.8179.942-.1461c.138.2273.292.5438.357.7629l-.99.1704c-.049-.211-.187-.5518-.309-.7872Zm10.064-1.2336h4.456v.771h-4.456v-.771Zm.219 1.0875h4.066v.7304h-4.066v-.7304Zm-.373 1.0794h4.756v.7954h-4.756v-.7954Zm3.279-3.084.965.2354c-.219.3652-.438.7223-.6.9577l-.763-.2192c.146-.284.316-.6898.398-.9739Zm-2.606.2841.763-.2516c.187.2759.39.6493.463.9008l-.812.2922c-.065-.2516-.243-.6492-.414-.9414Zm3.312 3.7495.73.5194c-.357.3733-.787.771-1.112 1.0307l-.625-.4789c.317-.2678.755-.7304 1.007-1.0712Zm-3.831.4626.666-.4383c.292.3003.649.7142.811.9982l-.698.487c-.146-.2922-.487-.7304-.779-1.0469Zm-.471 1.8341c.487-.2191 1.201-.5843 1.899-.9414l.252.7872c-.568.3328-1.209.6899-1.729.9739l-.422-.8197Zm2.232-4.8938h.933v5.2347c0 .4382-.073.6736-.332.8197-.268.1461-.658.1623-1.169.1623-.024-.2516-.138-.633-.252-.8603.276.0081.593.0081.69.0081.098 0 .13-.0405.13-.1298v-5.2347Zm.885 2.5971c.357 1.0875 1.071 2.0208 2.11 2.4428-.195.1786-.479.5356-.617.7872-1.055-.5843-1.745-1.7205-2.126-3.084l.633-.146Zm-5.511-2.3374h2.686v.9009h-2.686v-.9009Zm.99-1.6799h.885v7.6207h-.885v-7.6207Zm-.016 2.2967.544.1867c-.236 1.2823-.698 2.8486-1.274 3.6845-.082-.2597-.293-.633-.43-.8602.519-.7061.973-1.9803 1.16-3.011Zm.86.5925c.179.2191.844 1.2417.982 1.4689l-.503.698c-.178-.4707-.665-1.3959-.884-1.7774l.405-.3895Z" fill="#fff"/><path d="M105.847 137.885c1.051.607 1.698 1.729 1.698 2.943v21.559c0 1.214-.647 2.335-1.698 2.942l-18.6712 10.78c-1.0512.607-2.3464.607-3.3976 0l-18.6707-10.78c-1.0512-.607-1.6988-1.728-1.6988-2.942v-21.559c0-1.214.6476-2.336 1.6988-2.943l18.6707-10.779c1.0512-.607 2.3464-.607 3.3976 0l18.6712 10.779Z" fill="url(#p)"/><path d="M83.6494 143.811H80.986c-.412 0-.7463-.334-.7463-.746 0-.413.3343-.747.7463-.747h2.6634c.412 0 .7462.334.7462.747 0 .412-.3342.746-.7462.746Zm6.2147-1.493c.4119 0 .7462.334.7462.747 0 .412-.3343.746-.7462.746h-2.6635c-.4119 0-.7462-.334-.7462-.746 0-.413.3343-.747.7462-.747h2.6635Zm-6.2147 3.552c.412 0 .7462.333.7462.746 0 .412-.3342.746-.7462.746H80.986c-.412 0-.7463-.334-.7463-.746 0-.413.3343-.746.7463-.746h2.6634Zm6.2147 0c.4119 0 .7462.333.7462.746 0 .412-.3343.746-.7462.746h-2.6635c-.4119 0-.7462-.334-.7462-.746 0-.413.3343-.746.7462-.746h2.6635Zm-6.2147 3.551c.412 0 .7462.333.7462.746s-.3342.746-.7462.746H80.986c-.412 0-.7463-.333-.7463-.746s.3343-.746.7463-.746h2.6634Zm6.2147 0c.4119 0 .7462.333.7462.746s-.3343.746-.7462.746h-2.6635c-.4119 0-.7462-.333-.7462-.746s.3343-.746.7462-.746h2.6635Zm-6.2147 3.551c.412 0 .7462.334.7462.746 0 .413-.3342.747-.7462.747H80.986c-.412 0-.7463-.334-.7463-.747 0-.412.3343-.746.7463-.746h2.6634Zm6.2147 0c.4119 0 .7462.334.7462.746 0 .413-.3343.747-.7462.747h-2.6635c-.4119 0-.7462-.334-.7462-.747 0-.412.3343-.746.7462-.746h2.6635Z" fill="#03114A" stroke="#3E9B96" stroke-width=".283137"/><path d="M94.1613 161.709v.142h1.0293c.412 0 .7463.333.7463.746s-.3343.746-.7463.746H75.6588c-.412 0-.7462-.333-.7462-.746s.3342-.746.7462-.746h1.0294v-20.562c0-1.39 1.1316-2.521 2.5219-2.521h12.4293c1.3903 0 2.5219 1.131 2.5219 2.521v20.42Zm-10.6538 0v.142h3.8344v-3.835h-3.8344v3.693Zm5.3269 0v.142h3.8344v-20.562c0-.568-.4621-1.029-1.0294-1.029H79.2101c-.5673 0-1.0294.461-1.0294 1.029v20.562h3.8344v-3.693c0-.901.7329-1.634 1.634-1.634h3.5512c.9011 0 1.6341.733 1.6341 1.634v3.551Z" fill="#03114A" stroke="#3E9B96" stroke-width=".283137"/><path d="M129.533 96.3268c1.051.6069 1.698 1.7286 1.698 2.9424v21.5588c0 1.214-.647 2.336-1.698 2.943l-18.671 10.779c-1.051.607-2.347.607-3.398 0l-18.6704-10.779c-1.0513-.607-1.6989-1.729-1.6989-2.943V99.2692c0-1.2138.6476-2.3355 1.6989-2.9424l18.6704-10.7796c1.051-.6069 2.347-.6069 3.398 0l18.671 10.7796Z" fill="url(#q)"/><path d="M106.346 121.278c-.035 0-.075-.004-.115-.013-.231-.062-.364-.297-.302-.528l.43-1.576c.063-.231.302-.364.529-.302.23.062.364.297.302.528l-.431 1.576c-.049.187-.222.315-.413.315ZM111.659 121.278c-.191 0-.364-.124-.413-.315l-.43-1.576c-.063-.231.071-.466.301-.528.231-.062.466.071.529.302l.43 1.576c.062.231-.071.466-.302.528-.04.009-.075.013-.115.013Z" fill="#272727"/><path d="M119.592 119.703h-2.894c-.24 0-.43-.191-.43-.431s.19-.43.43-.43h2.894c.338 0 .613-.276.613-.613v-.546c0-.24.191-.431.431-.431.239 0 .43.191.43.431v.546c0 .808-.661 1.474-1.474 1.474Zm-5.819-.005H98.4137c-.8079 0-1.4694-.661-1.4694-1.473v-14.587c0-.813.6615-1.474 1.4694-1.474h3.6443c.24 0 .431.191.431.431 0 .239-.191.43-.431.43h-3.6443c-.3374 0-.6082.275-.6082.613v14.582c0 .337.2752.613.6082.613h15.3543c.24 0 .431.191.431.43 0 .24-.191.435-.426.435Zm.306-3.515H98.7777c-.2397 0-.4306-.191-.4306-.431v-11.839c0-.24.1909-.431.4306-.431h3.2713c.24 0 .431.191.431.431s-.191.431-.431.431h-2.8407v10.982h14.8707c.24 0 .431.191.431.43 0 .236-.191.427-.431.427Zm5.154-1.381c-.24 0-.431-.191-.431-.431v-10.032h-2.841c-.239 0-.43-.191-.43-.43 0-.24.191-.431.43-.431h3.272c.24 0 .43.191.43.431v10.462c0 .24-.19.431-.43.431Zm1.403-.058c-.24 0-.431-.191-.431-.43v-10.676c0-.338-.275-.613-.613-.613h-3.64c-.239 0-.43-.191-.43-.43 0-.24.191-.431.43-.431h3.64c.813 0 1.474.661 1.474 1.474v10.671c0 .24-.191.435-.43.435ZM113.226 122.845h-8.447c-.24 0-.431-.191-.431-.43v-.684c0-.724.591-1.314 1.314-1.314h6.681c.723 0 1.314.59 1.314 1.314v.684c0 .235-.191.43-.431.43Zm-8.017-.861h7.587v-.253c0-.249-.205-.453-.453-.453h-6.681c-.248 0-.453.204-.453.453v.253Z" fill="#272727"/><path d="M109.004 118.58c-.604 0-1.092-.489-1.092-1.092 0-.604.488-1.092 1.092-1.092.604 0 1.092.488 1.092 1.092 0 .603-.493 1.092-1.092 1.092Zm0-1.323c-.129 0-.231.102-.231.231 0 .128.102.23.231.23s.231-.102.231-.23c0-.125-.102-.231-.231-.231ZM115.032 120.785c-.461 0-.883-.168-1.229-.501-.058-.049-.662-.626-.489-2.064l.049-.396c.031-.235.058-.47.084-.71.027-.226.067-.488.107-.746.031-.213.067-.421.089-.608.097-.821.475-1.567 1.056-2.09.626-.569 1.909-1.266 3.552.275h2.144c1.642-1.541 2.925-.844 3.551-.275.581.528.959 1.269 1.056 2.09.023.187.054.395.089.604.04.257.08.515.107.741.013.138.035.28.053.418.031.235.062.475.084.714.111 1.385-.417 1.971-.475 2.033-.435.413-.963.577-1.54.489-.528-.08-1.012-.364-1.367-.804l-1.496-1.851h-2.269l-1.496 1.851c-.355.44-.839.724-1.367.804-.097.017-.195.026-.293.026Zm1.239-6.907c-.347 0-.675.142-.995.431-.43.386-.705.941-.781 1.558-.022.195-.058.417-.093.639-.04.244-.076.493-.102.71-.027.244-.058.484-.085.719l-.048.391c-.116.972.222 1.332.226 1.336.226.218.493.298.808.249.315-.049.608-.222.826-.493l1.624-2.011c.08-.102.204-.16.333-.16h2.677c.129 0 .253.058.333.16l1.625 2.011c.217.271.51.444.825.493.32.049.577-.031.804-.249-.005 0 .302-.395.226-1.354-.018-.222-.049-.444-.075-.666-.018-.146-.04-.293-.058-.439-.022-.218-.062-.457-.098-.701-.035-.218-.066-.44-.093-.635-.075-.617-.351-1.172-.781-1.558-.75-.679-1.567-.56-2.499.373-.08.08-.191.124-.307.124h-2.49c-.115 0-.222-.044-.306-.124-.524-.538-1.026-.804-1.496-.804Z" fill="#272727"/><path d="M122.312 117.678c-.87 0-1.576-.706-1.576-1.576 0-.87.706-1.576 1.576-1.576.87 0 1.576.706 1.576 1.576-.004.87-.71 1.576-1.576 1.576Zm0-2.286c-.395 0-.714.32-.714.715 0 .395.319.714.714.714.395 0 .715-.319.715-.714-.005-.395-.324-.715-.715-.715ZM116.324 117.678c-.87 0-1.575-.706-1.575-1.576 0-.87.705-1.576 1.575-1.576s1.576.706 1.576 1.576c-.004.87-.71 1.576-1.576 1.576Zm0-2.286c-.395 0-.714.32-.714.715 0 .395.319.714.714.714.395 0 .715-.319.715-.714 0-.395-.324-.715-.715-.715ZM109.004 110.705c-4.088 0-7.413-3.325-7.413-7.413 0-4.0888 3.325-7.4092 7.413-7.4092s7.409 3.3249 7.409 7.4092c.004 4.088-3.321 7.413-7.409 7.413Zm0-13.961c-3.613 0-6.552 2.9386-6.552 6.548 0 3.613 2.939 6.552 6.552 6.552 3.613 0 6.548-2.939 6.548-6.552.004-3.6094-2.935-6.548-6.548-6.548Z" fill="#272727"/><path d="M109.004 110.705c-2.259 0-4.03-3.254-4.03-7.413 0-4.1554 1.771-7.4092 4.03-7.4092 2.26 0 4.031 3.2538 4.031 7.4092 0 4.159-1.771 7.413-4.031 7.413Zm0-13.961c-1.718 0-3.169 3.0008-3.169 6.548 0 3.551 1.451 6.552 3.169 6.552s3.17-3.001 3.17-6.552c0-3.5472-1.452-6.548-3.17-6.548Z" fill="#272727"/><path d="M109.002 100.344c-2.073 0-4.066-.4661-5.46-1.2829-.204-.1198-.275-.3862-.155-.5904.12-.2041.382-.2752.59-.1553 1.266.7413 3.099 1.1675 5.025 1.1675 1.931 0 3.76-.4262 5.025-1.1675.205-.1199.471-.0533.591.1509s.053.4705-.151.5904c-1.398.8212-3.387 1.2873-5.465 1.2873ZM114.242 108.33c-.075 0-.147-.018-.218-.058-1.265-.737-3.094-1.163-5.025-1.163-1.922 0-3.755.426-5.025 1.163-.204.12-.47.049-.59-.155-.12-.204-.049-.471.155-.591 1.399-.812 3.387-1.278 5.456-1.278 2.077 0 4.066.466 5.46 1.278.204.12.275.382.155.591-.075.133-.217.213-.368.213Z" fill="#272727"/><path d="M109.005 110.705c-.24 0-.431-.191-.431-.431V96.3134c0-.2397.191-.4306.431-.4306s.43.1909.43.4306v13.9606c0 .24-.19.431-.43.431Z" fill="#272727"/><path d="M115.987 103.726h-13.961c-.24 0-.431-.19-.431-.43s.191-.431.431-.431h13.961c.239 0 .43.191.43.431 0 .235-.195.43-.43.43Z" fill="#272727"/><path d="M154.596 137.259c1.051.607 1.698 1.729 1.698 2.943v21.559c0 1.214-.647 2.335-1.698 2.942l-18.671 10.78c-1.051.607-2.347.607-3.398 0l-18.67-10.78c-1.052-.607-1.699-1.728-1.699-2.942v-21.559c0-1.214.647-2.336 1.699-2.943l18.67-10.779c1.051-.607 2.347-.607 3.398 0l18.671 10.779Z" fill="url(#r)"/><path d="m137.134 153.706 3.521-2.711c.187-.145.222-.414.078-.601-.145-.187-.414-.223-.601-.078l-3.233 2.49-1.103-1.146c-.279-.291-.655-.453-1.057-.456-.424-.007-.782.151-1.066.435l-1.091 1.091-3.229-2.422c-.189-.142-.457-.103-.599.086-.142.189-.104.457.085.599l3.502 2.626.443.443c.271.271.387.656.312 1.031l-1.139 5.696c-.046.232.104.457.336.504.028.006.056.009.084.009.2 0 .379-.141.419-.345l1.14-5.696c.131-.655-.073-1.33-.546-1.804l-.162-.162 1.051-1.05c.12-.121.274-.194.451-.185.171.002.33.07.448.194l1.065 1.107-.086.079c-.51.47-.743 1.183-.607 1.863l1.131 5.654c.041.204.22.344.419.344.028 0 .056-.002.085-.008.232-.047.382-.272.335-.504l-1.131-5.655c-.077-.388.056-.795.347-1.063l.398-.365Z" fill="#000"/><path d="M144.263 161.301h-19.049c-.236 0-.428-.191-.428-.428v-4.122c0-3.382 2.306-6.258 5.609-6.992 2.842-.632 5.845-.632 8.687 0 3.302.734 5.609 3.609 5.609 6.992v4.122c0 .237-.192.428-.428.428Zm-18.62-.856h18.191v-3.694c0-2.978-2.03-5.51-4.937-6.156-2.721-.604-5.596-.604-8.316 0-2.908.646-4.938 3.178-4.938 6.156v3.694ZM140.231 142.906c.002-.038.002-.075-.006-.111-.158-2.893-2.555-5.2-5.486-5.2-2.938 0-5.338 2.316-5.488 5.217-.005.03-.015.057-.014.087 0 .012.007.023.008.035-.002.054-.008.108-.008.163 0 3.033 2.468 5.502 5.502 5.502s5.502-2.469 5.502-5.502c0-.064-.008-.127-.01-.191Zm-5.492-4.455c2.259 0 4.144 1.622 4.558 3.761-.564-.276-1.405-.8-2.099-1.706-.082-.107-.221-.162-.349-.164-.136.002-.265.072-.344.183-.012.016-1.212 1.618-6.358 1.907.324-2.247 2.256-3.981 4.592-3.981Zm0 9.291c-2.497 0-4.534-1.981-4.636-4.452 4.178-.223 6.018-1.289 6.727-1.886.949 1.065 2.026 1.579 2.549 1.782-.047 2.52-2.109 4.556-4.64 4.556Z" fill="#000"/><circle cx="50.859" cy="22.1828" r="2.1642" fill="#0FAE91"/><circle cx="67.09" cy="216.42" r="2.1642" fill="#25AF66"/><path d="M99.9958 35.5999v.7726h1.4312v-.7726h-1.4312Zm-2.5224 0v.7726h1.3862v-.7726h-1.3862Zm-2.4997 0v.7726h1.3635v-.7726h-1.3635Zm-1.2612-1.0113h9.0325v2.8065h-9.0325v-2.8065Zm1.9884 5.4993v.5453H100.7v-.5453h-4.9991Zm0 1.3634v.5568H100.7v-.5568h-4.9991Zm0-2.7269v.5568H100.7v-.5568h-4.9991Zm-1.3634-.8635h7.7945v5.0107h-7.7945v-5.0107Zm4.4993 5.6129 1.0794-.6931c1.2728.3976 2.7378.943 3.6128 1.3293l-1.488.6818c-.705-.3636-1.966-.909-3.2042-1.318Zm-2.5223-.7158 1.2498.5681c-.9544.6135-2.4656 1.1816-3.6472 1.4997-.2273-.2726-.7045-.7612-1.0113-.9998 1.2385-.2159 2.6133-.6249 3.4087-1.068Zm11.6465-7.1127c-.08.3977-.137 1.068-.137 1.3862 0 .7385 0 1.5793.068 2.4087.159 1.6362.5 2.761 1.216 2.761.546 0 .989-1.3407 1.205-2.2383l1.147 1.3748c-.761 1.9884-1.466 2.6701-2.375 2.6701-1.261 0-2.34-1.1135-2.658-4.1585-.114-1.0453-.125-2.3861-.125-3.0791 0-.3068-.012-.7954-.091-1.1476l1.75.0227Zm5.681.25c1.079 1.3066 1.954 4.1471 2.079 5.8855l-1.5.5908c-.17-1.8406-.784-4.5902-2.022-5.9991l1.443-.4772Zm12.759-1.8066.989 1.1248c-2.341.6022-5.613.8863-8.397.9772-.034-.3409-.204-.8976-.329-1.193 2.738-.1136 5.874-.4091 7.737-.909Zm-7.635 3.2268h8.987v1.3067h-8.987v-1.3067Zm-.784 2.6474h10.442v1.3293h-10.442v-1.3293Zm4.522-4.2721h1.42v7.4648c0 .8067-.204 1.1703-.75 1.3748-.545.2159-1.374.25-2.533.2386-.091-.3863-.353-.9998-.557-1.352.841.034 1.795.0227 2.056.0227.262 0 .364-.0796.364-.3068v-7.4421Z" fill="#0FF"/><defs><linearGradient id="a" x1="226.598" y1="177.019" x2="226.632" y2="178.63" gradientUnits="userSpaceOnUse"><stop stop-color="#70DD01"/><stop offset="1" stop-color="#00FFE0"/></linearGradient><linearGradient id="b" x1="342.991" y1="202.084" x2="81.664" y2="213.987" gradientUnits="userSpaceOnUse"><stop stop-color="#58AF00"/><stop offset="1" stop-color="#00AEAE"/></linearGradient><linearGradient id="c" x1="342.991" y1="202.084" x2="81.664" y2="213.987" gradientUnits="userSpaceOnUse"><stop stop-color="#58AF00"/><stop offset="1" stop-color="#00AEAE"/></linearGradient><linearGradient id="d" x1="342.991" y1="202.084" x2="81.664" y2="213.987" gradientUnits="userSpaceOnUse"><stop stop-color="#58AF00"/><stop offset="1" stop-color="#00AEAE"/></linearGradient><linearGradient id="e" x1="342.991" y1="202.084" x2="81.664" y2="213.987" gradientUnits="userSpaceOnUse"><stop stop-color="#58AF00"/><stop offset="1" stop-color="#00AEAE"/></linearGradient><linearGradient id="f" x1="333.522" y1="280.807" x2="104.929" y2="207.765" gradientUnits="userSpaceOnUse"><stop stop-color="#58AF00"/><stop offset="1" stop-color="#00AEAE"/></linearGradient><linearGradient id="g" x1="333.522" y1="280.807" x2="104.929" y2="207.765" gradientUnits="userSpaceOnUse"><stop stop-color="#58AF00"/><stop offset="1" stop-color="#00AEAE"/></linearGradient><linearGradient id="h" x1="333.522" y1="280.807" x2="104.929" y2="207.765" gradientUnits="userSpaceOnUse"><stop stop-color="#58AF00"/><stop offset="1" stop-color="#00AEAE"/></linearGradient><linearGradient id="i" x1="333.522" y1="280.807" x2="104.929" y2="207.765" gradientUnits="userSpaceOnUse"><stop stop-color="#58AF00"/><stop offset="1" stop-color="#00AEAE"/></linearGradient><linearGradient id="j" x1="225.218" y1="247.365" x2="203.418" y2="302.617" gradientUnits="userSpaceOnUse"><stop stop-color="#70DD01"/><stop offset="1" stop-color="#00FFE0"/></linearGradient><linearGradient id="k" x1="248.903" y1="205.806" x2="227.103" y2="261.058" gradientUnits="userSpaceOnUse"><stop stop-color="#70DD01"/><stop offset="1" stop-color="#00FFE0"/></linearGradient><linearGradient id="l" x1="273.966" y1="246.739" x2="252.166" y2="301.991" gradientUnits="userSpaceOnUse"><stop stop-color="#70DD01"/><stop offset="1" stop-color="#00FFE0"/></linearGradient><linearGradient id="n" x1="-8.11518" y1="139.862" x2="231.841" y2="115.244" gradientUnits="userSpaceOnUse"><stop stop-color="#00AEAE"/><stop offset="1" stop-color="#58AF00"/></linearGradient><linearGradient id="o" x1="97.1861" y1="53.1171" x2="97.2232" y2="54.727" gradientUnits="userSpaceOnUse"><stop stop-color="#01DDA8"/><stop offset="1" stop-color="#00FFE0"/></linearGradient><linearGradient id="p" x1="72.7359" y1="129.539" x2="98.2182" y2="173.676" gradientUnits="userSpaceOnUse"><stop stop-color="#00EFE1"/><stop offset="1" stop-color="#4454DE"/></linearGradient><linearGradient id="q" x1="96.4219" y1="87.9804" x2="121.904" y2="132.117" gradientUnits="userSpaceOnUse"><stop stop-color="#00EFE1"/><stop offset="1" stop-color="#4454DE"/></linearGradient><linearGradient id="r" x1="121.485" y1="128.913" x2="146.967" y2="173.05" gradientUnits="userSpaceOnUse"><stop stop-color="#00EFE1"/><stop offset="1" stop-color="#4454DE"/></linearGradient><clipPath id="m"><path fill="#fff" d="M252.432 260.47h24.8221v24.8221H252.432z"/></clipPath></defs></svg>