<svg xmlns="http://www.w3.org/2000/svg" width="752" height="419" viewBox="0 0 752 419"><defs><linearGradient id="_grade" x1="-17.468" y1="189.552" x2="426.032" y2="235.052" gradientTransform="matrix(1 0 0 -1 0 424)" gradientUnits="userSpaceOnUse"><stop offset="0" stop-color="#00aeae"/><stop offset="1" stop-color="#58af00"/></linearGradient><linearGradient id="_grade_2" x1="546.47" y1="328.42" x2="546.533" y2="325.444" gradientTransform="matrix(1 0 0 -1 0 424)" gradientUnits="userSpaceOnUse"><stop offset="0" stop-color="#70dd01"/><stop offset="1" stop-color="#00ffe0"/></linearGradient><linearGradient id="_grade_3" x1="205.467" y1="326.424" x2="205.536" y2="323.449" gradientTransform="matrix(1 0 0 -1 0 424)" gradientUnits="userSpaceOnUse"><stop offset="0" stop-color="#01dda8"/><stop offset="1" stop-color="#00ffe0"/></linearGradient><linearGradient id="_grade_4" x1="736.132" y1="223.717" x2="253.132" y2="201.717" gradientTransform="matrix(1 0 0 -1 0 424)" gradientUnits="userSpaceOnUse"><stop offset="0" stop-color="#58af00"/><stop offset="1" stop-color="#00aeae"/></linearGradient><linearGradient id="_grade_5" x1="744.039" y1="50.111" x2="261.039" y2="28.111" gradientTransform="matrix(1 0 0 -1 0 424)" gradientUnits="userSpaceOnUse"><stop offset="0" stop-color="#58af00"/><stop offset="1" stop-color="#00aeae"/></linearGradient><linearGradient id="_grade_6" x1="729.353" y1="372.541" x2="246.353" y2="350.541" gradientTransform="matrix(1 0 0 -1 0 424)" gradientUnits="userSpaceOnUse"><stop offset="0" stop-color="#58af00"/><stop offset="1" stop-color="#00aeae"/></linearGradient><linearGradient id="_grade_7" x1="741.621" y1="103.204" x2="258.621" y2="81.204" gradientTransform="matrix(1 0 0 -1 0 424)" gradientUnits="userSpaceOnUse"><stop offset="0" stop-color="#58af00"/><stop offset="1" stop-color="#00aeae"/></linearGradient><linearGradient id="_grade_8" x1="722.898" y1="157.589" x2="300.398" y2="292.589" gradientTransform="matrix(1 0 0 -1 0 424)" gradientUnits="userSpaceOnUse"><stop offset="0" stop-color="#58af00"/><stop offset="1" stop-color="#00aeae"/></linearGradient><linearGradient id="_grade_9" x1="678.965" y1="20.095" x2="256.465" y2="155.095" gradientTransform="matrix(1 0 0 -1 0 424)" gradientUnits="userSpaceOnUse"><stop offset="0" stop-color="#58af00"/><stop offset="1" stop-color="#00aeae"/></linearGradient><linearGradient id="_grade_10" x1="776.611" y1="325.691" x2="354.111" y2="460.691" gradientTransform="matrix(1 0 0 -1 0 424)" gradientUnits="userSpaceOnUse"><stop offset="0" stop-color="#58af00"/><stop offset="1" stop-color="#00aeae"/></linearGradient><linearGradient id="_grade_11" x1="674.137" y1="4.985" x2="251.637" y2="139.985" gradientTransform="matrix(1 0 0 -1 0 424)" gradientUnits="userSpaceOnUse"><stop offset="0" stop-color="#58af00"/><stop offset="1" stop-color="#00aeae"/></linearGradient><linearGradient id="_grade_12" x1="134.436" y1="184.58" x2="181.534" y2="103.004" gradientTransform="matrix(1 0 0 -1 0 424)" gradientUnits="userSpaceOnUse"><stop offset="0" stop-color="#00efe1"/><stop offset="1" stop-color="#4454de"/></linearGradient><linearGradient id="_grade_13" x1="178.214" y1="261.391" x2="225.311" y2="179.815" gradientTransform="matrix(1 0 0 -1 0 424)" gradientUnits="userSpaceOnUse"><stop offset="0" stop-color="#00efe1"/><stop offset="1" stop-color="#4454de"/></linearGradient><linearGradient id="_grade_14" x1="224.535" y1="185.736" x2="271.633" y2="104.16" gradientTransform="matrix(1 0 0 -1 0 424)" gradientUnits="userSpaceOnUse"><stop offset="0" stop-color="#00efe1"/><stop offset="1" stop-color="#4454de"/></linearGradient><linearGradient id="_grade_15" x1="519.067" y1="196.531" x2="478.775" y2="94.412" gradientTransform="matrix(1 0 0 -1 0 424)" gradientUnits="userSpaceOnUse"><stop offset="0" stop-color="#70dd01"/><stop offset="1" stop-color="#00ffe0"/></linearGradient><linearGradient id="_grade_16" x1="562.844" y1="273.341" x2="522.552" y2="171.222" gradientTransform="matrix(1 0 0 -1 0 424)" gradientUnits="userSpaceOnUse"><stop offset="0" stop-color="#70dd01"/><stop offset="1" stop-color="#00ffe0"/></linearGradient><linearGradient id="_grade_17" x1="609.166" y1="197.687" x2="568.874" y2="95.568" gradientTransform="matrix(1 0 0 -1 0 424)" gradientUnits="userSpaceOnUse"><stop offset="0" stop-color="#70dd01"/><stop offset="1" stop-color="#00ffe0"/></linearGradient><clipPath id="clippath"><path stroke-width="0" fill="none" d="M566.122 250.412H612v45.878h-45.878z"/></clipPath><style>.cls-21,.cls-25,.cls-29{stroke-width:0}.cls-31{stroke:#64fc4b;stroke-width:.2px}.cls-32{fill:#03114a;stroke:#3e9b96;stroke-width:.523px}.cls-25{fill:#272727}.cls-29{fill:#fff}</style></defs><circle cx="542.5" cy="209.5" r="209.5" fill="rgba(128,255,0,.05)" stroke-width="0"/><circle cx="209.5" cy="209.5" r="209.5" fill="rgba(0,224,255,.05)" stroke-width="0"/><path class="cls-29" d="m472.49 129.575 1.905.42c-.51 1.41-1.11 2.97-1.62 3.975l-1.59-.42c.48-1.065 1.035-2.745 1.305-3.975Zm2.37 1.89 1.41-.705c.945 1.2 1.92 2.79 2.355 3.87l-1.515.825c-.39-1.08-1.365-2.775-2.25-3.99Zm-.81-8.385c-.825 1.26-2.22 2.895-3.72 3.975-.225-.465-.645-1.14-.99-1.53 1.53-1.005 3.075-2.82 3.81-4.155h1.665c1.05 1.47 2.55 3.075 4.005 3.915-.36.435-.795 1.08-1.08 1.62-1.335-.96-2.835-2.595-3.69-3.825Zm-2.61 2.805h5.445v1.56h-5.445v-1.56Zm-.99 2.715h7.845v1.56h-7.845v-1.56Zm-.69 4.815c1.785-.105 4.5-.315 7.02-.51l.03 1.5c-2.385.24-4.92.465-6.765.63l-.285-1.62Zm-3.06-12.135 1.56.585c-.615 1.14-1.305 2.475-1.89 3.315l-1.2-.525c.54-.885 1.185-2.325 1.53-3.375Zm1.725 1.77 1.455.66c-1.08 1.725-2.55 3.81-3.69 5.115l-1.035-.585c1.11-1.365 2.49-3.57 3.27-5.19Zm-4.035 1.785.855-1.23c.795.69 1.725 1.635 2.115 2.325l-.93 1.395c-.36-.72-1.275-1.77-2.04-2.49Zm3.585 1.8 1.185-.495c.585 1.005 1.155 2.325 1.335 3.195l-1.275.57c-.165-.87-.675-2.235-1.245-3.27Zm-3.6 1.245c1.38-.045 3.405-.12 5.385-.21l-.015 1.425c-1.845.135-3.765.255-5.22.36l-.15-1.575Zm3.93 2.49 1.26-.405c.375.855.765 1.98.93 2.73l-1.32.465c-.15-.75-.54-1.905-.87-2.79Zm-3.285-.285 1.485.255c-.15 1.44-.48 2.94-.915 3.9-.315-.195-.99-.51-1.365-.66.435-.885.675-2.22.795-3.495Zm1.68-1.41h1.575v6.69H466.7v-6.69Zm20.355 2.445h1.785v4.2h-1.785v-4.2Zm-.555-4.86 1.62.765c-.915.735-1.935 1.515-2.73 1.995l-1.215-.675c.795-.54 1.755-1.425 2.325-2.085Zm3.165.81 1.575.87c-1.755 1.305-4.05 2.7-5.835 3.57l-1.14-.81c1.77-.915 4.02-2.43 5.4-3.63Zm-7.11 1.62 1.17-.99c1.095.555 2.595 1.425 3.345 2.07l-1.26 1.095c-.675-.63-2.115-1.56-3.255-2.175Zm7.755.915 1.26-.915c1.2.75 2.73 1.875 3.48 2.715l-1.35 1.005c-.675-.81-2.16-2.01-3.39-2.805Zm-.525 3.345 1.32-.915c1.11.54 2.67 1.395 3.465 2.01l-1.41 1.02c-.72-.6-2.235-1.515-3.375-2.115Zm-8.4-2.385c2.985-.015 7.695-.09 11.985-.18l-.075 1.335c-4.275.12-8.85.225-11.82.27l-.09-1.425Zm3.105 1.515 1.65.63c-.975.96-2.505 1.89-3.75 2.46-.315-.345-.96-.945-1.35-1.23 1.275-.435 2.64-1.14 3.45-1.86Zm2.565-10.83h1.8v5.37h-1.8v-5.37Zm-4.905.825h11.865v1.29H482.15v-1.29Zm.78 1.875h10.305v1.275H482.93v-1.275Zm-1.59 1.86h13.35v1.365h-13.35v-1.365Zm22.785-1.44h7.365v1.71h-7.365v-1.71Zm4.02-3.09h1.905v11.865c0 1.02-.21 1.515-.825 1.8-.615.3-1.56.345-2.865.345-.09-.51-.36-1.32-.615-1.815.825.03 1.755.015 2.025.015s.375-.09.375-.345V121.28Zm-.15 3.915 1.455.885c-1.095 2.61-3.195 5.46-5.31 7.05-.3-.48-.855-1.11-1.305-1.47 2.1-1.335 4.155-4.02 5.16-6.465Zm-10.32-.84h6.03v1.725h-6.03v-1.725Zm2.31-3.09h1.815v14.085h-1.815v-14.085Zm-.06 4.245 1.17.42c-.57 2.475-1.635 5.37-2.925 6.945-.18-.555-.63-1.32-.93-1.8 1.17-1.32 2.22-3.615 2.685-5.565Zm1.74.84c.48.375 2.115 2.04 2.475 2.445l-1.05 1.545c-.525-.855-1.725-2.415-2.31-3.105l.885-.885Zm19.725-1.89c-.525-.54-1.56-1.545-2.145-1.995l1.38-.96c.525.42 1.65 1.38 2.175 1.935l-1.41 1.02Zm-4.08-1.605c.12.285.42.9.585 1.185.615 1.155 1.29 2.64 1.83 3.9.705 1.635 1.875 4.83 2.37 6.525l-2.07.525c-.465-1.89-1.245-4.425-2.01-6.225-.6-1.395-1.155-2.76-1.77-3.84-.225-.36-.585-.93-.885-1.305l1.95-.765Zm-3.24 4.395c.585-.135 1.23-.375 1.485-.48 2.73-1.065 5.805-2.82 8.22-2.82 2.31 0 3.72 1.41 3.72 3.15 0 2.1-1.44 3.42-3.735 3.42-.825 0-1.755-.21-2.325-.42l.06-1.875c.675.285 1.425.495 2.07.495 1.125 0 1.95-.615 1.95-1.695 0-.75-.66-1.38-1.785-1.38-2.43 0-6.93 2.685-8.79 3.525l-.87-1.92Zm27.495-5.37c.375.555.915 1.5 1.185 2.055l-1.2.51c-.3-.6-.765-1.5-1.17-2.07l1.185-.495Zm1.77-.675c.405.555.945 1.515 1.215 2.04l-1.185.51c-.315-.63-.795-1.5-1.215-2.07l1.185-.48Zm-6.75 1.395c-.165.39-.375.915-.495 1.23-.27.75-.72 1.86-1.11 2.625-.6 1.185-1.62 2.64-2.61 3.51l-1.89-1.14c1.065-.795 2.04-2.145 2.61-3.09.405-.69.675-1.47.87-2.055.165-.495.285-1.065.315-1.53l2.31.45Zm-2.37 2.325h7.935c.375 0 1.065-.03 1.56-.105v2.04c-.57-.045-1.215-.045-1.56-.045h-8.1l.165-1.89Zm5.865 1.08c-.105 4.425-1.68 7.35-4.575 9.18l-2.025-1.365c.54-.225 1.065-.525 1.41-.825 1.71-1.305 3.045-3.375 3.105-6.99h2.085Zm7.785 1.05c.555.045 1.635.105 2.415.105h8.055c.705 0 1.365-.075 1.77-.105v2.37c-.36-.015-1.125-.09-1.755-.09h-8.07c-.84 0-1.845.045-2.415.09v-2.37Zm22.991-4.365c-.195.45-.405 1.005-.63 1.68-.555 1.68-2.115 6.51-2.76 8.07l-2.205.075c.81-1.92 2.37-6.84 2.865-8.58.21-.75.285-1.23.345-1.725l2.385.48Zm2.685 4.845c1.08 1.62 2.61 4.575 3.3 6.24l-2.025.9c-.675-1.815-2.07-4.92-3.135-6.36l1.86-.78Zm-8.43 4.305c2.085-.075 6.99-.63 9.09-.915l.435 1.92c-2.22.285-7.38.825-9.405 1.035-.375.045-.945.12-1.41.18l-.36-2.205c.51.015 1.17 0 1.65-.015Zm17.58 1.29c2.43-1.005 4.05-2.505 5.13-4.08 1.125-1.605 1.545-3.285 1.785-4.53.135-.675.195-1.44.18-1.8l2.43.33c-.165.57-.345 1.32-.435 1.755-.39 1.755-.99 3.585-2.085 5.265-1.17 1.8-2.835 3.45-5.205 4.605l-1.8-1.545Zm-.3-10.35c.735 1.065 2.025 3.36 2.58 4.41l-1.965 1.11c-.75-1.605-1.86-3.555-2.55-4.53l1.935-.99Zm14.52 4.275c.555.045 1.635.105 2.415.105h8.055c.705 0 1.365-.075 1.77-.105v2.37c-.36-.015-1.125-.09-1.755-.09h-8.07c-.84 0-1.845.045-2.415.09v-2.37Zm26.883-3.21c-.12.165-.39.615-.525.93-.615 1.425-1.725 3.465-3.015 4.965-1.68 1.935-3.945 3.795-6.27 4.89l-1.56-1.62c2.43-.9 4.74-2.73 6.15-4.29.99-1.125 1.905-2.61 2.25-3.675h-5.1c-.615 0-1.44.075-1.77.105v-2.145c.405.06 1.335.105 1.77.105h5.295c.66 0 1.245-.075 1.56-.18l1.215.915Zm-3.345 4.65c1.545 1.26 3.675 3.495 4.65 4.695l-1.71 1.485c-1.11-1.545-2.745-3.33-4.35-4.785l1.41-1.395Z"/><path d="M389.431 234.359c-12.317 88.866-88.591 157.287-180.846 157.287-5.194 0-10.338-.217-15.422-.642-.558 4.797-4.636 8.52-9.583 8.52-5.328 0-9.647-4.319-9.647-9.648 0-.507.039-1.006.114-1.492C89.723 372.24 26 298.092 26 209.061c0-27.958 6.284-54.449 17.517-78.137-3.43-2.062-5.725-5.82-5.725-10.114 0-6.512 5.279-11.791 11.792-11.791 1.943 0 3.776.47 5.393 1.302 32.49-50.441 89.148-83.844 153.608-83.844 100.838 0 182.584 81.746 182.584 182.584 0 3.628-.105 7.232-.314 10.807 2.901 1.038 4.977 3.81 4.977 7.068 0 3.769-2.78 6.89-6.401 7.423Zm-2.166.006c-12.304 87.675-87.614 155.137-178.68 155.137-5.191 0-10.331-.219-15.41-.649-.511-4.847-4.612-8.624-9.595-8.624-4.068 0-7.548 2.518-8.966 6.08-83.415-15.891-146.47-89.206-146.47-177.248 0-27.624 6.208-53.799 17.304-77.205 1.287.482 2.68.746 4.135.746 6.512 0 11.792-5.279 11.792-11.792 0-3.8-1.798-7.181-4.59-9.338 32.11-49.844 88.1-82.851 151.8-82.851 99.654 0 180.44 80.786 180.44 180.441 0 3.485-.098 6.946-.293 10.382-.134-.007-.269-.011-.404-.011-4.145 0-7.504 3.36-7.504 7.504 0 3.784 2.8 6.913 6.441 7.429Z" fill="url(#_grade)" fill-rule="evenodd" stroke-width="0"/><path d="M510 96h73c.552 0 1 .448 1 1s-.448 1-1 1h-73c-.552 0-1-.448-1-1s.448-1 1-1Z" fill="url(#_grade_2)" stroke-width="0"/><path d="M172 98h67c.552 0 1 .448 1 1s-.448 1-1 1h-67c-.552 0-1-.448-1-1s.448-1 1-1Z" fill="url(#_grade_3)" stroke-width="0"/><path d="M543.415 389.502c99.655 0 180.441-80.786 180.441-180.441S643.07 28.621 543.415 28.621s-180.44 80.786-180.44 180.441 80.786 180.441 180.44 180.441Zm0 2.144C644.254 391.646 726 309.9 726 209.061S644.254 26.477 543.415 26.477s-182.584 81.746-182.584 182.584 81.746 182.585 182.584 182.585Z" fill="url(#_grade_4)" fill-rule="evenodd" stroke-width="0"/><path d="M616.658 380.228c0 6.513-5.279 11.792-11.791 11.792s-11.792-5.279-11.792-11.792 5.279-11.791 11.792-11.791 11.791 5.279 11.791 11.791Z" fill="url(#_grade_5)" stroke-width="0"/><path d="M652.034 55.42c0 5.328-4.32 9.648-9.648 9.648s-9.648-4.32-9.648-9.648 4.319-9.648 9.648-9.648 9.648 4.319 9.648 9.648Z" fill="url(#_grade_6)" stroke-width="0"/><path d="M420.487 335.741c0 3.849-3.12 6.968-6.968 6.968s-6.968-3.119-6.968-6.968 3.12-6.968 6.968-6.968 6.968 3.12 6.968 6.968Z" fill="url(#_grade_7)" stroke-width="0"/><path d="M543.415 389.502c99.655 0 180.441-80.786 180.441-180.441S643.07 28.621 543.415 28.621s-180.44 80.786-180.44 180.441 80.786 180.441 180.44 180.441Zm0 2.144C644.254 391.646 726 309.9 726 209.061S644.254 26.477 543.415 26.477s-182.584 81.746-182.584 182.584 81.746 182.585 182.584 182.585Z" fill-rule="evenodd" fill="url(#_grade_8)" stroke-width="0"/><path d="M616.658 380.228c0 6.513-5.279 11.792-11.791 11.792s-11.792-5.279-11.792-11.792 5.279-11.791 11.792-11.791 11.791 5.279 11.791 11.791Z" fill="url(#_grade_9)" stroke-width="0"/><path d="M652.034 55.42c0 5.328-4.32 9.648-9.648 9.648s-9.648-4.32-9.648-9.648 4.319-9.648 9.648-9.648 9.648 4.319 9.648 9.648Z" fill="url(#_grade_10)" stroke-width="0"/><path d="M420.487 335.741c0 3.849-3.12 6.968-6.968 6.968s-6.968-3.119-6.968-6.968 3.12-6.968 6.968-6.968 6.968 3.12 6.968 6.968Z" fill="url(#_grade_11)" stroke-width="0"/><path class="cls-29" d="M93.565 122.114c.375.555.915 1.5 1.185 2.055l-1.2.51c-.3-.6-.765-1.5-1.17-2.07l1.185-.495Zm1.77-.675c.405.555.945 1.515 1.215 2.04l-1.185.51c-.315-.63-.795-1.5-1.215-2.07l1.185-.48Zm-6.75 1.395c-.165.39-.375.915-.495 1.23-.27.75-.72 1.86-1.11 2.625-.6 1.185-1.62 2.64-2.61 3.51l-1.89-1.14c1.065-.795 2.04-2.145 2.61-3.09.405-.69.675-1.47.87-2.055.165-.495.285-1.065.315-1.53l2.31.45Zm-2.37 2.325h7.935c.375 0 1.065-.03 1.56-.105v2.04c-.57-.045-1.215-.045-1.56-.045h-8.1l.165-1.89Zm5.865 1.08c-.105 4.425-1.68 7.35-4.575 9.18l-2.025-1.365c.54-.225 1.065-.525 1.41-.825 1.71-1.305 3.045-3.375 3.105-6.99h2.085Zm7.785 1.05c.555.045 1.635.105 2.415.105h8.055c.705 0 1.365-.075 1.77-.105v2.37c-.36-.015-1.125-.09-1.755-.09h-8.07c-.84 0-1.845.045-2.415.09v-2.37Zm22.991-4.365c-.195.45-.405 1.005-.63 1.68-.555 1.68-2.115 6.51-2.76 8.07l-2.205.075c.81-1.92 2.37-6.84 2.865-8.58.21-.75.285-1.23.345-1.725l2.385.48Zm2.685 4.845c1.08 1.62 2.61 4.575 3.3 6.24l-2.025.9c-.675-1.815-2.07-4.92-3.135-6.36l1.86-.78Zm-8.43 4.305c2.085-.075 6.99-.63 9.09-.915l.435 1.92c-2.22.285-7.38.825-9.405 1.035-.375.045-.945.12-1.41.18l-.36-2.205c.51.015 1.17 0 1.65-.015Zm28.245-7.98c-.15.195-.435.555-.57.765-.705 1.17-2.13 3.075-3.615 4.125l-1.56-1.245c1.215-.735 2.385-2.055 2.775-2.79h-7.83c-.615 0-1.125.03-1.83.105v-2.1c.585.09 1.215.165 1.83.165h8.085c.42 0 1.245-.06 1.53-.135l1.185 1.11Zm-6.105 2.01c0 3.72-.09 6.78-4.17 8.985l-1.755-1.425c.495-.165 1.035-.42 1.59-.84 1.89-1.32 2.25-2.895 2.25-5.355 0-.48-.015-.87-.09-1.365h2.175Zm12.232 6.135v-8.115c0-.51-.045-1.275-.12-1.725h2.235c-.075.45-.135 1.215-.135 1.725v7.59c0 .945.27 1.26 1.905 1.26 1.575 0 3.255-.195 4.74-.495l-.075 2.04c-1.23.18-3.03.315-4.65.315-3.405 0-3.9-.81-3.9-2.595Zm9.435-6.585c-.135.21-.345.555-.48.81-.66 1.26-2.025 3.315-3.105 4.38l-1.65-.975c.99-.885 1.965-2.265 2.385-3.045-.915.18-7.845 1.56-9.75 1.98l-.36-1.965c2.04-.24 9.09-1.62 10.455-1.95.42-.105.795-.21 1.065-.36l1.44 1.125Zm10.395-.315c.285.63 1.02 2.595 1.23 3.285l-1.785.615c-.195-.72-.855-2.535-1.215-3.315l1.77-.585Zm5.535 1.08c-.165.495-.255.81-.345 1.11-.39 1.515-1.035 3.075-2.055 4.38-1.395 1.815-3.255 3.06-5.01 3.735l-1.575-1.605c1.635-.45 3.735-1.59 4.965-3.15 1.02-1.26 1.755-3.255 1.92-5.145l2.1.675Zm-9.015-.3c.375.765 1.11 2.595 1.395 3.435l-1.83.675c-.24-.795-1.005-2.805-1.365-3.45l1.8-.66Zm17.115 6.69v-8.625c0-.54-.045-1.275-.15-1.815h2.34c-.06.54-.135 1.185-.135 1.815 0 1.65.015 7.515.015 8.625 0 .42.06 1.47.135 2.085h-2.355c.105-.585.15-1.5.15-2.085Zm1.62-6.555c1.995.555 5.235 1.74 6.705 2.46l-.84 2.085c-1.71-.885-4.23-1.845-5.865-2.385v-2.16Zm17.475-4.05c-.12.555-.315 1.44-.735 2.52-.315.735-.75 1.59-1.17 2.19.405-.18 1.2-.285 1.71-.285 1.245 0 2.19.735 2.19 2.13 0 .81.045 2.445.06 3.39h-1.8c.06-.705.09-1.98.075-2.79 0-.96-.6-1.275-1.23-1.275-.825 0-1.77.495-2.34 1.035-.45.45-.87.99-1.38 1.65l-1.605-1.2c1.92-1.77 3.075-3.39 3.705-5.04.3-.81.495-1.725.54-2.49l1.98.165Zm-5.655 1.395c.765.105 1.875.165 2.64.165 1.98 0 4.695-.105 6.87-.495l-.015 1.74c-2.115.3-5.13.435-6.96.435-.615 0-1.71-.03-2.535-.105v-1.74Zm11.88 4.26c-.465.135-1.275.435-1.785.63-.975.375-2.325.915-3.735 1.635-1.365.705-2.1 1.35-2.1 2.175s.72 1.05 2.175 1.05c1.275 0 2.955-.165 4.275-.435l-.06 1.935c-1.005.135-2.835.27-4.26.27-2.34 0-4.095-.585-4.095-2.52 0-2.085 2.145-3.315 3.945-4.215 1.38-.72 2.325-1.08 3.225-1.5.585-.255 1.11-.495 1.68-.78l.735 1.755Zm9.525-5.805c-.06.285-.12.93-.135 1.305-.075 1.185-.12 2.805-.12 4.2 0 1.635.09 4.23.09 5.1 0 1.845-.66 2.355-1.65 2.355-1.455 0-3.525-1.26-3.525-2.85 0-1.455 1.875-2.985 3.96-3.72 1.335-.48 2.85-.72 3.99-.72 2.31 0 4.14 1.2 4.14 3.27 0 1.785-.93 3.12-3.315 3.705-.69.15-1.365.195-1.98.255l-.675-1.95c.66 0 1.32 0 1.83-.105 1.215-.21 2.19-.825 2.19-1.905 0-1.035-.9-1.62-2.205-1.62-1.275 0-2.595.27-3.765.735-1.35.51-2.31 1.32-2.31 1.965 0 .48.705.885 1.095.885.27 0 .465-.12.465-.645 0-.78-.075-2.865-.075-4.68 0-1.71.015-3.57.015-4.26 0-.3-.045-1.05-.09-1.32h2.07Zm4.275 1.635c1.14.555 2.88 1.53 3.69 2.1l-.915 1.53c-.72-.6-2.67-1.725-3.6-2.175l.825-1.455Zm-9.21.825c.885.105 1.53.105 2.07.105 1.56 0 3.9-.285 5.445-.735l.045 1.86c-1.695.39-4.11.66-5.43.66-.99 0-1.575-.015-2.085-.075l-.045-1.815Zm20.235 4.77h8.985v1.605h-8.985v-1.605Zm4.815-5.22h1.605v2.175c0 .36.045.405.315.405h.735c.255 0 .315-.15.345-1.14.315.24.975.48 1.41.585-.165 1.56-.57 1.98-1.56 1.98h-1.2c-1.38 0-1.65-.465-1.65-1.815v-2.19Zm-4.68-1.875h8.805v3h-1.59v-1.47h-5.685v1.545h-1.53v-3.075Zm3.42 5.61h1.77v7.77h-1.77v-7.77Zm-1.155-3.72h1.635c-.135 2.295-.615 3.63-3.345 4.335-.15-.39-.555-.99-.87-1.275 2.205-.495 2.49-1.365 2.58-3.06Zm3.375 5.985c.75 1.395 2.205 2.805 3.645 3.54-.375.33-.93.96-1.215 1.395-1.5-.945-2.94-2.67-3.795-4.425l1.365-.51Zm-2.61-.15 1.395.465c-.915 2.01-2.505 3.795-4.35 4.74-.255-.405-.765-1.035-1.14-1.365 1.725-.735 3.315-2.235 4.095-3.84Zm-8.205-.87c1.2-.27 2.985-.75 4.68-1.23l.24 1.62c-1.545.48-3.195.96-4.515 1.335l-.405-1.725Zm.24-4.695h4.59v1.65h-4.59v-1.65Zm1.59-2.835h1.65v12.165c0 .84-.15 1.305-.615 1.575-.45.285-1.095.345-2.07.345-.045-.45-.255-1.185-.465-1.68.54.03 1.065.03 1.245.015.18 0 .255-.045.255-.255v-12.165Zm19.935.825c-.09.63-.165 1.41-.195 2.01-.075 1.62-.18 4.965-.18 6.825 0 1.515.9 2.01 2.07 2.01 2.475 0 4.035-1.425 5.13-3.06l1.365 1.665c-.975 1.44-3.105 3.435-6.525 3.435-2.46 0-4.035-1.08-4.035-3.645 0-2.01.135-5.94.135-7.23 0-.72-.06-1.44-.18-2.025l2.415.015Zm19.8 1.62c-.21 1.53-.51 3.285-1.035 5.055-.9 3.03-2.19 4.89-3.825 4.89-1.68 0-3.06-1.845-3.06-4.38 0-3.45 3.015-6.42 6.9-6.42 3.705 0 6.06 2.58 6.06 5.865 0 3.15-1.935 5.385-5.715 5.97l-1.14-1.77c.585-.075 1.005-.15 1.41-.24 1.905-.465 3.405-1.83 3.405-4.035 0-2.355-1.47-4.035-4.065-4.035-3.18 0-4.92 2.595-4.92 4.485 0 1.515.6 2.25 1.17 2.25.645 0 1.215-.96 1.845-2.985.435-1.41.765-3.135.915-4.71l2.055.06Zm15.06-.75c-1.23 1.83-3.54 3.93-6.03 5.34-.24-.42-.75-1.08-1.155-1.455 2.61-1.35 5.04-3.735 6.165-5.67h1.875c1.62 2.4 4.08 4.44 6.495 5.49-.45.465-.87 1.065-1.215 1.605-2.325-1.29-4.845-3.45-6.135-5.31Zm.09 5.73h5.04v1.605h-5.04v-1.605Zm-6.42 4.62h12.825v1.62h-12.825v-1.62Zm5.52-7.845h1.92v8.715h-1.92v-8.715Zm-3.885 2.595h1.77v6.075h-1.77v-6.075Zm14.61 2.37h13.38v1.47h-13.38v-1.47Zm.03-6.735h13.29v1.485h-13.29v-1.485Zm.615 2.685h12.105v1.41h-12.105v-1.41Zm.75 2.07h10.65v1.305h-10.65v-1.305Zm4.35-1.35h1.785v8.235h-1.785v-8.235Zm-1.305-5.865h1.68v3.165h-1.68v-3.165Zm2.775 0h1.71v3.06h-1.71v-3.06Zm-1.8 9.855 1.41.63c-1.425 1.56-3.825 2.835-6.135 3.435-.24-.435-.765-1.125-1.155-1.5 2.265-.435 4.65-1.425 5.88-2.565Zm2.475-.045c1.215 1.185 3.555 2.115 5.895 2.505-.405.375-.945 1.125-1.215 1.62-2.37-.6-4.665-1.875-6.075-3.57l1.395-.555Zm2.775-9.69 1.89.45c-.48.825-.99 1.635-1.38 2.19l-1.455-.45c.345-.615.735-1.53.945-2.19Zm-1.98 3.225 1.905.435c-.405.72-.795 1.38-1.11 1.86l-1.53-.435c.27-.54.585-1.305.735-1.86Zm-7.575-2.745 1.545-.525c.435.645.93 1.545 1.14 2.13l-1.635.585c-.165-.585-.645-1.5-1.05-2.19Zm1.905 3.36 1.74-.27c.255.42.54 1.005.66 1.41l-1.83.315c-.09-.39-.345-1.02-.57-1.455Zm18.6-2.28h8.235v1.425h-8.235v-1.425Zm.405 2.01h7.515v1.35h-7.515v-1.35Zm-.69 1.995h8.79v1.47h-8.79v-1.47Zm6.06-5.7 1.785.435c-.405.675-.81 1.335-1.11 1.77l-1.41-.405c.27-.525.585-1.275.735-1.8Zm-4.815.525 1.41-.465c.345.51.72 1.2.855 1.665l-1.5.54c-.12-.465-.45-1.2-.765-1.74Zm6.12 6.93 1.35.96c-.66.69-1.455 1.425-2.055 1.905l-1.155-.885c.585-.495 1.395-1.35 1.86-1.98Zm-7.08.855 1.23-.81c.54.555 1.2 1.32 1.5 1.845l-1.29.9c-.27-.54-.9-1.35-1.44-1.935Zm-.87 3.39c.9-.405 2.22-1.08 3.51-1.74l.465 1.455c-1.05.615-2.235 1.275-3.195 1.8l-.78-1.515Zm4.125-9.045h1.725v9.675c0 .81-.135 1.245-.615 1.515-.495.27-1.215.3-2.16.3-.045-.465-.255-1.17-.465-1.59.51.015 1.095.015 1.275.015s.24-.075.24-.24v-9.675Zm1.635 4.8c.66 2.01 1.98 3.735 3.9 4.515-.36.33-.885.99-1.14 1.455-1.95-1.08-3.225-3.18-3.93-5.7l1.17-.27Zm-10.185-4.32h4.965v1.665h-4.965v-1.665Zm1.83-3.105h1.635v14.085h-1.635v-14.085Zm-.03 4.245 1.005.345c-.435 2.37-1.29 5.265-2.355 6.81-.15-.48-.54-1.17-.795-1.59.96-1.305 1.8-3.66 2.145-5.565Zm1.59 1.095c.33.405 1.56 2.295 1.815 2.715l-.93 1.29c-.33-.87-1.23-2.58-1.635-3.285l.75-.72Z"/><path d="M195.633 254.846c1.943 1.122 3.14 3.195 3.14 5.439v39.846c0 2.244-1.197 4.317-3.14 5.439l-34.509 19.923c-1.942 1.122-4.336 1.122-6.279 0l-34.508-19.923c-1.943-1.122-3.14-3.195-3.14-5.439v-39.846c0-2.244 1.197-4.317 3.14-5.439l34.508-19.923c1.943-1.122 4.337-1.122 6.279 0l34.509 19.923Z" fill="url(#_grade_12)" stroke-width="0"/><path class="cls-32" d="M154.605 265.798h-4.923c-.761 0-1.379-.616-1.379-1.379s.618-1.379 1.379-1.379h4.923c.761 0 1.379.616 1.379 1.379s-.618 1.379-1.379 1.379Zm11.486-2.758c.762 0 1.379.616 1.379 1.379s-.617 1.379-1.379 1.379h-4.923c-.761 0-1.379-.616-1.379-1.379s.618-1.379 1.379-1.379h4.923Zm-11.486 6.564c.761 0 1.379.616 1.379 1.379s-.618 1.379-1.379 1.379h-4.923c-.761 0-1.379-.616-1.379-1.379s.618-1.379 1.379-1.379h4.923Zm11.486 0c.762 0 1.379.616 1.379 1.379s-.617 1.379-1.379 1.379h-4.923c-.761 0-1.379-.616-1.379-1.379s.618-1.379 1.379-1.379h4.923Zm-11.486 6.563c.761 0 1.379.617 1.379 1.379s-.618 1.38-1.379 1.38h-4.923c-.761 0-1.379-.617-1.379-1.38s.618-1.379 1.379-1.379h4.923Zm11.486 0c.762 0 1.379.617 1.379 1.379s-.617 1.38-1.379 1.38h-4.923c-.761 0-1.379-.617-1.379-1.38s.618-1.379 1.379-1.379h4.923Zm-11.486 6.564c.761 0 1.379.616 1.379 1.379s-.618 1.379-1.379 1.379h-4.923c-.761 0-1.379-.616-1.379-1.379s.618-1.379 1.379-1.379h4.923Zm11.486 0c.762 0 1.379.616 1.379 1.379s-.617 1.379-1.379 1.379h-4.923c-.761 0-1.379-.616-1.379-1.379s.618-1.379 1.379-1.379h4.923Z"/><path class="cls-32" d="M174.034 298.878v.262h1.903c.761 0 1.379.616 1.379 1.379s-.618 1.379-1.379 1.379h-36.1c-.762 0-1.38-.616-1.38-1.379s.618-1.379 1.38-1.379h1.902v-38.002c0-2.57 2.092-4.662 4.661-4.662h22.973c2.57 0 4.661 2.092 4.661 4.662v37.74Zm-19.691 0v.262h7.087v-7.087h-7.087v6.825Zm9.846 0v.262h7.087v-38.002c0-1.051-.855-1.903-1.903-1.903H146.4c-1.048 0-1.902.852-1.902 1.903v38.002h7.087v-6.825c0-1.666 1.354-3.02 3.02-3.02h6.563c1.666 0 3.021 1.354 3.021 3.02v6.563Z"/><path d="M239.411 178.036c1.942 1.121 3.139 3.195 3.139 5.438v39.847c0 2.243-1.197 4.316-3.139 5.438l-34.509 19.924c-1.943 1.121-4.336 1.121-6.279 0l-34.509-19.924c-1.943-1.122-3.14-3.195-3.14-5.438v-39.847c0-2.243 1.197-4.317 3.14-5.438l34.509-19.924c1.943-1.121 4.336-1.121 6.279 0l34.509 19.924Z" fill="url(#_grade_13)" stroke-width="0"/><path class="cls-25" d="M196.554 224.154c-.066 0-.139-.008-.213-.025-.427-.115-.673-.549-.558-.976l.796-2.913c.115-.426.558-.672.976-.558.427.115.673.55.558.977l-.796 2.912c-.09.345-.41.583-.763.583Zm9.821 0c-.353 0-.673-.23-.763-.583l-.796-2.912c-.115-.427.131-.862.558-.977.427-.114.861.132.976.558l.796 2.913c.115.427-.131.861-.558.976-.074.017-.139.025-.213.025Z"/><path class="cls-25" d="M221.036 221.241h-5.349c-.443 0-.796-.353-.796-.796s.353-.795.796-.795h5.349c.624 0 1.132-.509 1.132-1.133v-1.009c0-.443.353-.796.796-.796s.796.353.796.796v1.009c0 1.494-1.222 2.724-2.724 2.724Zm-10.756-.008h-28.388c-1.493 0-2.715-1.222-2.715-2.724v-26.96c0-1.501 1.222-2.724 2.715-2.724h6.736c.443 0 .796.353.796.796s-.353.796-.796.796h-6.736c-.623 0-1.124.509-1.124 1.132v26.952c0 .623.509 1.132 1.124 1.132h28.38c.443 0 .796.353.796.796s-.353.804-.788.804Zm.566-6.498h-28.281c-.443 0-.796-.353-.796-.796v-21.881c0-.443.353-.796.796-.796h6.047c.443 0 .796.353.796.796s-.353.796-.796.796h-5.251v20.298h27.485c.443 0 .796.352.796.795 0 .435-.353.788-.796.788Zm9.526-2.552c-.443 0-.796-.352-.796-.795v-18.543h-5.251c-.443 0-.796-.352-.796-.795s.353-.796.796-.796h6.047c.443 0 .795.353.795.796v19.338c0 .443-.352.795-.795.795Zm2.592-.106c-.443 0-.796-.353-.796-.796v-19.732c0-.623-.508-1.132-1.132-1.132h-6.728c-.443 0-.795-.353-.795-.796s.352-.796.795-.796h6.728c1.502 0 2.724 1.223 2.724 2.724v19.724c0 .443-.353.804-.796.804Zm-13.693 14.973h-15.613c-.443 0-.796-.352-.796-.795v-1.264c0-1.337 1.091-2.429 2.429-2.429h12.347c1.338 0 2.429 1.092 2.429 2.429v1.264c0 .434-.353.795-.796.795Zm-14.817-1.591h14.021v-.468c0-.459-.377-.837-.837-.837h-12.347c-.46 0-.837.378-.837.837v.468Z"/><path class="cls-25" d="M201.468 219.166c-1.116 0-2.018-.903-2.018-2.019s.902-2.018 2.018-2.018 2.019.902 2.019 2.018-.911 2.019-2.019 2.019Zm0-2.445c-.238 0-.426.188-.426.426s.188.427.426.427.427-.189.427-.427c0-.23-.189-.426-.427-.426Zm11.142 6.522c-.853 0-1.633-.312-2.273-.927-.106-.09-1.222-1.157-.902-3.815l.09-.73c.058-.435.107-.87.156-1.313.049-.418.123-.902.197-1.378.057-.394.123-.78.164-1.124.181-1.518.878-2.897 1.953-3.865 1.157-1.05 3.528-2.338 6.563.509h3.963c3.036-2.847 5.407-1.559 6.564-.509 1.075.977 1.772 2.347 1.952 3.865.041.344.099.73.164 1.115.074.476.148.952.197 1.371.025.254.066.516.099.771.057.435.115.878.156 1.321.205 2.56-.771 3.643-.878 3.757-.804.763-1.781 1.067-2.847.903-.976-.148-1.871-.673-2.527-1.485l-2.765-3.421h-4.193l-2.764 3.421c-.657.812-1.551 1.337-2.527 1.485-.181.033-.361.049-.542.049Zm2.289-12.766c-.64 0-1.247.262-1.838.796-.796.714-1.304 1.739-1.444 2.88-.041.361-.106.771-.172 1.181-.074.451-.139.911-.189 1.313-.049.451-.106.894-.156 1.329l-.09.722c-.213 1.797.41 2.461.419 2.469.418.402.91.55 1.493.46.582-.09 1.124-.41 1.526-.911l3.003-3.716c.147-.189.377-.296.615-.296h4.947c.238 0 .468.107.616.296l3.003 3.716c.402.501.943.821 1.526.911.59.09 1.066-.058 1.485-.46-.009 0 .558-.73.418-2.502-.033-.41-.09-.82-.139-1.231-.033-.27-.074-.541-.107-.812-.041-.402-.115-.845-.181-1.296-.065-.402-.123-.812-.172-1.173-.139-1.141-.648-2.166-1.444-2.88-1.386-1.256-2.896-1.034-4.619.689-.148.148-.353.23-.566.23h-4.603c-.213 0-.41-.082-.566-.23-.968-.993-1.895-1.485-2.765-1.485Z"/><path class="cls-25" d="M226.065 217.5c-1.608 0-2.912-1.305-2.912-2.913s1.304-2.912 2.912-2.912 2.913 1.304 2.913 2.912c-.008 1.608-1.313 2.913-2.913 2.913Zm0-4.225c-.73 0-1.321.59-1.321 1.321s.591 1.321 1.321 1.321 1.321-.591 1.321-1.321c-.008-.731-.599-1.321-1.321-1.321Zm-11.067 4.225c-1.609 0-2.913-1.305-2.913-2.913s1.304-2.912 2.913-2.912 2.912 1.304 2.912 2.912c-.008 1.608-1.313 2.913-2.912 2.913Zm0-4.225c-.731 0-1.321.59-1.321 1.321s.59 1.321 1.321 1.321 1.32-.591 1.32-1.321-.598-1.321-1.32-1.321Zm-13.53-8.664c-7.556 0-13.701-6.145-13.701-13.702s6.145-13.693 13.701-13.693 13.694 6.145 13.694 13.693c.008 7.557-6.137 13.702-13.694 13.702Zm0-25.804c-6.678 0-12.109 5.432-12.109 12.102s5.431 12.11 12.109 12.11 12.102-5.431 12.102-12.11c.008-6.67-5.423-12.102-12.102-12.102Z"/><path class="cls-25" d="M201.468 204.611c-4.176 0-7.45-6.014-7.45-13.702s3.274-13.693 7.45-13.693 7.45 6.014 7.45 13.693-3.274 13.702-7.45 13.702Zm0-25.804c-3.175 0-5.858 5.547-5.858 12.102s2.683 12.11 5.858 12.11 5.858-5.546 5.858-12.11-2.683-12.102-5.858-12.102Z"/><path class="cls-25" d="M201.468 185.461c-3.831 0-7.515-.861-10.091-2.371-.378-.222-.509-.714-.287-1.091.221-.378.705-.509 1.091-.287 2.338 1.37 5.727 2.157 9.287 2.157s6.95-.787 9.288-2.157c.377-.222.869-.099 1.091.279.222.377.098.869-.279 1.091-2.584 1.518-6.26 2.379-10.1 2.379Zm9.682 14.76c-.14 0-.271-.033-.403-.107-2.338-1.362-5.718-2.149-9.287-2.149s-6.941.787-9.288 2.149c-.377.222-.869.091-1.091-.287-.221-.377-.09-.87.287-1.091 2.585-1.501 6.26-2.363 10.084-2.363s7.515.862 10.091 2.363c.378.221.509.706.287 1.091-.139.246-.402.394-.68.394Z"/><path class="cls-25" d="M201.468 204.611c-.443 0-.795-.353-.795-.796v-25.803c0-.443.352-.796.795-.796s.796.353.796.796v25.803c0 .443-.353.796-.796.796Z"/><path class="cls-25" d="M214.374 191.714h-25.803c-.443 0-.796-.353-.796-.796s.353-.796.796-.796h25.803c.443 0 .796.353.796.796 0 .435-.361.796-.796.796Z"/><path d="M285.732 253.69c1.943 1.122 3.14 3.195 3.14 5.438v39.847c0 2.244-1.197 4.317-3.14 5.438l-34.508 19.924c-1.943 1.122-4.337 1.122-6.28 0l-34.508-19.924c-1.943-1.121-3.14-3.194-3.14-5.438v-39.847c0-2.243 1.197-4.316 3.14-5.438l34.508-19.923c1.943-1.122 4.337-1.122 6.28 0l34.508 19.923Z" fill="url(#_grade_14)" stroke-width="0"/><path class="cls-21" d="m253.459 284.088 6.508-5.011c.346-.267.41-.764.144-1.109-.268-.347-.766-.413-1.11-.145l-5.977 4.602-2.037-2.119c-.516-.536-1.21-.835-1.954-.843-.785-.011-1.445.28-1.97.805l-2.016 2.016-5.968-4.476c-.35-.262-.846-.19-1.108.159-.263.349-.192.845.158 1.107l6.472 4.854.818.819c.501.5.716 1.212.577 1.905l-2.105 10.528c-.085.429.192.845.621.931.052.011.104.016.156.016.369 0 .7-.259.774-.636l2.106-10.528c.243-1.212-.134-2.459-1.009-3.335l-.299-.299 1.942-1.941c.223-.224.506-.359.835-.342.315.004.609.13.828.358l1.967 2.047-.159.146c-.942.868-1.372 2.187-1.121 3.443l2.09 10.45c.075.377.406.636.775.636.052 0 .104-.004.156-.015.429-.086.707-.503.621-.932l-2.091-10.45c-.143-.717.102-1.471.641-1.966l.735-.675Z"/><path class="cls-21" d="M266.636 298.126h-35.207c-.436 0-.791-.354-.791-.791v-7.619c0-6.252 4.262-11.566 10.366-12.923 5.253-1.168 10.804-1.168 16.057 0 6.103 1.356 10.366 6.67 10.366 12.923v7.619c0 .436-.354.791-.791.791Zm-34.415-1.583h33.623v-6.827c0-5.505-3.753-10.183-9.126-11.378-5.028-1.117-10.343-1.117-15.37 0-5.374 1.195-9.126 5.873-9.126 11.378v6.827Zm26.963-32.415c.003-.071.003-.139-.011-.206-.292-5.347-4.722-9.611-10.141-9.611s-9.866 4.281-10.142 9.643c-.009.054-.028.104-.026.161.001.022.013.041.015.063-.003.102-.015.201-.015.302 0 5.607 4.562 10.169 10.169 10.169s10.17-4.562 10.17-10.169c-.001-.119-.016-.234-.019-.352Zm-10.152-8.234c4.176 0 7.66 2.996 8.426 6.951-1.042-.51-2.597-1.479-3.879-3.153-.153-.199-.409-.3-.646-.304-.251.004-.49.134-.636.338-.022.031-2.24 2.99-11.752 3.525.599-4.153 4.171-7.357 8.487-7.357Zm0 17.172c-4.614 0-8.379-3.661-8.568-8.23 7.722-.411 11.123-2.382 12.433-3.485 1.754 1.968 3.745 2.918 4.713 3.294-.089 4.657-3.899 8.421-8.578 8.421Z"/><circle cx="94" cy="41" r="4" fill="#0fae91" stroke-width="0"/><circle cx="673" cy="377" r="4" fill="#49b01f" stroke-width="0"/><circle cx="124" cy="400" r="4" fill="#25af66" stroke-width="0"/><circle cx="722" cy="92" r="4" fill="#3caf39" stroke-width="0"/><path d="M537.484 250.847c1.943 1.122 3.14 3.195 3.14 5.439v39.846c0 2.244-1.197 4.317-3.14 5.439l-34.508 19.923c-1.943 1.122-4.337 1.122-6.28 0l-34.508-19.923c-1.943-1.122-3.14-3.195-3.14-5.439v-39.846c0-2.244 1.197-4.317 3.14-5.439l34.508-19.923c1.943-1.122 4.337-1.122 6.28 0l34.508 19.923Z" fill="url(#_grade_15)" stroke-width="0"/><path class="cls-31" d="M505.825 259.282h.002c3.024-.798 5.771-1.503 8.34-1.003 2.558.499 4.959 2.199 7.271 6.262 1.189 2.179 2.181 5.023 2.976 8.071.795 3.179 1.325 6.555 1.457 9.599.133 3.445-.2 5.882-.92 7.519v.002c-.72 1.699-1.825 2.605-3.121 2.994-1.232.324-2.668.132-4.181-.461-2.571-1.054-5.545-3.299-8.461-6.017-2.085-2.017-5.965-3.013-9.822-3.013s-7.737.996-9.822 3.013c-2.917 2.718-5.891 4.963-8.462 6.018h-.002c-1.508.657-2.944.785-4.179.46-1.359-.388-2.4-1.359-3.12-2.929-.721-1.706-1.053-4.143-.921-7.519.133-3.045.662-6.422 1.457-9.601.729-3.045 1.787-5.89 2.976-8.07 2.313-4.096 4.713-5.796 7.272-6.295 2.545-.496 5.263.192 8.254.948l.087.022h.001c.172.041.345.083.519.126 1.772.43 3.658.888 5.599 1.07s.673.001.673.001h.009c1.941-.183 3.827-.641 5.599-1.071.174-.043.347-.085.519-.126Zm15.395 31.315h.003c.701-.211 1.25-.77 1.655-1.716.606-1.414.871-3.489.738-6.546-.133-2.927-.665-6.118-1.396-9.174-.731-2.925-1.663-5.522-2.796-7.523-1.835-3.302-3.831-4.687-6.017-5.076-2.131-.378-4.428.196-6.889.812l-.144.036c-2.056.53-4.17 1.059-6.548 1.257h-.987c-2.311-.198-4.425-.726-6.481-1.257-2.515-.662-4.86-1.267-7.034-.872-2.186.396-4.181 1.798-6.016 5.1-1.134 2.001-2.065 4.664-2.796 7.521-.798 3.059-1.263 6.317-1.396 9.176-.133 3.057.131 5.131.671 6.413.405.945.953 1.504 1.653 1.715.767.277 1.726.064 2.787-.333 2.276-.871 5.008-3.006 7.729-5.527 2.562-2.365 6.978-3.623 11.41-3.623s8.846 1.258 11.341 3.753h.002c2.656 2.525 5.388 4.593 7.728 5.529h.002c1.069.401 2.022.542 2.781.335Z"/><path class="cls-31" d="M482.614 270.74c.248-.149.536-.244.828-.244h.929c.612 0 1.161-.489 1.161-1.16v-.929c0-.423.142-.781.427-1.066.286-.285.643-.428 1.066-.428s.781.143 1.066.428h.001l.007.008.021.021.037.037.005.005.005.006c.209.279.351.631.351.989v.929c0 .611.49 1.16 1.161 1.16h.929c.423 0 .78.142 1.066.428s.427.643.427 1.066-.142.78-.427 1.065-.643.428-1.066.428h-.929c-.612 0-1.161.489-1.161 1.16v.863c0 .423-.142.78-.427 1.066-.285.285-.643.427-1.066.427s-.78-.142-1.066-.427c-.285-.286-.427-.643-.427-1.066v-.929c0-.612-.49-1.161-1.161-1.161h-.929c-.422 0-.78-.142-1.066-.427-.212-.212-.427-.568-.427-.999 0-.423.142-.781.427-1.066l.238-.184Zm0 0 .018-.072-.184.184-.005.005-.058.058-.008.008-.001.001.238-.184Zm8.16-2.591.006.086.086.006c.898.064 1.673.513 2.327 1.101.645.646 1.097 1.615 1.097 2.648s-.388 1.938-1.099 2.649l-.004.004c-.578.642-1.416 1.03-2.321 1.095l-.086.006-.006.087c-.065.897-.514 1.673-1.101 2.326-.646.645-1.616 1.097-2.648 1.097s-1.938-.387-2.649-1.099l-.004-.003c-.643-.578-1.031-1.416-1.095-2.321l-.006-.087-.087-.006c-.97-.065-1.743-.451-2.391-1.099-.646-.646-1.099-1.616-1.099-2.649s.387-1.939 1.099-2.65l.064-.064c.65-.584 1.425-.97 2.327-1.035l.087-.006.006-.086c.064-.902.516-1.742 1.099-2.325.646-.646 1.616-1.099 2.649-1.099s1.938.387 2.65 1.099l.066.066c.58.58.968 1.42 1.033 2.259Zm22.358-.87c0 1.227-.995 2.222-2.222 2.222s-2.222-.995-2.222-2.222.995-2.222 2.222-2.222 2.222.995 2.222 2.222Zm0 9.421c0 1.227-.995 2.222-2.222 2.222s-2.222-.995-2.222-2.222.995-2.222 2.222-2.222 2.222.995 2.222 2.222Zm-4.71-4.711c0 1.227-.995 2.222-2.223 2.222s-2.222-.995-2.222-2.222.995-2.222 2.222-2.222 2.223.995 2.223 2.222Zm9.421 0c0 1.227-.995 2.222-2.222 2.222s-2.222-.995-2.222-2.222.994-2.222 2.222-2.222 2.222.995 2.222 2.222Z"/><path d="M581.261 174.037c1.943 1.121 3.14 3.195 3.14 5.438v39.847c0 2.243-1.197 4.316-3.14 5.438l-34.508 19.924c-1.943 1.121-4.337 1.121-6.28-.001l-34.508-19.923c-1.943-1.122-3.14-3.195-3.14-5.438v-39.847c0-2.243 1.197-4.317 3.14-5.438l34.508-19.924c1.943-1.121 4.337-1.121 6.28 0l34.508 19.924Z" fill="url(#_grade_16)" stroke-width="0"/><path class="cls-31" d="m534.569 203.764.169.164v-20.667c0-3.161 2.802-5.748 6.264-5.748h16.633c3.463 0 6.265 2.587 6.265 5.748V209.279c0 .007 0 .016-.002.025v.005c.002.066.003.131.003.196 0 2.118-.73 4.171-2.07 5.811s-3.205 2.767-5.28 3.189c-2.076.422-4.233.113-6.107-.874-1.873-.987-3.348-2.591-4.174-4.541-.826-1.95-.952-4.126-.358-6.158.595-2.033 1.875-3.797 3.622-4.994 1.747-1.197 3.854-1.753 5.964-1.574s4.093 1.082 5.614 2.556l.169.165v-19.824c0-1.739-1.65-3.129-3.645-3.129h-16.633c-1.994 0-3.645 1.39-3.645 3.129V210.091c0 .007-.002.016-.002.03v.006c.002.074.003.148.003.222 0 2.117-.73 4.17-2.07 5.811-1.34 1.64-3.205 2.766-5.281 3.188-2.075.422-4.232.114-6.106-.873s-3.349-2.592-4.174-4.542c-.826-1.95-.953-4.125-.358-6.158.595-2.032 1.874-3.797 3.621-4.994 1.748-1.197 3.855-1.753 5.965-1.574 2.11.179 4.093 1.083 5.614 2.557Zm-6.395 13.149c1.74-.002 3.409-.694 4.64-1.925 1.23-1.23 1.922-2.899 1.924-4.639 0-1.299-.385-2.568-1.106-3.647-.721-1.08-1.746-1.921-2.946-2.418s-2.519-.627-3.793-.374c-1.273.254-2.443.879-3.361 1.797s-1.543 2.088-1.796 3.361c-.254 1.274-.124 2.593.373 3.793.497 1.199 1.338 2.225 2.418 2.946 1.079.721 2.349 1.106 3.647 1.106Zm26.542-.843h.1c1.704-.029 3.332-.718 4.539-1.925 1.231-1.231 1.923-2.899 1.925-4.64 0-1.298-.385-2.567-1.106-3.647-.721-1.079-1.747-1.921-2.946-2.417-1.2-.497-2.52-.627-3.793-.374-1.273.253-2.443.879-3.361 1.797s-1.543 2.088-1.797 3.361c-.253 1.273-.123 2.593.374 3.793.497 1.199 1.338 2.224 2.418 2.946 1.079.721 2.348 1.106 3.647 1.106Z"/><path d="M627.583 249.691c1.943 1.122 3.14 3.195 3.14 5.438v39.847c0 2.244-1.197 4.317-3.14 5.438l-34.508 19.924c-1.943 1.122-4.337 1.122-6.28 0l-34.508-19.924c-1.943-1.121-3.14-3.194-3.14-5.438v-39.847c0-2.243 1.197-4.316 3.14-5.438l34.508-19.923c1.943-1.122 4.337-1.122 6.28 0l34.508 19.923Z" fill="url(#_grade_17)" stroke-width="0"/><g clip-path="url(#clippath)"><path class="cls-31" d="M577.692 283.713c.182.177.425.275.679.275l-.679-.275Zm0 0-.01-.01c-.112-.111-.195-.248-.242-.399s-.056-.311-.028-.466l1.664-9.027-1.384 9.902Zm1.653-10.414c-.139.139-.233.318-.269.512l.269-.512Zm0 0 21.701-21.701-21.701 21.701Zm8.742 8.739 21.7-21.699-21.7 21.699Zm0 0c-.14.14-.319.235-.513.27m.513-.27-.513.27m0 0-9.024 1.665m9.024-1.665-9.024 1.665m8.304 5.086c-2.81 1.913-6.376 3.327-10.042 3.98-1.871.332-3.417.407-4.615.333-1.196-.074-2.054-.296-2.544-.564m17.201-3.749-17.654 3.244c-.004.126.079.231.162.306.086.079.196.147.291.199m17.201-3.749c.795-.542 1.685-1.224 2.623-1.944 1.809-1.386 3.557-2.726 5.139-3.534 1.585-.81 2.967-1.065 4.067-.345.942.616 1.448 1.816 1.484 3.805.036 1.987-.398 4.735-1.303 8.406l.097.024m-12.107-6.412 12.107 6.412m-29.308-2.663.048-.088-.048.088Zm29.308 2.663-.097-.024c-.052.212-.174.4-.345.534-.172.134-.383.207-.601.207-.079 0-.158-.009-.235-.028-.124-.03-.241-.085-.344-.161-.103-.076-.19-.171-.257-.281-.066-.11-.11-.231-.129-.358-.02-.126-.014-.256.017-.38l-.097-.024.097.024c1.057-4.288 1.295-6.758 1.235-8.181-.061-1.419-.42-1.82-.589-1.931-.092-.06-.292-.133-.679-.071-.386.061-.967.257-1.831.741l.049.088m3.806 9.845-3.806-9.845m0 0-.049-.088c-1.372.77-2.936 1.969-4.441 3.124-.965.74-1.873 1.436-2.712 2.009-3.241 2.208-7.203 3.637-10.783 4.28-1.79.321-3.482.445-4.939.372-1.459-.073-2.673-.344-3.514-.804m26.439-8.893-26.439 8.893m0 0c-1.318-.72-1.482-1.737-1.466-2.272.029-1.014.714-2.103 2.123-3.284m-.657 5.556.657-5.556m34.299-38.451c-.984 0-1.928.39-2.626 1.086l2.626-1.086Zm0 0c.985 0 1.929.39 2.627 1.086m-2.627-1.086 2.627 1.086m0 0 3.488 3.487-3.488-3.487Zm4.574 6.114c0-.985-.39-1.929-1.086-2.627l1.086 2.627Zm0 0c0 .985-.39 1.93-1.086 2.627l1.086-2.627Zm-32.323 26.261c-.059.01-.118.015-.178.015l.178-.015Zm-9.176 4.99c1.406-1.179 3.516-2.434 6.353-3.783m-6.353 3.783 6.353-3.783m0 0c.233-.105.498-.116.738-.028.241.088.437.266.547.498.11.231.124.496.041.738-.084.241-.26.44-.489.554-3.59 1.706-5.427 3.011-6.367 3.904-.94.892-.994 1.382-.996 1.457l6.526-7.123Zm25.092-30.463-.067.075 5.842 5.84.071.071.07-.071 1.674-1.673c.329-.331.514-.779.514-1.247s-.185-.915-.514-1.246-3.488-3.491-3.488-3.491c-.331-.33-.78-.515-1.247-.515s-.916.185-1.247.515l-1.674 1.676.066.066Zm.715 3.756.098-.098-.11-.055-2.149-2.148-.071-.071-.07.071-17.746 17.745-.071.071.071.071 2.16 2.159.071.071.071-.071 17.746-17.745Zm-14.206 21.426.07.071.071-.071 17.745-17.745.071-.071-.071-.071-2.16-2.159-.071-.071-.07.071-17.746 17.745-.071.071.071.07 2.161 2.16Zm-7.712 1.75-.052.154.167-.031 5.478-1.01.187-.034-.134-.135-4.469-4.469-.134-.135-.035.187-1.008 5.473Z"/></g><path d="M512.197 63.851h18.585v2.289h-18.585v-2.289Zm2.016 3.654h14.658v2.205h-14.658v-2.205Zm-1.722 3.255h18.039v4.494h-2.541v-2.247h-13.083v2.247h-2.415V70.76Zm7.581-8.568h2.625v6.531h-2.625v-6.531Zm2.52 11.487h2.541v4.935c0 .672.126.756.861.756h2.121c.693 0 .84-.336.903-2.499.525.399 1.596.798 2.268.945-.273 3.045-.924 3.822-2.919 3.822h-2.709c-2.457 0-3.066-.714-3.066-2.982v-4.977Zm-5.187-.021h2.625c-.315 4.242-1.239 6.93-7.035 8.316-.231-.672-.861-1.659-1.386-2.184 5.04-.987 5.544-2.856 5.796-6.132Zm24.276-10.521c-.294 1.029-.735 3.192-.861 4.368 1.008-1.617 2.856-3.402 5.208-3.402 2.919 0 5.187 2.877 5.187 7.497 0 5.943-3.633 8.757-9.198 9.786l-1.596-2.436c4.683-.714 7.959-2.268 7.959-7.35 0-3.234-1.092-5.04-2.835-5.04-2.478 0-4.662 3.738-4.746 6.489-.042.588-.021 1.26.084 2.226l-2.583.189c-.126-.819-.252-2.1-.252-3.507 0-1.974.273-4.557.588-6.741.084-.777.147-1.617.168-2.184l2.877.105Zm31.941-1.008 1.827 2.079c-4.326 1.113-10.374 1.638-15.519 1.806-.063-.63-.378-1.659-.609-2.205 5.061-.21 10.857-.756 14.301-1.68Zm-14.112 5.964h16.611v2.415H559.51v-2.415Zm-1.449 4.893h19.299v2.457h-19.299v-2.457Zm8.358-7.896h2.625v13.797c0 1.491-.378 2.163-1.386 2.541-1.008.399-2.541.462-4.683.441-.168-.714-.651-1.848-1.029-2.499 1.554.063 3.318.042 3.801.042s.672-.147.672-.567V65.09Z" fill="#42ff00" stroke-width="0"/><path d="M184.818 66.922v1.428h2.646v-1.428h-2.646Zm-4.662 0v1.428h2.562v-1.428h-2.562Zm-4.62 0v1.428h2.52v-1.428h-2.52Zm-2.331-1.869H189.9v5.187h-16.695v-5.187Zm3.675 10.164v1.008h9.24v-1.008h-9.24Zm0 2.52v1.029h9.24v-1.029h-9.24Zm0-5.04v1.029h9.24v-1.029h-9.24Zm-2.52-1.596h14.406v9.261H174.36v-9.261Zm8.316 10.374 1.995-1.281c2.352.735 5.061 1.743 6.678 2.457l-2.751 1.26c-1.302-.672-3.633-1.68-5.922-2.436Zm-4.662-1.323 2.31 1.05c-1.764 1.134-4.557 2.184-6.741 2.772-.42-.504-1.302-1.407-1.869-1.848 2.289-.399 4.83-1.155 6.3-1.974Zm21.525-13.146c-.147.735-.252 1.974-.252 2.562 0 1.365 0 2.919.126 4.452.294 3.024.924 5.103 2.247 5.103 1.008 0 1.827-2.478 2.226-4.137l2.121 2.541c-1.407 3.675-2.709 4.935-4.389 4.935-2.331 0-4.326-2.058-4.914-7.686-.21-1.932-.231-4.41-.231-5.691 0-.567-.021-1.47-.168-2.121l3.234.042Zm10.5.462c1.995 2.415 3.612 7.665 3.843 10.878l-2.772 1.092c-.315-3.402-1.449-8.484-3.738-11.088l2.667-.882Zm23.583-3.339 1.827 2.079c-4.326 1.113-10.374 1.638-15.519 1.806-.063-.63-.378-1.659-.609-2.205 5.061-.21 10.857-.756 14.301-1.68Zm-14.112 5.964h16.611v2.415H219.51v-2.415Zm-1.449 4.893h19.299v2.457h-19.299v-2.457Zm8.358-7.896h2.625v13.797c0 1.491-.378 2.163-1.386 2.541-1.008.399-2.541.462-4.683.441-.168-.714-.651-1.848-1.029-2.499 1.554.063 3.318.042 3.801.042s.672-.147.672-.567V67.09Z" fill="#0ff" stroke-width="0"/></svg>